<?xml version="1.0" encoding="UTF-8" standalone="no"?>
<!-- Created with Inkscape (http://www.inkscape.org/) -->

<svg
   width="64mm"
   height="128mm"
   viewBox="0 0 64 128"
   version="1.1"
   id="svg133904"
   inkscape:version="1.1.1 (3bf5ae0d25, 2021-09-20)"
   sodipodi:docname="maize.svg"
   inkscape:export-filename="/home/fee/Git/AHFGodot/assets/vector/crops/maize.png"
   inkscape:export-xdpi="25.4"
   inkscape:export-ydpi="25.4"
   xmlns:inkscape="http://www.inkscape.org/namespaces/inkscape"
   xmlns:sodipodi="http://sodipodi.sourceforge.net/DTD/sodipodi-0.dtd"
   xmlns="http://www.w3.org/2000/svg"
   xmlns:svg="http://www.w3.org/2000/svg">
  <sodipodi:namedview
     id="namedview133906"
     pagecolor="#ffffff"
     bordercolor="#666666"
     borderopacity="1.0"
     inkscape:pageshadow="2"
     inkscape:pageopacity="0.0"
     inkscape:pagecheckerboard="0"
     inkscape:document-units="px"
     showgrid="false"
     borderlayer="true"
     inkscape:zoom="1.3701319"
     inkscape:cx="99.990373"
     inkscape:cy="175.89547"
     inkscape:window-width="1920"
     inkscape:window-height="941"
     inkscape:window-x="0"
     inkscape:window-y="32"
     inkscape:window-maximized="1"
     inkscape:current-layer="layer1" />
  <defs
     id="defs133901" />
  <g
     inkscape:label="Layer 1"
     inkscape:groupmode="layer"
     id="layer1">
    <g
       id="g2526"
       transform="matrix(1.1573663,0,0,1.1573663,-3.8159833,-13.693756)">
      <path
         style="fill:#6c892e;fill-opacity:1;stroke:none;stroke-width:0.264583px;stroke-linecap:butt;stroke-linejoin:miter;stroke-opacity:1"
         d="m 3.9425813,84.012483 c -0.7771264,5.335191 -0.5679061,9.35614 0.2003531,10.537743 0.7682593,1.1816 4.2081788,6.770344 4.6508283,8.236754 0.4426495,1.4664 1.5271693,5.53482 1.5271693,5.53482 0,0 -0.07311,-6.6668 -0.6169907,-7.9771 C 9.1600582,99.034392 5.6676787,93.170675 5.744243,91.5696 5.8208076,89.968521 7.0050236,85.456614 8.6021943,85.078487 10.199365,84.700358 11.157813,84.285959 11.157813,84.285959 8.8390603,84.017658 7.18351,82.388435 3.9425813,84.012483"
         id="path143699"
         sodipodi:nodetypes="csscssscc" />
      <path
         style="fill:#d0e2a9;fill-opacity:1;stroke:none;stroke-width:0.264583px;stroke-linecap:butt;stroke-linejoin:miter;stroke-opacity:1"
         d="m 3.9425813,84.012481 c 6.8482197,0 15.1890467,2.966323 18.1484787,5.386543 2.959431,2.420221 6.779437,10.357628 8.325818,12.405206 1.546381,2.04759 4.796009,0.4971 5.502587,-0.2767 C 36.62604,100.75374 32.205366,89.082527 30.503778,87.374655 28.802189,85.666783 21.283287,78.290647 13.327666,79.76277 5.3720449,81.234895 3.9425813,84.012481 3.9425813,84.012481 Z"
         id="path133953" />
      <path
         style="fill:#6c892e;fill-opacity:1;stroke:none;stroke-width:0.264583px;stroke-linecap:butt;stroke-linejoin:miter;stroke-opacity:1"
         d="m 3.9425813,84.012483 c -0.7771264,5.335191 -0.5679061,9.35614 0.2003531,10.537743 0.7682593,1.1816 4.2081788,6.770344 4.6508283,8.236754 0.4426495,1.4664 1.5271693,5.53482 1.5271693,5.53482 0,0 -0.07311,-6.6668 -0.6169907,-7.9771 C 9.1600582,99.034392 5.6676787,93.170675 5.744243,91.5696 5.8208076,89.968521 7.0050236,85.456614 8.6021943,85.078487 10.199365,84.700358 11.157813,84.285959 11.157813,84.285959 8.8390603,84.017658 7.18351,82.388435 3.9425813,84.012483"
         id="path150616"
         sodipodi:nodetypes="csscssscc" />
      <path
         style="fill:#6c892e;fill-opacity:1;stroke:none;stroke-width:0.170963px;stroke-linecap:butt;stroke-linejoin:miter;stroke-opacity:1"
         d="m 18.822112,76.346458 c -0.422201,4.100188 -0.308535,7.190358 0.108849,8.09844 0.417383,0.908081 0.914213,1.230558 1.154698,2.35752 0.240485,1.126954 0.829688,4.253606 0.829688,4.253606 0,0 -0.03972,-5.123553 -0.335202,-6.130541 -0.295483,-1.006995 -0.820814,-1.540794 -0.779218,-2.771248 0.0416,-1.230457 0.684963,-4.697937 1.552682,-4.988534 0.867719,-0.290599 1.388429,-0.609072 1.388429,-0.609072 -1.259743,-0.206194 -2.159179,-1.45828 -3.919926,-0.210171"
         id="path150620"
         sodipodi:nodetypes="csscssscc" />
      <path
         style="fill:#6c892e;fill-opacity:1;stroke:none;stroke-width:0.164323px;stroke-linecap:butt;stroke-linejoin:miter;stroke-opacity:1"
         d="m 11.87042,61.532516 c -2.6312204,1.010538 -2.9573321,1.301791 -4.5650919,2.815661 -0.6148906,0.578982 -1.3648966,3.623481 -1.7176743,4.414178 -0.3527749,0.790693 2.1231276,13.537555 2.1231276,13.537555 0,0 0.5751859,-11.861932 0.81702,-12.64184 0.2418403,-0.779911 1.0357876,-2.920221 1.6979016,-3.50659 0.662116,-0.586371 4.495665,-3.387624 5.612967,-3.596118 1.117301,-0.208496 2.455776,-0.514548 2.455776,-0.514548 -1.622083,-0.147938 -4.156835,-1.403776 -6.424026,-0.508298"
         id="path150909"
         sodipodi:nodetypes="csscssscc" />
      <path
         style="fill:#96ac60;fill-opacity:1;stroke:none;stroke-width:0.264583px;stroke-linecap:butt;stroke-linejoin:miter;stroke-opacity:1"
         d="m 31.728084,100.86801 c 0.302633,4.41529 -1.065424,20.87287 -0.243477,21.29819 0.821946,0.42531 4.532079,-0.52904 4.532079,-0.52904 0,0 -0.138538,-19.16335 -0.611095,-19.81255 -0.472556,-0.6492 -3.677507,-0.9566 -3.677507,-0.9566 z"
         id="path178544" />
      <path
         style="fill:#d0e2a9;fill-opacity:1;stroke:none;stroke-width:0.264583px;stroke-linecap:butt;stroke-linejoin:miter;stroke-opacity:1"
         d="m 3.9425813,84.012481 c 6.8482197,0 15.1890467,2.966323 18.1484787,5.386543 2.959431,2.420221 6.779437,10.357628 8.325818,12.405206 1.546381,2.04759 4.796009,0.4971 5.502587,-0.2767 C 36.62604,100.75374 32.205366,89.082527 30.503778,87.374655 28.802189,85.666783 21.283287,78.290647 13.327666,79.76277 5.3720449,81.234895 3.9425813,84.012481 3.9425813,84.012481 Z"
         id="path150618" />
      <path
         style="fill:#d0e2a9;fill-opacity:1;stroke:none;stroke-width:0.170963px;stroke-linecap:butt;stroke-linejoin:miter;stroke-opacity:1"
         d="m 18.822112,76.346457 c 3.720534,0 8.251978,2.279671 9.859793,4.139652 1.607813,1.859983 3.683164,7.960019 4.52329,9.533618 0.840125,1.573609 2.605598,0.38203 2.989471,-0.212648 0.383872,-0.594672 -2.017813,-9.564203 -2.94226,-10.876733 -0.924447,-1.312529 -5.009352,-6.981219 -9.33152,-5.849867 -4.322168,1.131354 -5.098774,3.265978 -5.098774,3.265978 z"
         id="path150622"
         sodipodi:nodetypes="csssssc" />
      <path
         style="fill:#d0e2a9;fill-opacity:1;stroke:none;stroke-width:0.164323px;stroke-linecap:butt;stroke-linejoin:miter;stroke-opacity:1"
         d="m 11.87042,61.532515 c 4.790673,0 10.625499,1.635591 12.695771,2.970068 2.070269,1.334478 4.742554,5.711057 5.824326,6.840064 1.081771,1.129014 3.355048,0.274094 3.849334,-0.152568 0.494286,-0.426658 -2.598197,-6.862008 -3.788543,-7.803706 -1.190347,-0.941698 -6.450195,-5.008801 -12.015551,-4.197092 -5.565356,0.81171 -6.565337,2.343234 -6.565337,2.343234 z"
         id="path150911"
         sodipodi:nodetypes="csssssc" />
      <path
         style="fill:#6c892e;fill-opacity:1;stroke:none;stroke-width:0.204429px;stroke-linecap:butt;stroke-linejoin:miter;stroke-opacity:1"
         d="m 58.035915,83.690931 c 0.60367,4.100188 0.441148,7.190358 -0.155634,8.09844 -0.596781,0.908081 -1.307157,1.230558 -1.651006,2.35752 -0.343849,1.126954 -1.186301,4.253607 -1.186301,4.253607 0,0 0.05679,-5.123554 0.479277,-6.130542 0.422486,-1.006995 1.173613,-1.540794 1.114138,-2.771248 -0.05948,-1.230457 -0.979371,-4.697937 -2.220049,-4.988534 -1.240679,-0.290599 -2.154725,-1.090156 -2.154725,-1.090156 1.801201,-0.206194 3.256755,-0.977196 5.7743,0.270913"
         id="path152573"
         sodipodi:nodetypes="csscssscc" />
      <path
         style="fill:#d0e2a9;fill-opacity:1;stroke:none;stroke-width:0.204429px;stroke-linecap:butt;stroke-linejoin:miter;stroke-opacity:1"
         d="m 58.035915,83.69093 c -5.31968,0 -12.175623,0.364931 -14.474502,2.224912 -2.298877,1.859983 -4.889437,9.874759 -6.090662,11.448356 -1.201225,1.57361 -3.725527,0.38203 -4.274394,-0.212646 -0.548867,-0.594672 2.885101,-9.564203 4.206891,-10.876733 1.321789,-1.312529 7.162452,-6.981219 13.342357,-5.849867 6.179906,1.131354 7.29031,3.265978 7.29031,3.265978 z"
         id="path152575"
         sodipodi:nodetypes="csssssc" />
      <path
         style="fill:#6c892e;fill-opacity:1;stroke:none;stroke-width:0.204429px;stroke-linecap:butt;stroke-linejoin:miter;stroke-opacity:1"
         d="m 52.54096,52.452677 c 0.60367,4.53133 0.441148,7.505427 -0.155634,7.987286 -0.596781,0.481858 -1.307157,0.296983 -1.651006,1.178367 -0.343849,0.881376 -1.186301,3.406348 -1.186301,3.406348 0,0 0.05679,-5.082994 0.479277,-5.788241 0.422486,-0.705255 1.173613,-0.702597 1.114138,-1.975528 -0.05948,-1.272938 -0.979371,-5.397406 -2.220049,-6.574099 -1.240679,-1.176695 -2.154725,-2.629065 -2.154725,-2.629065 1.801201,1.080228 3.256755,1.348786 5.7743,4.394932"
         id="path153208"
         sodipodi:nodetypes="csscssscc" />
      <path
         style="fill:#d0e2a9;fill-opacity:1;stroke:none;stroke-width:0.204429px;stroke-linecap:butt;stroke-linejoin:miter;stroke-opacity:1"
         d="m 52.54096,52.452676 c -5.31968,-3.799329 -12.175623,-8.330929 -14.474502,-8.112813 -2.298877,0.218119 -4.889437,6.382711 -6.090662,7.09839 -1.201225,0.715692 -3.725527,-2.27875 -4.274394,-3.265428 -0.548867,-0.986675 2.885101,-7.503657 4.206891,-7.872162 1.321789,-0.368504 7.162452,-1.865778 13.342357,3.679277 6.179906,5.545059 7.29031,8.472736 7.29031,8.472736 z"
         id="path153210"
         sodipodi:nodetypes="csssssc" />
      <path
         style="fill:#dac227;fill-opacity:1;stroke:none;stroke-width:0.264583px;stroke-linecap:butt;stroke-linejoin:miter;stroke-opacity:1"
         d="m 10.791208,38.349377 c 2.598374,4.495536 9.871373,13.955982 13.080372,16.578995 3.209,2.623013 6.373438,4.443495 6.373438,4.443495 0,0 -1.026046,-8.437547 -2.148345,-9.747001 -1.122297,-1.309455 -13.36155,-12.798994 -14.573086,-13.040352 -1.211536,-0.241358 -3.182565,0.823992 -2.732379,1.764863 z"
         id="path153245" />
      <path
         style="fill:#000000;fill-opacity:0.297501;stroke:none;stroke-width:0.264583px;stroke-linecap:butt;stroke-linejoin:miter;stroke-opacity:1"
         d="m 22.16865,43.974071 c 0.920588,1.522955 3.367995,5.432105 3.924767,7.502996 0.556772,2.070894 1.203045,5.888023 1.956541,6.376399 0.753496,0.488378 2.19506,1.518401 2.19506,1.518401 0,0 -4.8296,-13.410602 -5.618189,-13.916747 -0.78859,-0.506143 -2.458179,-1.481049 -2.458179,-1.481049 z"
         id="path200151"
         sodipodi:nodetypes="csscsc" />
      <path
         style="fill:#d0e2a9;fill-opacity:1;stroke:none;stroke-width:0.264583px;stroke-linecap:butt;stroke-linejoin:miter;stroke-opacity:1"
         d="m 14.770382,32.795691 c 4.49064,4.478422 5.060653,5.299805 8.245699,10.932528 3.185046,5.63272 7.228937,15.643648 7.228937,15.643648 0,0 1.549884,-3.096519 1.211543,-5.25489 -0.338339,-2.15837 -8.069233,-16.968329 -9.612028,-17.884303 -1.542795,-0.915975 -7.074151,-3.436983 -7.074151,-3.436983 z"
         id="path161275" />
      <path
         style="fill:#d0e2a9;fill-opacity:1;stroke:none;stroke-width:0.264583px;stroke-linecap:butt;stroke-linejoin:miter;stroke-opacity:1"
         d="M 36.016686,121.63716 C 36.618304,111.81735 33.965798,104.86628 33.83082,103.04354 33.695843,101.2208 32.781327,75.573717 32.621632,74.6532 32.46194,73.73268 29.53793,50.943266 29.919602,49.960513 c 0.381672,-0.982755 2.650542,-4.296055 2.650542,-4.296055 0,0 1.974411,0.680162 1.960002,1.920931 -0.01442,1.240768 -0.09544,22.878756 0.422143,24.806388 0.51758,1.927633 1.154657,26.560785 2.375712,29.361493 1.221057,2.80071 1.24315,19.05569 1.199478,20.12284 -0.04368,1.06715 -2.510793,-0.23895 -2.510793,-0.23895 z"
         id="path174414" />
    </g>
  </g>
</svg>
