<?xml version="1.0" encoding="UTF-8" standalone="no"?>
<!-- Created with Inkscape (http://www.inkscape.org/) -->

<svg
   width="160.74597"
   height="127.99996"
   viewBox="0 0 42.530706 33.866656"
   version="1.1"
   id="svg449"
   xml:space="preserve"
   inkscape:version="1.2.2 (1:1.2.2+202212051552+b0a8486541)"
   sodipodi:docname="gears-solid.svg"
   xmlns:inkscape="http://www.inkscape.org/namespaces/inkscape"
   xmlns:sodipodi="http://sodipodi.sourceforge.net/DTD/sodipodi-0.dtd"
   xmlns="http://www.w3.org/2000/svg"
   xmlns:svg="http://www.w3.org/2000/svg"><sodipodi:namedview
     id="namedview451"
     pagecolor="#505050"
     bordercolor="#eeeeee"
     borderopacity="1"
     inkscape:showpageshadow="0"
     inkscape:pageopacity="0"
     inkscape:pagecheckerboard="0"
     inkscape:deskcolor="#505050"
     inkscape:document-units="mm"
     showgrid="false"
     inkscape:zoom="3.8954759"
     inkscape:cx="119.88266"
     inkscape:cy="51.341609"
     inkscape:window-width="1920"
     inkscape:window-height="939"
     inkscape:window-x="0"
     inkscape:window-y="32"
     inkscape:window-maximized="1"
     inkscape:current-layer="layer1" /><defs
     id="defs446" /><g
     inkscape:label="Layer 1"
     inkscape:groupmode="layer"
     id="layer1"
     transform="translate(-84.110486,-132.14459)"><path
       d="m 104.74413,140.76127 c 0.48058,-0.42643 0.67011,-1.09654 0.41966,-1.69219 -0.15567,-0.35875 -0.3249,-0.71072 -0.51443,-1.04917 l -0.20983,-0.36551 c -0.20307,-0.33844 -0.42643,-0.67011 -0.66334,-0.98825 -0.38582,-0.51443 -1.0627,-0.68365 -1.67189,-0.48058 l -1.90881,0.62949 c -0.724258,-0.59565 -1.556822,-1.083 -2.450304,-1.41468 l -0.412897,-1.96295 c -0.128608,-0.6295 -0.615962,-1.13039 -1.252229,-1.20484 -0.446741,-0.0609 -0.900251,-0.088 -1.36053,-0.088 h -0.04738 c -0.460278,0 -0.913788,0.0271 -1.360529,0.0813 -0.636268,0.0745 -1.123622,0.58212 -1.252229,1.20485 l -0.412897,1.96972 c -0.900251,0.33844 -1.726045,0.81903 -2.450307,1.41468 l -1.915573,-0.62272 c -0.609192,-0.20307 -1.286072,-0.0339 -1.671895,0.48058 -0.236908,0.31813 -0.460278,0.6498 -0.670111,0.98824 L 84.735544,138.02 c -0.189526,0.33844 -0.358746,0.69041 -0.514428,1.05592 -0.250447,0.58889 -0.06092,1.259 0.419665,1.69221 l 1.502676,1.34022 c -0.07446,0.45351 -0.11507,0.92732 -0.11507,1.40791 0,0.48058 0.0406,0.9544 0.11507,1.41469 l -1.502676,1.34021 c -0.480584,0.42644 -0.670112,1.09656 -0.419665,1.69221 0.155682,0.35874 0.324902,0.71072 0.514428,1.05593 l 0.203065,0.35198 c 0.203064,0.34521 0.426434,0.67011 0.670111,0.98824 0.385823,0.51443 1.062703,0.68365 1.671895,0.48059 l 1.908804,-0.6295 c 0.724261,0.59565 1.556825,1.083 2.450307,1.41468 l 0.412897,1.96972 c 0.128608,0.6295 0.615962,1.1304 1.25223,1.20485 0.453509,0.0541 0.913788,0.0812 1.380836,0.0812 0.467047,0 0.927326,-0.027 1.380836,-0.0812 0.636267,-0.0745 1.123621,-0.58212 1.252229,-1.20485 l 0.412897,-1.96972 c 0.900251,-0.33844 1.726045,-0.81903 2.450309,-1.41468 l 1.9088,0.6295 c 0.6092,0.20306 1.28608,0.0339 1.6719,-0.48059 0.23691,-0.31813 0.46028,-0.64303 0.66333,-0.98824 l 0.20983,-0.36551 c 0.18953,-0.33844 0.35876,-0.69042 0.51445,-1.04918 0.25044,-0.58887 0.0609,-1.25899 -0.41968,-1.69219 l -1.50267,-1.34023 c 0.0745,-0.46028 0.11507,-0.93409 0.11507,-1.41468 0,-0.48058 -0.0406,-0.9544 -0.11507,-1.41467 l 1.50267,-1.34023 z m -13.300702,2.75491 a 3.249027,3.249027 0 1 1 6.498054,0 3.249027,3.249027 0 1 1 -6.498054,0 z m 26.581102,21.96477 c 0.42643,0.48059 1.09654,0.67011 1.6922,0.41967 0.35874,-0.15568 0.71072,-0.32491 1.04917,-0.51443 l 0.3655,-0.20984 c 0.33844,-0.20305 0.67012,-0.42642 0.98825,-0.66333 0.51443,-0.38583 0.68366,-1.0627 0.48059,-1.6719 l -0.6295,-1.9088 c 0.59566,-0.72427 1.08301,-1.55682 1.41468,-2.45031 l 1.96972,-0.4129 c 0.6295,-0.12861 1.13039,-0.61596 1.20485,-1.25223 0.0541,-0.4535 0.0812,-0.91378 0.0812,-1.38083 0,-0.46705 -0.027,-0.92733 -0.0812,-1.38084 -0.0745,-0.63627 -0.58211,-1.12362 -1.20485,-1.25222 l -1.96972,-0.41968 c -0.33844,-0.90025 -0.81902,-1.72604 -1.41468,-2.4503 l 0.6295,-1.9088 c 0.20307,-0.60919 0.0339,-1.28608 -0.48059,-1.6719 -0.31813,-0.23691 -0.64981,-0.46027 -0.98825,-0.67012 l -0.35874,-0.20305 c -0.33844,-0.18953 -0.69042,-0.35876 -1.05593,-0.51443 -0.58889,-0.25045 -1.259,-0.0609 -1.6922,0.41966 l -1.34023,1.50268 c -0.46028,-0.0745 -0.93409,-0.11508 -1.41467,-0.11508 -0.48059,0 -0.95441,0.0406 -1.41469,0.11508 l -1.34022,-1.50268 c -0.42644,-0.48058 -1.09655,-0.67011 -1.69221,-0.41966 -0.35874,0.15567 -0.71072,0.3249 -1.05593,0.51443 l -0.35198,0.20305 c -0.3452,0.20307 -0.6701,0.42644 -0.98824,0.67012 -0.51443,0.38582 -0.68365,1.06271 -0.48058,1.6719 l 0.62949,1.9088 c -0.59565,0.72426 -1.083,1.55683 -1.41468,2.4503 l -1.96972,0.40614 c -0.6295,0.1286 -1.13039,0.61595 -1.20485,1.25223 -0.0541,0.4535 -0.0812,0.91378 -0.0812,1.38083 0,0.46705 0.027,0.92733 0.0812,1.38084 0.0745,0.63627 0.58212,1.12362 1.20485,1.25222 l 1.96972,0.4129 c 0.33844,0.90025 0.81903,1.72605 1.41468,2.45031 l -0.62949,1.9088 c -0.20307,0.6092 -0.0339,1.28607 0.48058,1.6719 0.31814,0.23691 0.64304,0.46028 0.98824,0.66335 l 0.36552,0.20983 c 0.33844,0.18952 0.69042,0.35874 1.04917,0.51443 0.58888,0.25044 1.25899,0.0609 1.69219,-0.41967 l 1.34023,-1.50268 c 0.46028,0.0745 0.93409,0.11507 1.41468,0.11507 0.48059,0 0.95441,-0.0406 1.41468,-0.11507 l 1.34023,1.50268 z m -2.7549,-13.3007 a 3.2490266,3.2490266 0 1 1 0,6.49805 3.2490266,3.2490266 0 1 1 0,-6.49805 z"
       id="path602"
       style="stroke-width:0.0676877;fill:#808080"
       inkscape:export-filename="../gears.png"
       inkscape:export-xdpi="48"
       inkscape:export-ydpi="48" /></g></svg>
