<?xml version="1.0" encoding="UTF-8" standalone="no"?>
<svg
   viewBox="0 0 448 512"
   version="1.1"
   id="svg1"
   sodipodi:docname="poo-storm-solid.svg"
   inkscape:export-filename="../mouse_icons/manure_icon.png"
   inkscape:export-xdpi="6"
   inkscape:export-ydpi="6"
   inkscape:version="1.3-dev (1:1.2.0-alpha1+devel+202207092234+3c2958b9eb)"
   xmlns:inkscape="http://www.inkscape.org/namespaces/inkscape"
   xmlns:sodipodi="http://sodipodi.sourceforge.net/DTD/sodipodi-0.dtd"
   xmlns="http://www.w3.org/2000/svg"
   xmlns:svg="http://www.w3.org/2000/svg">
  <defs
     id="defs1" />
  <sodipodi:namedview
     id="namedview1"
     pagecolor="#ffffff"
     bordercolor="#666666"
     borderopacity="1.0"
     inkscape:showpageshadow="2"
     inkscape:pageopacity="0.0"
     inkscape:pagecheckerboard="0"
     inkscape:deskcolor="#d1d1d1"
     showgrid="false"
     inkscape:zoom="0.77050781"
     inkscape:cx="-85.657795"
     inkscape:cy="192.08112"
     inkscape:window-width="1920"
     inkscape:window-height="939"
     inkscape:window-x="0"
     inkscape:window-y="32"
     inkscape:window-maximized="1"
     inkscape:current-layer="svg1" />
  <!--! Font Awesome Pro 6.1.1 by @fontawesome - https://fontawesome.com License - https://fontawesome.com/license (Commercial License) Copyright 2022 Fonticons, Inc. -->
  <path
     d="m 373.3,226.6 c 6.6,-10 10.7,-21.7 10.7,-34.6 0,-35.38 -28.62,-64 -64,-64 h -5.875 C 317.8,118 320,107.3 320,96 320,43 277,0 224,0 218.9,0 213.9,0.75 208.9,1.5 218.3,14.62 224,30.62 224,48 c 0,44.13 -35.9,80 -80,80 h -16 c -35.37,0 -64,28.6 -64,64 0,12.88 4.117,24.58 10.72,34.55 C 31.98,236.3 0,274.3 0,320 c 0,53.02 42.98,96 96,96 h 12.79 c -4.033,-4.414 -7.543,-9.318 -9.711,-15.1 -7.01,-18.64 -1.645,-39.96 13.32,-53.02 l 127.9,-111.9 C 249.1,228.2 260.3,223.1 271.1,224 c 10.19,0 19.95,3.174 28.26,9.203 18.23,13.27 24.76,36.1 15.89,57.71 l -19.33,45.1 h 7.195 c 19.89,0 37.95,12.51 44.92,31.11 C 355.3,384 351,402.8 339.1,416 H 352 c 53.02,0 96,-42.98 96,-96 0,-45.7 -32,-83.7 -74.7,-93.4 z"
     id="path2"
     style="fill:#5b2d07" />
  <path
     d="m 304,368 h -55.7 l 38.45,-89.7 c 2.938,-6.859 0.7187,-14.84 -5.312,-19.23 -6.096,-4.422 -14.35,-4.031 -19.94,0.8906 l -128,111.1 c -5.033,4.391 -6.783,11.44 -4.439,17.67 2.346,6.25 8.314,10.38 14.97,10.38 H 199.7 l -38.45,89.7 c -2.938,6.859 -0.7187,14.84 5.312,19.23 C 169.4,510.1 172.7,512 175.1,512 c 3.781,0 7.531,-1.328 10.53,-3.953 l 128,-111.1 c 5.033,-4.391 6.783,-11.44 4.439,-17.67 C 316.6,372.1 310.7,368 304,368 Z"
     id="path1"
     style="fill:#ffc107" />
</svg>
