<?xml version="1.0" encoding="UTF-8" standalone="no"?>
<svg
   viewBox="0 0 512 512"
   version="1.1"
   id="svg1"
   sodipodi:docname="poop-solid.svg"
   inkscape:version="1.3-dev (1:1.2.0-alpha1+devel+202207301649+dad3c7a8f1)"
   xmlns:inkscape="http://www.inkscape.org/namespaces/inkscape"
   xmlns:sodipodi="http://sodipodi.sourceforge.net/DTD/sodipodi-0.dtd"
   xmlns="http://www.w3.org/2000/svg"
   xmlns:svg="http://www.w3.org/2000/svg">
  <defs
     id="defs1" />
  <sodipodi:namedview
     id="namedview1"
     pagecolor="#ffffff"
     bordercolor="#666666"
     borderopacity="1.0"
     inkscape:showpageshadow="2"
     inkscape:pageopacity="0.0"
     inkscape:pagecheckerboard="0"
     inkscape:deskcolor="#d1d1d1"
     showgrid="false"
     inkscape:zoom="1.0799951"
     inkscape:cx="148.14882"
     inkscape:cy="231.94549"
     inkscape:window-width="1920"
     inkscape:window-height="939"
     inkscape:window-x="0"
     inkscape:window-y="32"
     inkscape:window-maximized="1"
     inkscape:current-layer="svg1" />
  <!--! Font Awesome Pro 6.1.1 by @fontawesome - https://fontawesome.com License - https://fontawesome.com/license (Commercial License) Copyright 2022 Fonticons, Inc. -->
  <path
     d="M512 440.1C512 479.9 479.7 512 439.1 512H71.92C32.17 512 0 479.8 0 440c0-35.88 26.19-65.35 60.56-70.85C43.31 356 32 335.4 32 312C32 272.2 64.25 240 104 240h13.99C104.5 228.2 96 211.2 96 192c0-35.38 28.56-64 63.94-64h16C220.1 128 256 92.12 256 48c0-17.38-5.784-33.35-15.16-46.47C245.8 .7754 250.9 0 256 0c53 0 96 43 96 96c0 11.25-2.288 22-5.913 32h5.879C387.3 128 416 156.6 416 192c0 19.25-8.59 36.25-22.09 48H408C447.8 240 480 272.2 480 312c0 23.38-11.38 44.01-28.63 57.14C485.7 374.6 512 404.3 512 440.1z"
     id="path1"
     style="fill:#5b2d07" />
</svg>
