<?xml version="1.0" encoding="UTF-8" standalone="no"?>
<svg
   viewBox="0 0 640 512"
   version="1.1"
   id="svg1"
   sodipodi:docname="smog-solid.svg"
   xml:space="preserve"
   inkscape:version="1.3-dev (1:1.2.0-alpha1+devel+202207092234+3c2958b9eb)"
   xmlns:inkscape="http://www.inkscape.org/namespaces/inkscape"
   xmlns:sodipodi="http://sodipodi.sourceforge.net/DTD/sodipodi-0.dtd"
   xmlns="http://www.w3.org/2000/svg"
   xmlns:svg="http://www.w3.org/2000/svg"><defs
     id="defs1" /><sodipodi:namedview
     id="namedview1"
     pagecolor="#ffffff"
     bordercolor="#666666"
     borderopacity="1.0"
     inkscape:showpageshadow="2"
     inkscape:pageopacity="0.0"
     inkscape:pagecheckerboard="0"
     inkscape:deskcolor="#d1d1d1"
     showgrid="false"
     inkscape:zoom="0.77050781"
     inkscape:cx="180.40051"
     inkscape:cy="88.253485"
     inkscape:window-width="1920"
     inkscape:window-height="939"
     inkscape:window-x="0"
     inkscape:window-y="32"
     inkscape:window-maximized="1"
     inkscape:current-layer="svg1" /><!--! Font Awesome Pro 6.1.1 by @fontawesome - https://fontawesome.com License - https://fontawesome.com/license (Commercial License) Copyright 2022 Fonticons, Inc. --><path
     id="path1"
     d="M 93.197266 9.4023438 C 38.786885 29.969155 0 82.408172 0 144 C 0 223.49992 64.500079 288 144 288 L 528 288 C 589.89994 288 640 237.89994 640 176 C 640 128.23863 610.10164 87.611504 568.04688 71.494141 C 537.11887 170.63526 444.51006 243.04297 336 243.04297 C 205.57681 243.04297 98.196837 138.63954 93.197266 9.4023438 z "
     style="fill:#1f1f1f;fill-opacity:1" /><path
     d="M 527.99997,-0.9 C 527.99997,105.9 441.89997,192 336,192 230.1,192 144,105.87 144,0 c 0,-58.67 27.82,-106.8 54.57,-134.1 14.97,-16.6 41.43,-6.1 41.43,15.6 V -33 c 0,35.17 27.97,64.5 63.16,64.94 C 338.9,32.5 368,3.6 368,-32 c 0,-88 -175.1,-96.12 -52.15,-277.2 13.5,-19.72 44.15,-10.77 44.15,13.03 C 359.1,-193 527.99997,-170.3 527.99997,-0.9 Z"
     id="path1-8"
     style="fill:#d56a11" /><path
     id="path10"
     style="fill:#ffc107"
     sodipodi:type="inkscape:offset"
     inkscape:radius="-54.062263"
     inkscape:original="M 335.75195 -320.01953 C 328.38672 -319.95918 320.91211 -316.59422 315.84961 -309.19922 C 192.89961 -128.11922 368 -120 368 -32 C 368 3.6 338.90016 32.499453 303.16016 31.939453 C 267.97016 31.499453 240 2.17 240 -33 L 240 -118.5 C 240 -140.2 213.54031 -150.69961 198.57031 -134.09961 C 171.82031 -106.79961 144 -58.67 144 0 C 144 105.87 230.1 192 336 192 C 441.89997 192 528 105.89961 528 -0.90039062 C 528 -170.30039 359.1 -192.99992 360 -296.16992 C 360 -311.04492 348.02734 -320.12012 335.75195 -320.01953 z "
     d="m 305.93945,-296.64062 c 0.001,-0.0679 -0.0173,2.47316 0.0352,0.75585 7.7e-4,-0.25612 -0.0374,-0.49928 -0.0352,-0.75585 z m 23.23243,79.54882 c -1.95059,6.92932 -2.87174,12.63738 -3.00782,16.9336 -0.41918,13.2347 2.48528,18.90642 11.94336,30.78125 9.45808,11.87483 26.24745,25.9789 44.48242,46.06445 18.23498,20.08555 39.47266,51.383857 39.47266,91.3125 0,65.037135 -54.37915,118.975621 -119.67969,117.992188 C 257.98166,85.398131 219.78353,59.708934 200.11719,23.080078 211.01856,88.504242 267.30469,137.9375 336,137.9375 c 76.59696,0 137.9375,-61.093836 137.9375,-138.83789062 0,-66.73243538 -27.96055,-95.94723638 -67.38281,-133.15429938 -19.71113,-18.60353 -42.26118,-37.16493 -62.59961,-62.13281 -5.16808,-6.34444 -10.17697,-13.34472 -14.7832,-20.9043 z" /></svg>
