<?xml version="1.0" encoding="UTF-8" standalone="no"?>
<svg
   viewBox="0 0 640 512"
   version="1.1"
   id="svg1"
   sodipodi:docname="town_ash.svg"
   xml:space="preserve"
   inkscape:version="1.3-dev (1:1.2.0-alpha1+devel+202207092234+3c2958b9eb)"
   xmlns:inkscape="http://www.inkscape.org/namespaces/inkscape"
   xmlns:sodipodi="http://sodipodi.sourceforge.net/DTD/sodipodi-0.dtd"
   xmlns="http://www.w3.org/2000/svg"
   xmlns:svg="http://www.w3.org/2000/svg"><defs
     id="defs1" /><sodipodi:namedview
     id="namedview1"
     pagecolor="#ffffff"
     bordercolor="#666666"
     borderopacity="1.0"
     inkscape:showpageshadow="2"
     inkscape:pageopacity="0.0"
     inkscape:pagecheckerboard="0"
     inkscape:deskcolor="#d1d1d1"
     showgrid="true"
     inkscape:zoom="4.3586504"
     inkscape:cx="-1006.2748"
     inkscape:cy="-313.39976"
     inkscape:window-width="1920"
     inkscape:window-height="939"
     inkscape:window-x="0"
     inkscape:window-y="32"
     inkscape:window-maximized="1"
     inkscape:current-layer="svg1"><inkscape:grid
       type="xygrid"
       id="grid12" /></sodipodi:namedview><path
     id="path11"
     style="fill:#060606;fill-opacity:1"
     d="M 549.32031 115.37891 C 527.01248 156.31161 493.28389 190.11039 452.60938 212.64844 C 453.3395 212.24384 454.10055 211.89036 454.82617 211.47852 C 454.88846 211.49411 454.94752 211.51751 455.00977 211.5332 C 494.66892 188.99483 527.51149 155.62016 549.4082 115.44922 C 549.37829 115.42659 549.35024 115.40151 549.32031 115.37891 z M 141.07812 144.42969 C 141.07248 144.43718 141.06815 144.44563 141.0625 144.45312 C 148.55756 154.52666 156.78996 164.01712 165.71484 172.81836 C 165.7356 172.80278 165.75463 172.7851 165.77539 172.76953 C 166.1956 173.18366 166.64128 173.57131 167.06445 173.98242 C 157.6501 164.83513 148.92922 154.97658 141.07812 144.42969 z M 640 150.91406 C 639.04483 150.91406 638.10822 150.97813 637.16016 151.00391 C 638.99597 159.04118 640 167.39845 640 176 C 640 235.63285 593.46554 284.17627 534.71484 287.66211 C 537.80783 297.90563 539.56055 308.73476 539.56055 320 C 539.56055 339.97557 534.28248 358.68333 525.13477 374.91406 L 640 374.91406 C 701.89982 374.91406 752 324.81388 752 262.91406 C 752 201.01424 701.86982 150.91406 640 150.91406 z M 171.58398 178.23242 C 173.21744 179.74143 174.86699 181.23067 176.54102 182.69531 C 174.86746 181.23106 173.21695 179.74107 171.58398 178.23242 z M 181.22656 186.70703 C 182.9898 188.17351 184.78745 189.59635 186.5918 191.01367 C 184.78764 189.59664 182.98958 188.17325 181.22656 186.70703 z M 191.30859 194.67969 C 193.41632 196.25408 195.57535 197.76047 197.73438 199.26758 C 195.57528 197.76073 193.41636 196.25386 191.30859 194.67969 z M 203.51367 203.20898 C 206.3242 205.05389 209.1581 206.86364 212.04688 208.59375 C 209.15819 206.86423 206.32408 205.05333 203.51367 203.20898 z M 216.80859 211.31055 C 218.9665 212.53795 221.12835 213.75735 223.32617 214.91992 C 221.12848 213.75785 218.96637 212.53745 216.80859 211.31055 z M 228.48047 217.54492 C 230.6829 218.64367 232.90147 219.71106 235.14062 220.74414 C 232.90128 219.71145 230.68308 218.64329 228.48047 217.54492 z M 240.26758 223.05078 C 242.69532 224.10315 245.15188 225.09596 247.61914 226.07031 C 245.15226 225.09662 242.69495 224.10246 240.26758 223.05078 z M 252.33594 227.92188 C 255.77886 229.19845 259.26246 230.38573 262.77539 231.50781 C 259.26233 230.38633 255.77901 229.19781 252.33594 227.92188 z M 264.67188 232.14844 C 268.79137 233.42646 272.96589 234.57301 277.17383 235.63281 C 272.96556 234.57358 268.79174 233.42583 264.67188 232.14844 z M 281.52734 236.63672 C 284.42626 237.3097 287.33484 237.95046 290.27148 238.51758 C 287.33547 237.95093 284.42568 237.30914 281.52734 236.63672 z M 295.16992 239.39258 C 298.01504 239.88104 300.8749 240.31769 303.75195 240.70508 C 300.87505 240.31796 298.01493 239.8807 295.16992 239.39258 z M 308.69141 241.33398 C 311.7562 241.68215 314.84223 241.95021 317.93945 242.18164 C 314.84283 241.9504 311.75566 241.68184 308.69141 241.33398 z " /><path
     id="path1-1"
     style="fill:#171717;fill-opacity:1"
     d="M 0.16992188 150.68945 C -58.133639 169.11118 -100.43945 223.62432 -100.43945 288 C -100.43945 367.49984 -35.939295 432 43.560547 432 L 427.56055 432 C 489.46041 432 539.56055 381.89988 539.56055 320 C 539.56055 308.73475 537.80783 297.90563 534.71484 287.66211 C 532.48135 287.79463 530.26703 288 528 288 L 144 288 C 66.743498 288 3.6690447 227.085 0.16992188 150.68945 z M 165.77539 172.76953 C 165.75463 172.7851 165.7356 172.80278 165.71484 172.81836 C 209.65793 216.15267 269.84898 243.04297 336 243.04297 C 379.15054 243.04297 419.76723 231.5616 455.00977 211.5332 C 454.94752 211.51751 454.88846 211.49411 454.82617 211.47852 C 419.62639 231.45721 379.08375 242.92969 336 242.92969 C 269.8888 242.92969 209.71107 216.06944 165.77539 172.76953 z " /><!--! Font Awesome Pro 6.1.1 by @fontawesome - https://fontawesome.com License - https://fontawesome.com/license (Commercial License) Copyright 2022 Fonticons, Inc. --><path
     id="path1"
     d="M 93.197266 9.4023438 C 38.786885 29.969155 0 82.408172 0 144 C 0 223.49992 64.500079 288 144 288 L 528 288 C 589.89994 288 640 237.89994 640 176 C 640 128.23863 610.10164 87.611504 568.04688 71.494141 C 537.11887 170.63526 444.51006 243.04297 336 243.04297 C 205.57681 243.04297 98.196837 138.63954 93.197266 9.4023438 z "
     style="fill:#1f1f1f;fill-opacity:1" /><path
     d="M 527.99997,-0.9 C 527.99997,105.9 441.89997,192 336,192 230.1,192 144,105.87 144,0 c 0,-58.67 27.82,-106.8 54.57,-134.1 14.97,-16.6 41.43,-6.1 41.43,15.6 V -33 c 0,35.17 27.97,64.5 63.16,64.94 C 338.9,32.5 368,3.6 368,-32 c 0,-88 -175.1,-96.12 -52.15,-277.2 13.5,-19.72 44.15,-10.77 44.15,13.03 C 359.1,-193 527.99997,-170.3 527.99997,-0.9 Z"
     id="path1-8"
     style="fill:#d56a11" /><path
     id="path10"
     style="fill:#ffc107"
     sodipodi:type="inkscape:offset"
     inkscape:radius="-54.062263"
     inkscape:original="M 335.75195 -320.01953 C 328.38672 -319.95918 320.91211 -316.59422 315.84961 -309.19922 C 192.89961 -128.11922 368 -120 368 -32 C 368 3.6 338.90016 32.499453 303.16016 31.939453 C 267.97016 31.499453 240 2.17 240 -33 L 240 -118.5 C 240 -140.2 213.54031 -150.69961 198.57031 -134.09961 C 171.82031 -106.79961 144 -58.67 144 0 C 144 105.87 230.1 192 336 192 C 441.89997 192 528 105.89961 528 -0.90039062 C 528 -170.30039 359.1 -192.99992 360 -296.16992 C 360 -311.04492 348.02734 -320.12012 335.75195 -320.01953 z "
     d="m 305.93945,-296.64062 c 0.001,-0.0679 -0.0173,2.47316 0.0352,0.75585 7.7e-4,-0.25612 -0.0374,-0.49928 -0.0352,-0.75585 z m 23.23243,79.54882 c -1.95059,6.92932 -2.87174,12.63738 -3.00782,16.9336 -0.41918,13.2347 2.48528,18.90642 11.94336,30.78125 9.45808,11.87483 26.24745,25.9789 44.48242,46.06445 18.23498,20.08555 39.47266,51.383857 39.47266,91.3125 0,65.037135 -54.37915,118.975621 -119.67969,117.992188 C 257.98166,85.398131 219.78353,59.708934 200.11719,23.080078 211.01856,88.504242 267.30469,137.9375 336,137.9375 c 76.59696,0 137.9375,-61.093836 137.9375,-138.83789062 0,-66.73243538 -27.96055,-95.94723638 -67.38281,-133.15429938 -19.71113,-18.60353 -42.26118,-37.16493 -62.59961,-62.13281 -5.16808,-6.34444 -10.17697,-13.34472 -14.7832,-20.9043 z"
     inkscape:export-filename="../mouse_icons/town_ash.png"
     inkscape:export-xdpi="100"
     inkscape:export-ydpi="100" /><circle
     style="fill:#ffffff;fill-opacity:1;stroke:none;stroke-width:50;stroke-linecap:round;stroke-linejoin:round;stroke-dasharray:none;stroke-opacity:1;stop-color:#000000"
     id="path12"
     cx="-1030"
     cy="-310"
     r="10"
     inkscape:export-filename="../mouse_icons/particle.png"
     inkscape:export-xdpi="38.400002"
     inkscape:export-ydpi="38.400002" /></svg>
