<?xml version="1.0" encoding="UTF-8" standalone="no"?>
<svg
   viewBox="0 0 512 451"
   version="1.1"
   id="svg1"
   sodipodi:docname="town_ash.svg"
   xml:space="preserve"
   inkscape:version="1.3-dev (1:1.2.0-alpha1+devel+202207301649+dad3c7a8f1)"
   width="512"
   height="451"
   xmlns:inkscape="http://www.inkscape.org/namespaces/inkscape"
   xmlns:sodipodi="http://sodipodi.sourceforge.net/DTD/sodipodi-0.dtd"
   xmlns="http://www.w3.org/2000/svg"
   xmlns:svg="http://www.w3.org/2000/svg"><defs
     id="defs1" /><sodipodi:namedview
     id="namedview1"
     pagecolor="#ffffff"
     bordercolor="#666666"
     borderopacity="1.0"
     inkscape:showpageshadow="2"
     inkscape:pageopacity="0.0"
     inkscape:pagecheckerboard="0"
     inkscape:deskcolor="#d1d1d1"
     showgrid="false"
     inkscape:zoom="1.0896626"
     inkscape:cx="482.71823"
     inkscape:cy="177.5779"
     inkscape:window-width="1920"
     inkscape:window-height="939"
     inkscape:window-x="0"
     inkscape:window-y="32"
     inkscape:window-maximized="1"
     inkscape:current-layer="svg1"><inkscape:grid
       type="xygrid"
       id="grid12"
       originx="-5.112435e-07"
       originy="-60.315177" /></sodipodi:namedview><!--! Font Awesome Pro 6.1.1 by @fontawesome - https://fontawesome.com License - https://fontawesome.com/license (Commercial License) Copyright 2022 Fonticons, Inc. --><g
     id="g1"
     transform="matrix(0.60062917,0,0,0.60062917,60.326863,192.21302)"
     style="stroke-width:1.66492"><path
       id="path11"
       style="fill:#060606;fill-opacity:1;stroke-width:1.66492"
       d="m 549.32031,115.37891 c -22.30783,40.9327 -56.03642,74.73148 -96.71093,97.26953 0.73012,-0.4046 1.49117,-0.75808 2.21679,-1.16992 0.0623,0.0156 0.12135,0.039 0.1836,0.0547 39.65915,-22.53837 72.50172,-55.91304 94.39843,-96.08398 -0.0299,-0.0226 -0.058,-0.0477 -0.0879,-0.0703 z m -408.24219,29.05078 c -0.006,0.007 -0.01,0.0159 -0.0156,0.0234 7.49506,10.07354 15.72746,19.564 24.65234,28.36524 0.0208,-0.0156 0.0398,-0.0333 0.0605,-0.0488 0.42021,0.41413 0.86589,0.80178 1.28906,1.21289 -9.41435,-9.14729 -18.13523,-19.00584 -25.98633,-29.55273 z M 640,150.91406 c -0.95517,0 -1.89178,0.0641 -2.83984,0.0898 C 638.99597,159.04118 640,167.39845 640,176 c 0,59.63285 -46.53446,108.17627 -105.28516,111.66211 3.09299,10.24352 4.84571,21.07265 4.84571,32.33789 0,19.97557 -5.27807,38.68333 -14.42578,54.91406 H 640 c 61.89982,0 112,-50.10018 112,-112 0,-61.89982 -50.13018,-112 -112,-112 z m -468.41602,27.31836 c 1.63346,1.50901 3.28301,2.99825 4.95704,4.46289 -1.67356,-1.46425 -3.32407,-2.95424 -4.95704,-4.46289 z m 9.64258,8.47461 c 1.76324,1.46648 3.56089,2.88932 5.36524,4.30664 -1.80416,-1.41703 -3.60222,-2.84042 -5.36524,-4.30664 z m 10.08203,7.97266 c 2.10773,1.57439 4.26676,3.08078 6.42579,4.58789 -2.1591,-1.50685 -4.31802,-3.01372 -6.42579,-4.58789 z m 12.20508,8.52929 c 2.81053,1.84491 5.64443,3.65466 8.53321,5.38477 -2.88869,-1.72952 -5.7228,-3.54042 -8.53321,-5.38477 z m 13.29492,8.10157 c 2.15791,1.2274 4.31976,2.4468 6.51758,3.60937 -2.19769,-1.16207 -4.3598,-2.38247 -6.51758,-3.60937 z m 11.67188,6.23437 c 2.20243,1.09875 4.421,2.16614 6.66015,3.19922 -2.23934,-1.03269 -4.45754,-2.10085 -6.66015,-3.19922 z m 11.78711,5.50586 c 2.42774,1.05237 4.8843,2.04518 7.35156,3.01953 -2.46688,-0.97369 -4.92419,-1.96785 -7.35156,-3.01953 z m 12.06836,4.8711 c 3.44292,1.27657 6.92652,2.46385 10.43945,3.58593 -3.51306,-1.12148 -6.99638,-2.31 -10.43945,-3.58593 z m 12.33594,4.22656 c 4.11949,1.27802 8.29401,2.42457 12.50195,3.48437 -4.20827,-1.05923 -8.38209,-2.20698 -12.50195,-3.48437 z m 16.85546,4.48828 c 2.89892,0.67298 5.8075,1.31374 8.74414,1.88086 -2.93601,-0.56665 -5.8458,-1.20844 -8.74414,-1.88086 z m 13.64258,2.75586 c 2.84512,0.48846 5.70498,0.92511 8.58203,1.3125 -2.8769,-0.38712 -5.73702,-0.82438 -8.58203,-1.3125 z m 13.52149,1.9414 c 3.06479,0.34817 6.15082,0.61623 9.24804,0.84766 -3.09662,-0.23124 -6.18379,-0.4998 -9.24804,-0.84766 z" /><path
       id="path1-1"
       style="fill:#171717;fill-opacity:1;stroke-width:1.66492"
       d="M 0.16992188,150.68945 C -58.133639,169.11118 -100.43945,223.62432 -100.43945,288 c 0,79.49984 64.500155,144 143.999997,144 H 427.56055 c 61.89986,0 112,-50.10012 112,-112 0,-11.26525 -1.75272,-22.09437 -4.84571,-32.33789 C 532.48135,287.79463 530.26703,288 528,288 H 144 C 66.743498,288 3.6690447,227.085 0.16992188,150.68945 Z M 165.77539,172.76953 c -0.0208,0.0156 -0.0398,0.0333 -0.0605,0.0488 43.94309,43.33431 104.13414,70.22461 170.28516,70.22461 43.15054,0 83.76723,-11.48137 119.00977,-31.50977 -0.0623,-0.0157 -0.12131,-0.0391 -0.1836,-0.0547 -35.19978,19.97869 -75.74242,31.45117 -118.82617,31.45117 -66.1112,0 -126.28893,-26.86025 -170.22461,-70.16016 z" /><path
       id="path1"
       d="M 93.197266,9.4023438 C 38.786885,29.969155 0,82.408172 0,144 0,223.49992 64.500079,288 144,288 H 528 C 589.89994,288 640,237.89994 640,176 640,128.23863 610.10164,87.611504 568.04688,71.494141 537.11887,170.63526 444.51006,243.04297 336,243.04297 205.57681,243.04297 98.196837,138.63954 93.197266,9.4023438 Z"
       style="fill:#1f1f1f;fill-opacity:1;stroke-width:1.66492" /><path
       d="M 527.99997,-0.9 C 527.99997,105.9 441.89997,192 336,192 230.1,192 144,105.87 144,0 c 0,-58.67 27.82,-106.8 54.57,-134.1 14.97,-16.6 41.43,-6.1 41.43,15.6 V -33 c 0,35.17 27.97,64.5 63.16,64.94 C 338.9,32.5 368,3.6 368,-32 c 0,-88 -175.1,-96.12 -52.15,-277.2 13.5,-19.72 44.15,-10.77 44.15,13.03 C 359.1,-193 527.99997,-170.3 527.99997,-0.9 Z"
       id="path1-8"
       style="fill:#d56a11;stroke-width:1.66492" /><path
       id="path10"
       style="fill:#ffc107;stroke-width:2.21758"
       sodipodi:type="inkscape:offset"
       inkscape:radius="-54.062263"
       inkscape:original="M 335.75195 -320.01953 C 328.38672 -319.95918 320.91211 -316.59422 315.84961 -309.19922 C 192.89961 -128.11922 368 -120 368 -32 C 368 3.6 338.90016 32.499453 303.16016 31.939453 C 267.97016 31.499453 240 2.17 240 -33 L 240 -118.5 C 240 -140.2 213.54031 -150.69961 198.57031 -134.09961 C 171.82031 -106.79961 144 -58.67 144 0 C 144 105.87 230.1 192 336 192 C 441.89997 192 528 105.89961 528 -0.90039062 C 528 -170.30039 359.1 -192.99992 360 -296.16992 C 360 -311.04492 348.02734 -320.12012 335.75195 -320.01953 z "
       d="m 305.93945,-296.64062 -0.002,0.4707 c 0,0.094 0.0357,0.19101 0.0371,0.28515 7.7e-4,-0.25612 -0.0374,-0.49928 -0.0352,-0.75585 z m 23.23243,79.54882 c -1.95059,6.92932 -2.87174,12.63738 -3.00782,16.9336 -0.41918,13.2347 2.48528,18.90642 11.94336,30.78125 9.45808,11.87483 26.24745,25.9789 44.48242,46.06445 18.23498,20.08555 39.47266,51.383857 39.47266,91.3125 0,65.037135 -54.37915,118.975621 -119.67969,117.992188 C 257.98166,85.398131 219.78353,59.708934 200.11719,23.080078 211.01856,88.504242 267.30469,137.9375 336,137.9375 c 76.59696,0 137.9375,-61.093836 137.9375,-138.83789062 0,-66.73243538 -27.96055,-95.94723638 -67.38281,-133.15429938 -19.71113,-18.60353 -42.26118,-37.16493 -62.59961,-62.13281 -5.16808,-6.34444 -10.17697,-13.34472 -14.7832,-20.9043 z"
       inkscape:export-filename="../mouse_icons/town_ash.png"
       inkscape:export-xdpi="100"
       inkscape:export-ydpi="100" /></g></svg>
