<?xml version="1.0" encoding="UTF-8" standalone="no"?>
<!-- Created with Inkscape (http://www.inkscape.org/) -->

<svg
   width="210mm"
   height="297mm"
   viewBox="0 0 210 297"
   version="1.1"
   id="svg5"
   inkscape:version="1.2.2 (1:1.2.2+202212051552+b0a8486541)"
   sodipodi:docname="language_flags.svg"
   xml:space="preserve"
   xmlns:inkscape="http://www.inkscape.org/namespaces/inkscape"
   xmlns:sodipodi="http://sodipodi.sourceforge.net/DTD/sodipodi-0.dtd"
   xmlns="http://www.w3.org/2000/svg"
   xmlns:svg="http://www.w3.org/2000/svg"><sodipodi:namedview
     id="namedview7"
     pagecolor="#505050"
     bordercolor="#eeeeee"
     borderopacity="1"
     inkscape:showpageshadow="0"
     inkscape:pageopacity="0"
     inkscape:pagecheckerboard="0"
     inkscape:deskcolor="#505050"
     inkscape:document-units="mm"
     showgrid="true"
     showguides="false"
     inkscape:zoom="45.254834"
     inkscape:cx="35.664698"
     inkscape:cy="1108.9644"
     inkscape:window-width="1920"
     inkscape:window-height="939"
     inkscape:window-x="0"
     inkscape:window-y="32"
     inkscape:window-maximized="1"
     inkscape:current-layer="layer1"><inkscape:grid
       type="xygrid"
       id="grid182"
       empspacing="6" /><sodipodi:guide
       position="7.9374999,1.725"
       orientation="-4.0000252,6"
       id="guide24070"
       inkscape:locked="false" /><sodipodi:guide
       position="9.525,1.725"
       orientation="-3.9999874,-6"
       id="guide24072"
       inkscape:locked="false" /><sodipodi:guide
       position="9.4980497,2.82525"
       orientation="1.7495055,-2.620571"
       id="guide24090"
       inkscape:locked="false" /><sodipodi:guide
       position="8.8046903,2.36236"
       orientation="0.15496063,0.1033474"
       id="guide24092"
       inkscape:locked="false" /><sodipodi:guide
       position="8.8320343,2.32136"
       orientation="-1.7421354,2.620571"
       id="guide24094"
       inkscape:locked="false" /><sodipodi:guide
       position="9.5253937,2.7823"
       orientation="-0.16233071,-0.1033474"
       id="guide24096"
       inkscape:locked="false" /></sodipodi:namedview><defs
     id="defs2"><clipPath
       clipPathUnits="userSpaceOnUse"
       id="clipPath517"><circle
         style="fill:#000080;stroke-width:0.7;stroke-linecap:round"
         id="circle519"
         cx="4.3656249"
         cy="295.1427"
         r="0.39687499" /></clipPath><clipPath
       clipPathUnits="userSpaceOnUse"
       id="clipPath26644"><circle
         style="fill:#000080;stroke:none;stroke-width:0.15;stroke-linecap:butt;stroke-dasharray:none"
         id="circle26646"
         cx="8.7312498"
         cy="294.74582"
         r="0.52916664" /></clipPath></defs><g
     inkscape:label="Layer 1"
     inkscape:groupmode="layer"
     id="layer1"><g
       id="g515"
       transform="matrix(3.3333339,0,0,3.3333339,-9.7895855,-689.85709)"
       clip-path="url(#clipPath517)"
       inkscape:export-filename="language_symbols/dutch.png"
       inkscape:export-xdpi="614.40002"
       inkscape:export-ydpi="614.40002"><rect
         style="fill:#db0000;stroke-width:0.7;stroke-linecap:round"
         id="rect238"
         width="0.79374987"
         height="0.23813677"
         x="3.96875"
         y="294.74582" /><rect
         style="fill:#ffffff;stroke-width:0.7;stroke-linecap:round"
         id="rect242"
         width="0.79374987"
         height="0.31750804"
         x="3.96875"
         y="294.98395" /><rect
         style="fill:#000080;stroke-width:0.7;stroke-linecap:round"
         id="rect296"
         width="0.79374981"
         height="0.2381255"
         x="3.96875"
         y="295.30145" /></g><g
       id="g26642"
       clip-path="url(#clipPath26644)"
       transform="matrix(2.4978491,0,0,2.4978491,-13.872983,-442.2785)"
       style="stroke-width:0.978142"
       inkscape:export-filename="language_symbols/english.png"
       inkscape:export-xdpi="614.40002"
       inkscape:export-ydpi="614.40002"><rect
         style="fill:#000080;stroke:none;stroke-width:0.146721;stroke-linecap:butt;stroke-dasharray:none"
         id="rect26342"
         width="1.587505"
         height="1.0583333"
         x="7.9374948"
         y="294.21667" /><g
         id="g26475"
         style="stroke-width:0.978142"><path
           style="color:#000000;fill:#ffffff;stroke-width:0.978142;-inkscape-stroke:none"
           d="m 8.6308594,294.2168 v 0.46211 H 7.9375 v 0.13385 h 0.6933594 v 0.46263 h 0.2011719 v -0.46237 h 0.6933593 v -0.13438 H 8.8320313 v -0.46184 z"
           id="path9498"
           sodipodi:nodetypes="ccccccccccccc" /><path
           style="fill:none;stroke:#ffffff;stroke-width:0.146721;stroke-linecap:butt;stroke-dasharray:none"
           d="m 7.9374999,295.275 1.5875,-1.05834 m -1.5874999,1e-5 1.5875,1.05833"
           id="path24078" /><path
           style="color:#000000;fill:#ff0000;stroke-width:0.652175;-inkscape-stroke:none"
           d="m 8.6643798,294.21671 v 0.48459 H 7.9375 v 0.0892 h 0.7268798 v 0.48489 h 0.1341311 v -0.48471 H 9.525 v -0.0896 H 8.7985109 v -0.48441 z"
           id="path24080"
           sodipodi:nodetypes="ccccccccccccc" /><path
           style="color:#000000;fill:#ff0000;stroke-width:0.978142;-inkscape-stroke:none"
           d="m 9.4980497,294.17475 -0.6660184,0.44464 3e-6,0.0592 0.6933594,-0.46094 z"
           id="path24082"
           sodipodi:nodetypes="ccccc" /><path
           style="color:#000000;fill:#ff0000;stroke-width:0.978142;-inkscape-stroke:none"
           d="m 7.9648402,295.3166 0.6660184,-0.44464 -3e-6,-0.0592 -0.6933594,0.46094 z"
           id="path24098"
           sodipodi:nodetypes="ccccc" /><path
           style="color:#000000;fill:#ff0000;stroke-width:0.978142;-inkscape-stroke:none"
           d="m 9.525,295.275 -0.6929687,-0.46198 h 0.089625 l 0.6306881,0.41908 z"
           id="path24826"
           sodipodi:nodetypes="ccccc" /><path
           style="color:#000000;fill:#ff0000;stroke-width:0.978142;-inkscape-stroke:none"
           d="m 7.9375,294.21667 0.6929687,0.46198 h -0.089625 l -0.6306881,-0.41908 z"
           id="path24836"
           sodipodi:nodetypes="ccccc" /></g></g><g
       id="g39570"
       transform="matrix(0.83333334,0,0,0.83333334,-5.4239585,49.212498)"
       inkscape:export-filename="language_symbols/hausa.png"
       inkscape:export-xdpi="614.40002"
       inkscape:export-ydpi="614.40002"><circle
         style="fill:#ffffff;stroke:none;stroke-width:0.1;stroke-linecap:round;stroke-dasharray:none;stroke-opacity:1"
         id="path39550"
         cx="19.84375"
         cy="293.6875"
         r="1.5875" /><path
         fill="#008c00"
         d="m 18.425583,293.68036 c 0.287575,0 0.554919,-0.0862 0.77798,-0.23386 l 0.241036,0.24103 -0.241036,0.24104 c -0.223061,-0.14772 -0.490405,-0.23386 -0.77798,-0.23386 m 1.410934,1.41094 c 0,-0.28758 -0.08615,-0.55492 -0.233856,-0.77798 l 0.241035,-0.24104 0.241035,0.24104 c -0.147717,0.22306 -0.233856,0.4904 -0.233856,0.77798 m 1.41111,-1.41094 c -0.287575,0 -0.554919,0.0862 -0.77798,0.23386 l -0.241035,-0.24104 0.241035,-0.24103 c 0.223061,0.14772 0.490405,0.23386 0.77798,0.23386 m -1.411022,-1.41102 c 0,0.28758 0.08615,0.55492 0.233856,0.77798 l -0.241035,0.24104 -0.241035,-0.24104 c 0.147717,-0.22306 0.233856,-0.4904 0.233856,-0.77798"
         id="path39465"
         style="stroke-width:0.00881944" /><path
         fill="#008c00"
         fill-rule="evenodd"
         d="m 19.843763,293.28839 0.399123,0.39912 -0.399123,0.39912 -0.399122,-0.39912 z"
         id="path39467"
         style="stroke-width:0.00881944" /><rect
         width="2.6811116"
         height="0.52211118"
         x="220.35953"
         y="193.37572"
         fill="none"
         stroke="#000000"
         stroke-width="0.0846667"
         ry="0.26105559"
         transform="rotate(45)"
         id="rect39469" /><rect
         width="2.6811116"
         height="0.52211118"
         x="192.29622"
         y="-221.96115"
         fill="none"
         stroke="#000000"
         stroke-width="0.0846667"
         ry="0.26105559"
         transform="rotate(135)"
         id="rect39471" /><path
         fill="none"
         stroke="#000000"
         stroke-width="0.0846667"
         d="m 19.849986,295.1057 a 1.4111143,1.4111059 0 0 1 1.411219,-1.41111"
         id="path39473" /><path
         fill="none"
         stroke="#000000"
         stroke-width="0.0846667"
         d="M 21.261203,293.68042 A 1.4111143,1.4111059 0 0 1 19.849984,292.2693"
         id="path39475" /><path
         fill="none"
         stroke="#000000"
         stroke-width="0.0846667"
         d="m 18.4248,293.69459 a 1.4111143,1.4111059 0 0 1 1.411115,1.41111"
         id="path39477" /><path
         fill="none"
         stroke="#000000"
         stroke-width="0.0846667"
         d="M 19.836019,292.2693 A 1.4111143,1.4111059 0 0 1 18.4248,293.68042"
         id="path39479" /></g></g></svg>
