<svg xmlns="http://www.w3.org/2000/svg">
<defs>
<font
       id="African"
       horiz-adv-x="512"><font-face
         font-family="African"
         font-weight="400"
         font-stretch="normal"
         units-per-em="1024"
         panose-1="0 0 0 0 0 0 0 0 0 0"
         ascent="819"
         descent="-205"
         x-height="780"
         cap-height="780"
         bbox="-24.5131 -106 1034 799"
         underline-thickness="51.2"
         underline-position="-107.52"
         unicode-range="U+0020-F002"
         id="font-face1" /><missing-glyph
         id="missing-glyph1"

<glyph
         glyph-name="space"
         unicode=" "
         horiz-adv-x="624"
         id="glyph1" /><glyph
         glyph-name="exclam"
         unicode=" "
         horiz-adv-x="624"
         id="glyph2" /><glyph
         glyph-name="exclam"
         unicode=" "
         horiz-adv-x="624"
         id="glyph3" /><glyph
         glyph-name="quotedbl"
         unicode="!"
         horiz-adv-x="346"
         d="M252 219l-8 -10q3 -8 7 -17l8 -18q2 -4 4 -7.5t4 -7.5q12 -27 23.5 -54t10.5 -59q0 -8 -1 -17.5t-3 -18.5q-24 -6 -46 -15t-44 -21q-1 0 -1.5 -0.5l-0.5 -0.5l-50 -22l-52 -18l-76 202q25 18 55.5 32.5t61.5 28.5q1 1 2.5 1.5t3.5 1.5q16 7 32.5 14t31.5 14l38 -8v0z M207 77q0 11 -8.5 15.5t-19.5 4.5h-2h-2q-6 -1 -12 -2.5t-11 -3.5q-1 0 -3 -0.5t-3 -1.5v-8l1 -13l3 -14l5 -8q4 0 10 1l12 2q11 4 20.5 11t9.5 17v0zM287 773q6 -46 7.5 -94t2.5 -97v-40l-1 -41v-20.5v-20.5v-60.5l1 -60.5q-14 -6 -28 -13l-28 -14q-7 -3 -14 -6.5t-14 -6.5 q-20 -10 -41 -18.5t-43 -12.5q-16 57 -28.5 119t-22.5 124q-5 27 -9 54t-9 55q-4 24 -7.5 47t-7.5 47q15 4 30 7.5t30 6.5q45 11 91 22t91 23v0zM161 629l34 -239h25q1 11 1.5 23t0.5 23q0 22 -1.5 43t-3.5 41q-4 32 -9.5 63.5t-11.5 63.5q-1 1 -3 1h-4l-4 -0.5l-4 -0.5 q-7 -2 -13.5 -6.5t-6.5 -9.5v-0.5v-1.5v0z"
         id="glyph4" /><glyph
         glyph-name="numbersign"
         unicode="&quot;"
         horiz-adv-x="405"
         d="M204 718q0 -7 -0.5 -15t-1.5 -15q-2 -39 -7 -77t-23 -68q-34 -20 -70.5 -34.5t-76.5 -16.5q3 25 5.5 53t4.5 58q1 17 1.5 35t0.5 35v23l-1 22q10 3 20 5t19 4q19 3 38.5 4.5t40.5 3.5q10 1 20 1.5t21 1.5l9 -20v0zM112 659v-75q3 2 5.5 4t5.5 5q4 4 8 9l8 10q3 5 4.5 10 t2.5 9v0.5v0.5v0.5v0.5q0 2 -0.5 4.5t-1.5 5.5q-4 6 -11 11t-15 6h-2.5l-3.5 -1v0zM234 722q13 1 27 3.5t28 4.5q19 4 39 7t40 3h6l7 -1q3 0 6 -0.5t6 -0.5q-1 -10 -1.5 -20.5t-0.5 -21.5q-1 -8 -1.5 -16t-0.5 -15q-3 -43 -15.5 -81.5t-52.5 -61.5q-8 -2 -17 -4.5t-17 -4.5 l-8 -2l-7 -2q-15 -4 -30 -7t-29 -3q-5 0 -10 0.5t-10 1.5q26 42 31.5 93t8.5 104v6v5q1 3 1 6.5v6.5v0zM314 665q-17 -1 -21.5 -14.5t-4.5 -28.5v-9v-10v-6v-5l0.5 -0.5q0.5 -0.5 1.5 -0.5h1.5h0.5q3 1 4.5 2.5l3.5 3.5q1 0 1 0.5t1 1.5l0.5 0.5l1.5 1.5q5 10 9 21.5t4 23.5 q0 5 -0.5 9.5t-2.5 9.5v0z"
         id="glyph5" /><glyph
         glyph-name="dollar"
         unicode="#"
         id="glyph6" /><glyph
         glyph-name="percent"
         unicode="$"
         horiz-adv-x="540"
         d="M456.299 790.434q-46.1181 -11.3693 -70.0133 -5.39019q7.80056 -31.6469 -1.51218 -65.9366q-87.5508 13.6141 -118.591 11.5007q-27.8081 -1.89328 -95.3263 -32.8931q-7.95827 54.9037 2.33297 84.6446q-5.90817 -1.06049 -18.3522 -4.04792t-19.7993 -4.35015 q-7.35531 -1.36273 -17.8698 -0.967159t-19.317 4.03775q0.235007 -1.86609 1.49241 -11.6503q1.25741 -9.78419 1.54925 -12.3096q0.291845 -2.52542 1.25223 -11.4305q0.960387 -8.90509 1.06322 -12.3096t0.489549 -11.4305q0.386721 -8.02599 0.0238866 -12.3096 q-0.362834 -4.28364 -0.826425 -11.4305q-0.463591 -7.14688 -1.56873 -12.3096q-1.10514 -5.16274 -2.69569 -11.4305q-1.59055 -6.26777 -3.74544 -12.0898q-33.0465 -19.5986 -42.2825 -30.1819q-12.5511 -11.3606 -20.3377 -22.8814 q-7.78768 -11.5224 -11.5375 -22.2274q-8.57272 -24.4734 -1.97716 -50.0062q4.27711 -16.561 70.5491 -98.2061q9.85664 -100.029 -4.54869 -182.048q-41.0133 3.18008 -79.1895 9.57798q-7.06239 1.44755 -15.0349 2.50156q-7.9478 1.05074 -15.0349 2.50336 q-0.193093 -33.0013 8.33723 -64.8884q8.53076 -31.8887 18.8538 -62.9853q3.37216 -7.6251 6.24686 -14.6116q2.86561 -6.96448 4.83373 -14.3213q3.00939 -8.74671 5.232 -16.4322q2.2203 -7.6771 4.71446 -15.7477q12.5879 -6.45901 56.4502 -9.34498l-1.96705 -78.6774 l73.1954 1.1862l2.08835 75.7262q127.524 0.468784 160.029 11.8107q28.2558 9.85921 57.087 22.0052l-2.57556 -112.286l68.022 1.2007l3.66929 144.949q7.09699 4.64359 12.1885 8.72323q6.68125 5.35349 33.3498 58.0461q26.6686 52.6926 26.6686 59.9629 q0 28.5028 -14.4911 55.0273q-7.71377 14.1192 -51.6993 55.977q3.47509 33.5785 1.60447 83.918t1.99405 58.1963q41.7977 -14.778 75.1705 -35.2638l22.9961 4.71462l-15.1805 199.355q-1.25956 0.556261 -2.66856 1.50345q-1.39715 0.93926 -2.67058 1.50166 q-16.3591 8.40905 -72.7911 20.0484q-5.96068 8.56676 -7.35606 20.0643q-1.39538 11.4976 -0.178286 19.3996t4.90045 23.2234q3.68336 15.3214 4.75458 21.09zM411.716 756.243q5.42185 -0.259515 20.8188 -0.99633q-6.09874 -27.2375 -2.44555 -95.6539 t0.520944 -95.9954q-13.5697 -119.48 -5.0177 -184.005q3.2177 -40.7123 2.66058 -61.1561t-3.83798 -61.4234q-3.28086 -40.9796 -3.83828 -61.4235q-0.841649 -30.8682 -2.5144 -92.2051q-1.67276 -61.3369 -2.50331 -91.7979q-3.26104 -0.05607 -9.55873 -0.158313 t-9.30314 -0.153487l4.53656 183.713q0.504091 20.4121 2.92849 61.268t2.92841 61.268t-1.32035 61.1766q-3.06322 14.5382 -1.87294 50.2371t1.69864 46.2028t3.63458 43.9321t3.93487 43.4248q2.32817 28.7807 -1.46531 96.9835t0.0157812 96.7605zM145.804 747.601 q-3.28949 -120.645 -9.97991 -366.046q-6.69043 -245.4 -10.0869 -369.968q-3.26105 -0.0560701 -9.55873 -0.158313q-6.29768 -0.102243 -9.30314 -0.153487q2.99745 121.375 9.04742 366.344q6.04997 244.969 9.10081 368.506v0.002q3.34775 0.237463 10.2811 0.728741 q6.93339 0.491277 10.4993 0.744249v-0.0002zM323.057 640.458q18.3551 -0.235475 59.8142 -4.25769l-0.46094 -20.043q-9.73539 0.333164 -37.7809 0.018155t-31.2378 -0.620245q-1.00264 -0.0958723 -16.1383 -0.411393q-15.1357 -0.31552 -29.4734 -0.929265 q-14.3377 -0.613744 -15.9087 -1.49779q-20.3559 -12.2225 -37.3457 -25.5443q-16.9896 -13.3216 -24.4173 -31.472q-6.03731 -23.3537 -2.71103 -49.0368q1.23375 -9.52424 32.2702 -35.0698q31.0365 -25.5455 34.8785 -32.0531q4.13161 -6.32089 8.28063 -13.0651 q4.13087 -6.71471 8.28063 -13.0633q6.73361 -10.8167 45.383 -47.9031q38.6494 -37.0864 44.8204 -48.0111q8.98769 -15.9109 13.5227 -31.576l-1.04922 -45.7915q-10.6798 -17.5029 -33.7385 -39.3528t-36.7782 -27.582q-12.836 -5.36292 -60.2888 -12.9859 q-47.4528 -7.62298 -87.2058 -9.6124l0.42656 15.4466q37.2447 3.84847 78.9215 12.1136t52.2059 13.5077q15.952 7.94265 39.0162 32.1587q23.0642 24.216 23.0642 35.4785q0 23.7532 -10.8683 46.7144q-3.9038 8.24755 -38.5465 38.9846t-39.236 37.53l-10.3508 14.2532 l-10.3508 14.2514q-5.68552 8.26329 -35.6544 33.2358q-29.9689 24.9725 -39.5424 35.8923q-1.82066 6.63876 -2.91723 13.2595t-1.16642 14.5004q-0.0698422 7.87965 -0.115964 12.8459t1.09162 14.5004t1.54168 12.8458q0.403939 3.31168 2.14886 14.5004t2.05569 13.2595 q4.58995 7.51608 9.9303 13.9826q13.0263 15.7734 35.1846 30.0851q4.59815 1.41179 39.1949 8.29361q34.5967 6.88182 39.6267 7.47376q9.51478 1.11975 19.0297 3.919q1.46383 0 2.56142 0.27954q1.09637 0.27955 2.56346 0.27955q2.03553 0.338501 7.46993 0.2688z M344.462 542.838q13.3731 -0.423366 36.1085 -6.84883q1.81791 -15.6408 -2.15058 -51.802q-3.96848 -36.1612 -0.382525 -58.5911q-4.9178 2.39971 -15.823 7.31928q-10.9052 4.91957 -17.4982 8.19186q-6.59302 3.27229 -14.51 7.85728q-7.91694 4.585 -12.3094 9.20266 q-4.39246 4.61766 -5.44534 9.34088q-7.08408 31.7791 0.63277 62.9871q9.65146 13.0308 31.3778 12.343zM161.213 347.917q51.5639 -53.8925 51.5639 -68.0279v-2.77036v-2.77215l-2.07016 -2.77035v-2.77215q-1.45154 -16.6556 -52.1865 -18.5162 q4.76621 36.97 2.69281 97.6291z"
         id="glyph7" /><glyph
         glyph-name="ampersand"
         unicode="%"
         horiz-adv-x="752"
         d="M572.615 357.929q14.8576 1.06126 31.3071 0.53062q16.4495 -0.53062 32.3683 -2.65314q2.12251 0 4.24503 -0.53062q2.12251 -0.53063 4.24503 -0.53063q36.0827 -6.36755 66.3285 -26.0008q30.2458 -19.6332 42.9809 -61.0223q9.55133 -16.9801 10.6126 -36.0827 q1.06126 -19.1026 -2.12252 -37.144l-2.12251 -10.6126l-2.12249 -9.55132q-4.24506 -15.9189 -11.1432 -31.8377q-6.89817 -15.9188 -13.2657 -29.7152q-1.06127 -1.06127 -1.06127 -2.12253q0 -1.06125 -1.06124 -2.1225q-21.2251 -25.4702 -50.9403 -44.0422 q-29.7152 -18.572 -61.5529 -16.4495q-41.389 8.49006 -78.533 23.3477q-37.144 14.8576 -56.2466 56.2466q-15.9189 23.3476 -19.6332 49.8791q-3.7144 26.5314 -0.53063 54.1241q0 1.06124 0.53063 2.1225l0.53061 1.06127q2.12254 10.6126 4.77566 20.1639 q2.65315 9.5513 5.83693 19.1026q14.8576 30.7764 39.7971 53.0628q24.9396 22.2864 56.7772 30.7764zM715.885 259.233q-12.7351 20.1639 -28.1233 33.4296q-15.3882 13.2657 -34.4908 21.7558q-5.30631 2.12251 -11.1432 3.71439q-5.83691 1.59189 -12.2044 2.65315 q-16.9801 3.18377 -33.9602 0.53062q-16.9801 -2.65315 -31.8377 -12.2045q-24.4089 -13.7963 -39.7971 -36.6133q-15.3882 -22.817 -20.6945 -51.471q-1.06128 -3.18377 -1.06128 -6.36754q0 -3.18377 -1.06123 -6.36754q-1.06127 -3.18375 -0.53065 -6.89815 q0.53065 -3.71438 0.53065 -6.89817q4.24501 -35.0215 26.5314 -62.0835q22.2864 -27.062 54.1241 -36.6133q3.18378 -1.06127 5.83692 -1.59188q2.65313 -0.53065 5.8369 -0.53065q33.9602 -6.36756 65.7979 6.89817q31.8377 13.2657 53.0628 42.9809 q4.245 9.55131 7.42878 19.6333q3.18378 10.0819 4.24504 20.6945q3.18376 20.1639 1.59189 39.2665q-1.59189 19.1026 -10.0819 36.0827zM646.293 294.342q14.2436 -4.74786 25.6384 -16.1427q11.3949 -11.3949 19.941 -23.7393l1.89915 -1.89914l0.94956 -1.89915 q6.647 -15.1931 9.49572 -32.2854q2.84871 -17.0923 -0.94958 -33.235q-0.94955 -2.84872 -1.42435 -6.17221q-0.47479 -3.3235 -1.42435 -6.17222l-1.89915 -5.69743l-1.89913 -5.69743q-11.3949 -22.7897 -34.1846 -35.6089q-22.7897 -12.8192 -46.529 -12.8192h-3.79829 h-3.79828h-0.94956h-0.94958h-0.94957h-0.94957q-1.89914 0 -4.74785 0.94957q-2.84873 0.94957 -4.74788 0.94957q-22.7897 6.64699 -42.2559 22.7897q-19.4662 16.1427 -27.0628 41.7811q-2.84871 8.54615 -2.84871 18.5166q0 9.9705 1.89915 20.4158 q0 0.94957 0.47478 2.84871q0.47478 1.89915 0.47478 2.84871q2.84873 13.294 9.49572 25.1636q6.64699 11.8696 15.1931 21.3654q18.0419 16.1427 37.9829 24.2141q19.941 8.07136 41.7811 4.27308q0.94959 0 2.37394 -0.47478q1.42435 -0.47479 2.37392 -0.47479 l5.69743 -1.89914zM668.227 221.147q-4.44171 15.9901 -16.4343 26.6502q-11.9926 10.6601 -27.0943 14.2134q-0.88835 0 -1.33252 0.44415q-0.44416 0.44419 -1.3325 0.44419q-9.77175 1.77667 -19.0993 0q-9.32756 -1.77669 -18.211 -7.99508 q-9.77173 -7.1067 -16.4343 -16.4343q-6.66257 -9.32757 -8.43925 -21.7643q-0.88832 -3.55335 -0.88832 -7.1067v-7.99505q5.33003 -16.8784 16.4343 -32.4244q11.1042 -15.5459 27.9827 -19.9876q13.3251 -1.77668 24.8735 2.66503q11.5484 4.44167 23.0968 12.4367 q7.10672 5.33005 11.5484 13.3251q4.44172 7.99506 6.21839 16.8785q0.88835 6.21837 0.88835 13.3251q0 7.10671 -1.77668 13.3251zM313.212 581.747q-5.27792 -16.8893 -11.6114 -33.7785q-6.33347 -16.8893 -14.7781 -33.7786l-2.11117 -4.22232l-2.11115 -4.22232 q-19.0005 -35.8897 -48.5567 -61.7514q-29.5562 -25.8617 -71.7794 -25.8617q-19.0004 -4.22231 -36.9453 0.52781q-17.9449 4.75011 -33.7785 14.2503q-4.22232 3.16675 -8.44464 5.8057t-8.44464 5.80568q-13.7225 10.5558 -25.8617 22.1672 q-12.1392 11.6114 -21.6394 23.2228q-1.05558 1.05558 -2.11116 1.58337q-1.05558 0.52779 -1.05558 1.58336q-15.8337 30.6118 -21.6394 68.6127q-5.80569 38.0009 7.91685 71.7794q23.2228 42.2232 50.6678 76.0018q27.4451 33.7785 71.7794 41.1676 q27.4451 9.50023 53.8346 4.7501q26.3895 -4.7501 49.6123 -17.4171q1.05557 -1.05559 2.11115 -1.58339l1.05558 -0.52779q8.44464 -5.2779 16.8893 -11.6114q8.44465 -6.33349 14.7781 -12.667q22.1672 -25.3339 33.7786 -59.1125q11.6114 -33.7786 8.44465 -70.7238z M168.597 461.411q23.2228 6.33347 41.1676 18.4726q17.9449 12.1392 32.723 30.084q4.22231 5.27791 7.91686 10.5558q3.69452 5.2779 6.86125 11.6114q9.50023 16.8893 13.1947 36.4175q3.69453 19.5282 0.5278 38.5287q-3.16673 29.5562 -19.0004 53.8346 q-15.8337 24.2783 -39.0565 39.0565q-3.16673 2.11117 -6.33348 3.16676q-3.16672 1.05557 -5.27789 2.11115q-3.16674 2.11115 -6.3335 3.16674l-6.33347 2.11115q-33.7785 7.38907 -66.5015 -7.91685q-32.723 -15.3059 -53.8346 -45.9177 q-2.11116 -3.16675 -3.69453 -5.80571q-1.58337 -2.63894 -3.69453 -4.75011q-19.0004 -34.8341 -17.9449 -72.835q1.05558 -38.0009 21.1116 -70.7238q7.38906 -7.38907 15.3059 -14.2503q7.91685 -6.86126 16.3615 -12.1392q16.8893 -10.5558 35.3619 -14.2503 q18.4726 -3.69454 37.4731 -0.52779zM228.269 522.459q-9.63212 -14.4482 -24.5619 -23.1171q-14.9298 -8.66889 -30.3412 -13.485q-0.96321 -0.9632 -2.40803 -0.9632q-1.44481 0 -2.40802 -0.96321q-16.3746 -2.88963 -33.2308 0.48161q-16.8562 3.37124 -32.2676 13.0034 q-2.88963 1.92641 -4.81606 3.37124q-1.92642 1.44481 -4.81606 3.37124q-2.88963 1.92642 -4.81606 3.85283q-1.92642 1.92644 -3.85284 4.81607q-17.3378 20.2274 -20.709 49.1238q-3.37124 28.8963 5.29766 53.9398q0.963212 1.92643 1.44482 4.33446 q0.481604 2.40802 1.44482 4.33444l0.481604 0.48162q0.481607 0.4816 0.481607 1.44481t0.481605 0.96321t0.481605 0.96322l2.40803 4.81605l3.37124 4.81605q14.4482 23.1171 37.0836 38.5285q22.6355 15.4114 49.6054 14.4482q9.6321 0 18.7826 -2.88963 t17.8194 -7.7057q0.9632 -0.96321 2.40801 -1.92642q1.44483 -0.96321 2.40803 -1.92642q10.5953 -7.70569 19.7458 -18.7826q9.15052 -11.0769 13.9666 -22.6355q8.66889 -25.0435 8.66889 -49.1238q0 -24.0803 -11.5585 -47.1974q-0.96321 -0.96321 -1.92642 -2.40802 q-0.96322 -1.44482 -1.92643 -3.37124q-1.92641 -2.88964 -3.37124 -5.29766q-1.44481 -2.40804 -3.37123 -5.29767zM150.746 522.571q16.3103 -0.90612 31.2614 8.60825q14.9511 9.51433 24.0124 24.9185q0 0.90614 0.90614 1.35919q0.90614 0.45306 0.90614 2.26533 q5.43676 9.96742 7.24902 20.841q1.81226 10.8735 0 21.7471q-2.71837 12.6858 -9.51436 23.1063q-6.79597 10.4205 -16.7634 16.7634q-2.71839 1.81225 -6.34291 3.62452q-3.6245 1.81224 -8.15516 2.71837q-18.1226 0 -37.1513 -7.24902 q-19.0287 -7.24903 -28.9962 -23.5593q-6.34289 -13.5919 -6.79596 -28.09q-0.45306 -14.4981 2.26533 -28.9961q1.81226 -9.96742 8.15514 -17.2165q6.34292 -7.24903 14.4981 -11.7797q5.43676 -3.62451 11.7797 -5.88984q6.3429 -2.26532 12.6858 -3.17145zM743 753 l-6 -28q-123 -160 -222.5 -331.5t-187.5 -345.5q-26 -6 -51 -8.5t-51 -1.5q-12 0 -24 0.5t-24 0.5q-6 1 -12 1t-12 1q-18 0 -36.5 1t-35.5 1q-18 0 -36 -1.5t-36 -4.5l-10 11q31 45 61.5 90t61.5 90q7 10 14 21t15 21q80 116 158.5 233t149.5 237q40 4 82 7.5t84 5.5 q16 0 33 0.5t33 0.5h26zM250 158l308 489h-36l-213 -338q-9 -16 -19 -30.5t-21 -28.5q-4 -5 -7 -9.5t-7 -9.5q-14 -20 -27 -40t-21 -44q8 0 16 2.5t17 5.5q2 1 4.5 1.5t5.5 1.5z"
         id="glyph8" /><glyph
         glyph-name="quotesingle"
         unicode="&amp;"
         horiz-adv-x="780"
         d="M356 755h5h4q45 0 79.5 -27t63.5 -58q8 -9 16 -18.5t17 -17.5q-1 -34 -19.5 -57.5t-42.5 -45.5q-2 -2 -5 -4.5t-6 -5.5q-10 -9 -20.5 -19t-19.5 -22q7 -19 23.5 -37.5t34.5 -33.5q6 -6 13 -12t13 -11q27 6 51.5 19.5t46.5 28.5q1 1 2 1.5t2 0.5q19 13 39.5 25.5 t42.5 19.5q2 -4 3.5 -7.5t2.5 -7.5q10 -23 18 -47.5t8 -48.5v-5v-5l-111 -84v-24q2 -3 5 -5.5t5 -5.5q4 -4 8 -9t8 -9q22 -23 39.5 -47t17.5 -52q-28 -30 -58.5 -52t-61.5 -42q-3 -1 -5.5 -2.5t-4.5 -2.5q-2 -2 -4.5 -4t-4.5 -3h-23l-110 128q-23 -4 -45.5 -17t-43.5 -28 q-7 -5 -14 -9t-13 -8q-19 -12 -38 -21t-38 -9q-17 0 -36 9t-37 30q-7 10 -16 20.5t-19 19.5q-5 6 -11 12.5t-13 11.5q-30 30 -54 61.5t-24 68.5q0 11 3 22.5t8 23.5l126 148q-5 12 -13 24.5t-16 23.5l-1.5 1.5l-0.5 1.5q-13 17 -23.5 36t-10.5 40v2l1 3v2v2q45 49 102 76 t116 47q3 2 6.5 3t7.5 2q6 2 12.5 5t12.5 5v0zM457 617q-6 14 -18 27t-24 24q-4 3 -8.5 6t-8.5 6q-5 2 -10 3.5t-10 2.5t-10.5 1h-10.5q-35 0 -67.5 -18.5t-63.5 -40.5q-5 -4 -10.5 -8t-10.5 -8q-1 -4 -1.5 -8t-0.5 -8q0 -24 13.5 -44t29.5 -39q4 -4 7.5 -8t6.5 -8 q6 -7 12 -15t10 -16q-10 -9 -22 -18t-24 -16q-3 -3 -7.5 -5.5t-8.5 -4.5q-31 -19 -55.5 -42.5t-30.5 -65.5q2 -37 23.5 -62t48.5 -47q2 -1 4 -2.5t4 -3.5q6 -5 12.5 -11t13.5 -12q10 -4 19 -5.5t19 -1.5q28 0 53 13t51 28q1 1 2.5 1.5t2.5 1.5q18 11 37.5 22t40.5 17 l110 -121l11 4q-10 24 -25 43t-32 37q-3 3 -6.5 6t-6.5 7q-6 6 -12 13.5t-12 14.5v14q14 11 29.5 22t29.5 22q29 20 56.5 41t50.5 41q-30 -7 -57.5 -25t-54.5 -38l-1.5 -1.5l-1.5 -0.5q-13 -10 -27.5 -20.5t-29.5 -18.5h-21l-141 174q10 11 22 21.5t26 20.5q2 1 3.5 2.5 t3.5 2.5q28 20 52 44.5t26 59.5v0zM294 450l15 -6q12 -16 26.5 -33t29.5 -34q22 -26 42 -52.5t33 -54.5q-12 -6 -23 -12.5t-23 -13.5q-2 -1 -3.5 -1.5t-2.5 -1.5q-31 -18 -61.5 -33t-66.5 -20q-8 7 -18 15.5t-20 16.5q-26 20 -46 43.5t-20 50.5q4 39 29 60t56 39q14 8 28 17 t25 20v0zM328 292q-4 5 -9 11t-9 12q-11 15 -24.5 29t-29.5 16q-12 -7 -17.5 -16t-5.5 -19q0 -4 1.5 -9t3.5 -9q3 -9 8 -17.5t10 -17.5q5 -2 10.5 -4t12.5 -3q3 -1 5.5 -1h5.5q12 0 22.5 6t15.5 22v0zM225 607q9 5 19.5 12t20.5 13q14 9 28.5 17t30.5 15q11 4 21.5 6.5 t22.5 2.5q20 -1 39 -13.5t33 -42.5q-5 -33 -31.5 -57t-56.5 -45q-9 -6 -18.5 -12t-18.5 -13q-2 -1 -3.5 -2t-2.5 -2q-2 3 -5 7t-6 7l-12 12l-13 12q-18 16 -33 36.5t-15 44.5v0.5v1.5v0zM370 596q-2 11 -10 14t-16 3q-4 -1 -8 -1h-8q-9 -4 -15.5 -11t-5.5 -17v-1.5v-1.5 q4 -11 13 -18t19 -9l6 6l6 6q7 6 13.5 13t5.5 15v0.5v1.5v0z"
         id="glyph9" /><glyph
         glyph-name="parenleft"
         unicode="'"
         horiz-adv-x="296"
         d="M253 601q-49 -44 -105.5 -81t-122.5 -45q5 27 12.5 53.5t15.5 54.5q10 34 19.5 68.5t14.5 70.5q4 1 8 1.5t9 0.5q12 2 25 3.5t27 3.5q16 2 33.5 3t33.5 1q14 0 29 -1t29 -3l-28 -130v0zM133 587q3 2 5.5 4t5.5 4q13 11 25.5 26.5t15.5 32.5q-4 3 -8.5 4t-7.5 1 q-11 0 -15 -10.5t-8 -24.5v-1.5v-1.5q-2 -10 -5 -19.5t-8 -14.5v0z"
         id="glyph10" /><glyph
         glyph-name="parenright"
         unicode="("
         horiz-adv-x="358"
         d="M27 563q6 10 12.5 21t13.5 21q43 65 105 118.5t141 53.5q6 0 12 -0.5t14 -1.5q-53 -62 -77.5 -143.5t-24.5 -166.5q1 -50 9 -100t23 -95l90 -208q-10 2 -20 5.5t-20 7.5q-78 28 -147.5 84t-101.5 133q-4 11 -9 23.5t-10 24.5q-12 33 -23.5 67.5t-10.5 70.5q0 22 5 43.5 t19 41.5v0zM135 563q19 22 31 46.5t21 49.5q-15 -12 -24.5 -27t-18.5 -30l-1.5 -3l-1.5 -3q-6 -10 -12 -21t-14 -21q-6 -22 -9.5 -45t-3.5 -46v-6.5v-7.5q2 -51 17.5 -99t41.5 -80q-20 41 -29.5 86t-9.5 93q0 30 3.5 58.5t9.5 55.5v0z"
         id="glyph11" /><glyph
         glyph-name="asterisk"
         unicode=")"
         horiz-adv-x="358"
         d="M-13 780q113 -23 209 -113t121 -206q6 -18 9.5 -36.5t3.5 -36.5q0 -81 -51 -152t-111 -123l-1.5 -1.5l-1.5 -1.5q-20 -13 -45 -24t-49 -16q-11 -2 -21.5 -3t-20.5 -1q-7 0 -14 0.5t-13 1.5q55 66 83.5 149.5t30.5 171.5v5.5v5.5q0 42 -6.5 83.5t-18.5 81.5 q-8 26 -21.5 50t-26.5 48q-6 9 -11.5 18t-11.5 18q-11 20 -19.5 40.5t-12.5 40.5h-1zM233 324q2 6 4 11.5t3 11.5q2 12 3.5 24t1.5 23q0 63 -28.5 121t-66.5 108q33 -50 47.5 -106t14.5 -114t-16 -113.5t-46 -103.5q24 22 39.5 50t29.5 57q1 4 3 7.5t4 7.5t3.5 7.5t3.5 8.5 v0z"
         id="glyph12" /><glyph
         glyph-name="plus"
         unicode="*"
         horiz-adv-x="752"
         d="M357 780l110 -220l231 23q-11 -31 -33 -55t-45 -46l-6 -4l-5 -4q-19 -17 -36.5 -35.5t-28.5 -40.5q48 -39 91 -78.5t81 -80.5l-10 -13q-53 -7 -108.5 -10.5t-113.5 -2.5h-10h-10h-10h-11q-12 -22 -17.5 -46.5t-10.5 -48.5q0 -2 -0.5 -4t-0.5 -4q-5 -30 -12.5 -58 t-22.5 -52l-33 17l-92 209l-218 -13q5 7 9.5 15t9.5 15q3 4 5.5 7.5t5.5 7.5q25 37 51.5 73.5t61.5 66.5q-9 30 -28.5 53.5t-40.5 46.5q-18 19 -36 39.5t-28 45.5l220 2l70 195h21v0zM375 423q-5 23 -7.5 42.5t-5.5 40.5q-1 11 -1.5 23.5t-1.5 24.5q0 10 -0.5 20.5 t-1.5 21.5l-16 -162q-12 4 -23.5 9.5t-22.5 10.5q-4 2 -7.5 3.5t-6.5 3.5q-19 10 -40 18.5t-44 13.5l137 -95q-14 -13 -29.5 -24.5t-31.5 -20.5q0 -1 -0.5 -1h-1.5q-14 -10 -29 -20t-29 -24q18 4 36 12t36 17h0.5h0.5q12 6 24 11.5t24 9.5q8 -13 10.5 -26t3.5 -25v-11.5 v-10.5v-6v-6q0 -13 1.5 -28t7.5 -30l18 155q18 -4 36.5 -12.5t35.5 -17.5q18 -10 36.5 -19.5t34.5 -12.5q-10 11 -23 20t-27 17q-19 13 -37.5 27t-28.5 34l111 84l-138 -67v0z"
         id="glyph13" /><glyph
         glyph-name="comma"
         unicode="+"
         horiz-adv-x="858"
         d="M297 769q42 6 84.5 6.5t87.5 0.5q14 -1 28.5 -1h28.5q9 -33 13 -67.5t6 -70.5v-4.5v-4.5q2 -28 4 -54.5t6 -52.5q30 -5 63.5 -7.5t68.5 -2.5h12h11q29 1 56.5 3.5t52.5 6.5q3 -29 3.5 -60t0.5 -64v-1.5v-1.5v-8.5v-9.5q0 -29 1 -56.5t3 -52.5h-277l-12 -12l-6 -243 l-197 -12l-17 12v260l-17 13q-26 0 -51 -1t-49 -3q-25 -1 -48.5 -3t-47.5 -2q-18 0 -36 2t-35 4q-3 27 -4 53t-1 54v28l1 28v26.5v27.5q31 5 60 6.5t57 3.5h6h6q35 1 70 3.5t72 8.5q3 15 5 32t3 34v11.5v10.5v10v9q-1 28 -3.5 55.5t-4.5 52.5q-1 8 -2 16.5t-2 16.5v0z M429 670h-12q-1 -7 -1.5 -16.5t-0.5 -18.5q0 -16 1 -34.5t3 -37.5q0 -7 0.5 -13t0.5 -12q1 -12 1.5 -25t0.5 -26q0 -23 -2.5 -43.5t-7.5 -37.5h-249h-2.5l-3.5 1h-2.5h-3.5q-9 0 -16.5 -4t-7.5 -13v-1.5v-1.5q16 -2 33 -3t34 -1t35.5 1t36.5 2q9 0 18.5 0.5t18.5 0.5 q9 1 18.5 1h18.5l38 -2l39 -4l5 -261l18 -21l4 270l14 12h8h9q4 -1 8 -1h9q35 0 68.5 2t67.5 5q14 0 28 1l28 2q9 1 19 1.5t19 0.5v7q-29 3 -62.5 4.5t-68.5 1.5q-33 0 -65.5 -2t-62.5 -4l-19 16q-4 25 -4.5 52t0.5 55v18v17q0 30 -2 58t-9 54v0z"
         id="glyph14" /><glyph
         glyph-name="hyphen"
         unicode=","
         horiz-adv-x="331"
         d="M122 254q11 -1 22.5 -1.5t22.5 -1.5q5 0 10 -0.5t10 -0.5q29 -2 56.5 -4t54.5 -2h4h5h4h4q-30 -94 -74.5 -181.5t-105.5 -168.5l-150 8q40 86 73.5 174t63.5 178v0zM195 170h-18q-7 -23 -16 -45.5t-19 -43.5q-13 -29 -24.5 -55.5t-17.5 -53.5q31 35 51 76t32 83 q3 10 6.5 20t5.5 19v0z"
         id="glyph15" /><glyph
         glyph-name="period"
         unicode="-"
         horiz-adv-x="420"
         d="M386 386l7 -13q-3 -14 -6 -29l-6 -30q-6 -29 -11.5 -58t-13.5 -58l-12 -10l-324 -5l-7 15l84 190l289 -2v0zM297 293q-12 8 -28 10.5t-33 2.5h-14.5l-14.5 -1h-4h-3q-9 0 -18.5 -0.5t-17.5 -0.5h-4.5h-4.5q-5 -1 -9.5 -5t-4.5 -11v-0.5v-1.5v-1.5v-0.5q8 1 17 1h17h14.5 h14.5q6 -1 13 -1h14q17 0 34 2t32 7v0z"
         id="glyph16" /><glyph
         glyph-name="slash"
         unicode="."
         horiz-adv-x="370"
         d="M193 289q27 -13 52.5 -38.5t52.5 -51.5q18 -19 36.5 -38t37.5 -33l-177 -175l-197 163v17l195 156v0zM224 128q-8 10 -17.5 18t-24.5 8q-9 -3 -15.5 -11.5t-8.5 -17.5q0 -1 -0.5 -2t-0.5 -2q6 -8 12 -12.5t13 -6.5q1 -1 2.5 -1.5t2.5 -0.5q3 -1 6 -2.5t6 -3.5 q2 3 4.5 5.5t5.5 4.5q0 1 1 1.5t2 2.5q5 5 8.5 9.5t3.5 10.5v0z"
         id="glyph17" /><glyph
         glyph-name="zero"
         unicode="/"
         horiz-adv-x="752"
         d="M743 753l-6 -28q-123 -160 -222.5 -331.5t-187.5 -345.5q-26 -6 -51 -8.5t-51 -1.5q-12 0 -24 0.5t-24 0.5q-6 1 -12 1t-12 1q-18 0 -36.5 1t-35.5 1q-18 0 -36 -1.5t-36 -4.5l-10 11q31 45 61.5 90t61.5 90q7 10 14 21t15 21q80 116 158.5 233t149.5 237q40 4 82 7.5 t84 5.5q16 0 33 0.5t33 0.5h26l26 -1v0zM250 158l308 489h-36l-213 -338q-9 -16 -19 -30.5t-21 -28.5q-4 -5 -7 -9.5t-7 -9.5q-14 -20 -27 -40t-21 -44q8 0 16 2.5t17 5.5q2 1 4.5 1.5t5.5 1.5v0z"
         id="glyph18" /><glyph
         glyph-name="one"
         unicode="0"
         horiz-adv-x="883"
         d="M434 780h7.5h8.5q115 0 215.5 -58t147.5 -167q16 -35 23.5 -74t7.5 -79q0 -9 -0.5 -18t-0.5 -19q-5 -55 -20 -110t-37 -101q-58 -71 -131 -112.5t-161 -41.5q-14 0 -29 1.5t-31 3.5q-119 4 -214.5 65t-147.5 167q-16 36 -24 73.5t-8 75.5q0 46 9 91t23 86q51 94 143 156 t203 61h4h4h4h4v0zM703 539q-47 66 -115.5 105t-150.5 39h-5.5h-4.5q-2 -1 -4.5 -1h-4.5q-90 -5 -158.5 -61t-98.5 -138q-5 -19 -7.5 -38t-2.5 -39q0 -34 6.5 -67.5t17.5 -64.5q33 -75 102 -123.5t152 -52.5q4 0 8 -0.5t8 -0.5q4 -1 8.5 -1h8.5q79 0 146 43t107 113 q14 28 21 62t7 69q0 42 -9.5 83t-30.5 73v0zM374 650q18 5 36 7.5t35 2.5q55 0 105.5 -21.5t89.5 -55.5q45 -44 62 -100t18 -118q0 -2 -0.5 -4t-0.5 -4q-13 -57 -38.5 -110.5t-79.5 -87.5q-32 -19 -69 -28.5t-76 -9.5q-49 0 -96.5 15.5t-84.5 44.5q-48 42 -75 98t-27 117 q0 8 0.5 17t1.5 17q9 82 66.5 139.5t132.5 80.5v0zM605 458q-25 55 -77.5 80t-111.5 25h-3h-3h-4h-4q-26 -6 -49 -22t-44 -39q-20 -16 -27.5 -40t-8.5 -48v-4v-4q0 -12 0.5 -24.5t1.5 -24.5q7 -9 14 -19t14 -21q27 -38 60.5 -69.5t82.5 -32.5q39 0 69.5 17t57.5 42 q24 20 34.5 49.5t10.5 61.5q0 19 -3.5 37.5t-9.5 35.5v0z"
         id="glyph19" /><glyph
         glyph-name="two"
         unicode="1"
         horiz-adv-x="525"
         d="M431 780l63 -18q-4 -41 -7 -81.5t-4 -81.5q-1 -13 -1 -26.5v-26.5q0 -25 0.5 -49.5t1.5 -50.5q1 -39 3 -78t5 -78q4 -69 7 -138.5t3 -141.5l-8 -10q-23 2 -45.5 3t-45.5 2h-5.5h-5.5q-48 1 -95.5 4.5t-89.5 19.5q8 43 10.5 88.5t2.5 92.5q0 20 -0.5 40.5t-0.5 41.5 q-1 17 -1.5 35t-1.5 37q-1 38 -2.5 75t-1.5 72v11v13l-21 18q-10 3 -21 4.5t-23 1.5h-13.5h-13.5q-7 -1 -14 -1h-13q-23 0 -41 5t-28 24q50 27 100.5 50t102.5 47q3 1 7.5 3t8.5 3q47 22 94.5 44t93.5 46v0zM371 104l-16 543q-7 0 -16 -2.5t-18 -6.5l-13 -6.5l-12 -6.5 q-4 -2 -7.5 -5t-6.5 -5h3.5h3.5h6h7h2.5h2.5q6 -1 12.5 -4t10.5 -11l12 -496h29v0z"
         id="glyph20" /><glyph
         glyph-name="three"
         unicode="2"
         horiz-adv-x="744"
         d="M100 703q42 37 100.5 56.5t120.5 20.5h4.5h4.5q47 0 92 -10.5t82 -32.5q50 -48 79 -104t28 -125v-7.5v-7.5q-19 -54 -50.5 -104.5t-63.5 -99.5q-1 -1 -2 -3t-3 -3q-17 -27 -35.5 -54t-33.5 -55q18 -5 36.5 -7.5t36.5 -2.5q40 0 77.5 9t75.5 21q15 5 30 9t31 8 q-6 -15 -13 -30.5t-15 -29.5q-19 -39 -43.5 -77t-50.5 -74h-539l-11 10q17 24 37 47.5t40 45.5q3 3 5.5 6.5t4.5 5.5q45 51 86 104t61 115q-9 2 -18 5l-18 6q-57 19 -110.5 55.5t-82.5 97.5q-4 15 -6.5 30.5t-2.5 30.5q0 41 17.5 78.5t48.5 65.5v0zM500 597q-16 38 -52 69 t-76 45q-3 1 -7 1.5t-7 1.5q-5 1 -10 1.5t-10 0.5q-5 1 -10 1h-11q-53 0 -101.5 -20.5t-83.5 -63.5q-10 -17 -18.5 -38.5t-7.5 -42.5q0 -10 3 -20.5t10 -20.5q0 2 -0.5 4t-0.5 5q-1 2 -1 4v4q0 8 1.5 15t3.5 14q0 2 0.5 4.5t1.5 4.5q1 5 2.5 10t2.5 10q12 31 38 53.5 t54 36.5q5 3 10 5l10 4q14 5 29 7.5t28 2.5q46 0 87 -22.5t73 -51.5q11 -22 17.5 -45t8.5 -47q1 -5 1 -9.5v-9.5q0 -7 -0.5 -14.5t-1.5 -14.5q-54 -102 -121.5 -202.5t-138.5 -197.5h336l5 18l-286 5q13 40 39 78t55 75l8 10l8 11q46 57 84 118t38 132q0 16 -2.5 34t-7.5 35 v0zM377 586q-1 1 -2 1.5t-2 1.5q-12 8 -27 15.5t-31 11.5q-5 1 -10.5 1.5t-10.5 0.5q-13 0 -25 -4t-22 -15q-33 -16 -48 -47t-15 -67v-2.5v-2.5v-3v-3q19 -32 43 -53.5t61 -32.5l8 4l8 4l6 2l5 3q17 7 34 17.5t28 26.5q7 20 12 41.5t5 41.5q0 14 -3.5 29t-13.5 29v0z"
         id="glyph21" /><glyph
         glyph-name="four"
         unicode="3"
         horiz-adv-x="488"
         d="M256 768q10 -6 22.5 -12t24.5 -13q7 -3 15 -6.5t15 -7.5q48 -23 88 -55t40 -91v-1.5v-1.5q-2 -40 -20 -75.5t-40 -68.5l-14 -22l-13 -21q-5 -9 -10 -17t-9 -18l2.5 -2.5l3.5 -2.5q6 -5 12 -9.5t12 -8.5q28 -23 52 -48t29 -59q-1 -8 -1 -17.5v-20.5v-10.5l-1 -10.5 q-2 -31 -13 -58.5t-48 -38.5q-7 -4 -13.5 -8.5t-13.5 -8.5q-35 -20 -73 -37.5t-79 -17.5q-7 0 -13 0.5t-12 1.5l-136 42q6 6 13 11.5t14 12.5q7 5 15 10.5t16 11.5q24 17 44.5 37.5t29.5 48.5q1 53 -32.5 89t-72.5 64q-13 9 -26 17.5t-24 17.5q12 11 29 23.5t34 27.5 q33 26 59.5 59t26.5 74q0 6 -0.5 12.5t-2.5 13.5q-2 37 -23.5 69t-57.5 47l-12 4l-12 4q-2 1 -4.5 1.5t-4.5 1.5q-13 4 -26.5 9t-22.5 12q10 4 20 8.5t20 9.5q32 15 66.5 27.5t69.5 12.5q14 -1 28.5 -3.5t28.5 -8.5v0zM327 610q-23 40 -59 64.5t-75 37.5q-1 1 -3 1.5t-4 0.5 q8 -9 22.5 -20t31.5 -23q16 -12 31 -27t22 -34q3 -13 4.5 -25.5t1.5 -23.5q0 -60 -33.5 -110.5t-74.5 -92.5l10 -6l10 -6q36 -26 66.5 -62.5t30.5 -83.5q-2 -39 -30 -70.5t-61 -46.5q37 4 67.5 23t50.5 52q2 9 3.5 18t1.5 18q-1 48 -32.5 84.5t-68.5 67.5q-5 4 -11 8.5 t-11 9.5q46 41 81 89t35 110q0 11 -1.5 23t-4.5 24v0z"
         id="glyph22" /><glyph
         glyph-name="five"
         unicode="4"
         horiz-adv-x="847"
         d="M496 779q8 -1 16.5 -1h16.5q11 0 22.5 0.5t21.5 0.5q11 0 22.5 0.5t21.5 0.5q24 0 45 -2.5t38 -10.5q-1 -6 -1.5 -12.5t-0.5 -13.5q-4 -45 -7 -92t-5 -94v-27v-27q0 -37 2 -73t6 -71q9 -7 21.5 -8.5t25.5 -1.5h5h6h4h4q16 0 29 -3t20 -15v-164q-7 -5 -14.5 -7.5 t-15.5 -2.5q-5 0 -10 1l-10 2h-0.5h-1.5l-12 2l-11 1q-10 0 -18 -4t-16 -16q-2 -5 -3 -11.5t-1 -13.5q0 -6 0.5 -13t1.5 -14q1 -3 1.5 -6t0.5 -7q2 -9 3.5 -19t1.5 -18q0 -16 -7.5 -27t-30.5 -12h-187q-4 8 -6 19.5t-2 23.5q0 10 1 21t2 21v2v2q2 11 2.5 23t0.5 22v9.5 l-1 9.5q-35 4 -70.5 6t-72.5 3h-17.5h-18.5h-21h-21q-42 -1 -83.5 -3.5t-81.5 -4.5q-4 -2 -7.5 -2.5t-7.5 -0.5q-3 0 -6.5 0.5t-7.5 0.5t-7.5 0.5t-6.5 0.5q-5 3 -7.5 8t-1.5 11q0 8 2 15.5t4 12.5q40 50 77 101t74 103q2 2 3.5 5.5t3.5 5.5q67 95 136.5 187.5t156.5 176.5 v0zM599 273v425l-81 8q-66 -68 -123.5 -140t-110.5 -145q-25 -33 -48.5 -65t-46.5 -64q-8 -10 -15.5 -20.5t-14.5 -20.5l17 -8l382 3q15 -13 20 -30t5 -38q0 -11 -0.5 -23.5t-1.5 -25.5q0 -10 1 -21t4 -22q1 0 2 0.5t2 0.5h2h2h1.5h1.5h0.5h1.5q3 0 5.5 0.5t3.5 3.5l-4 152 h3.5h10.5q6 -1 15 -1h19h13.5h14.5q12 1 24.5 2t22.5 2v19q-7 -1 -13 -1h-13q-13 0 -25.5 1t-25.5 3q-2 0 -4 0.5t-4 0.5q-11 1 -21.5 2t-21.5 2v0zM525 687l45 -9q3 -50 5 -102t2 -103q0 -49 -2 -98.5t-5 -101.5l-367 -5q17 25 34.5 49t33.5 48q60 84 122.5 164.5 t131.5 157.5v0zM480 370l-3 176q-35 -20 -63 -52.5t-52 -66.5q-10 -14 -19 -29t-17 -28q19 -4 39.5 -7.5t41.5 -3.5q6 0 12 0.5t12 0.5q12 1 25 4t24 6v0z"
         id="glyph23" /><glyph
         glyph-name="six"
         unicode="5"
         horiz-adv-x="547"
         d="M32 772q38 5 76 6.5t76 1.5q29 0 57 -0.5t57 -1.5q7 -1 14 -1t15 -1q36 -1 71 -2t70 -1h27.5l26.5 1q1 -3 1.5 -6t0.5 -7q0 -20 -16 -39.5t-36 -33.5q-6 -5 -12 -9t-13 -8q-45 -25 -95.5 -36.5t-103.5 -19.5q-5 -15 -7.5 -32.5t-4.5 -34.5q0 -4 -1 -7.5t-1 -6.5l-2 -18 l-2 -17q14 -5 29 -10.5t31 -11.5q73 -29 136.5 -77t82.5 -130q2 -6 4 -12.5t3 -13.5t1.5 -14t0.5 -13q0 -37 -16 -71.5t-39 -62.5q-44 -46 -101.5 -64.5t-117.5 -18.5h-10h-10q-47 2 -93.5 12.5t-87.5 24.5l-17 23q13 10 29 15.5t32 9.5q2 0 3.5 0.5t2.5 1.5q13 3 26 7 t25 11q8 5 16.5 11t17.5 12q23 15 43 35t27 47q2 8 3.5 17t1.5 17q-1 24 -10.5 46t-27.5 39q-24 29 -56 41t-65 21q-14 3 -28.5 7t-27.5 10q-4 30 -6 60t-2 58q0 24 1 47t2 45q0 22 1 44.5t1 44.5v16l-1 16q0 8 -0.5 16.5t-1.5 16.5v0zM329 707h-196q-3 -31 -5.5 -62.5 t-4.5 -61.5q-1 -26 -1.5 -51t-0.5 -50v-8.5v-8.5v-8.5v-9.5q55 -13 106.5 -31.5t95.5 -64.5q22 -26 35 -59t13 -69q0 -13 -2 -27t-8 -27q-15 -36 -45.5 -57t-64.5 -33q-10 -4 -19.5 -7t-18.5 -6q9 -2 15 -4t12 -3h1.5h1.5q8 1 21.5 7t46.5 22q3 2 6.5 4t6.5 4q28 19 51 47.5 t22 63.5v2v2v2v2v4l1 4v3v4q-1 59 -37 106t-85 74q-2 1 -3.5 2t-3.5 3q-29 18 -59.5 29.5t-71.5 16.5l15 222q10 2 19.5 3.5t20.5 1.5q10 0 19 -1l18 -2q11 -2 22 -3t20 -1q16 0 30.5 5t26.5 21v0z"
         id="glyph24" /><glyph
         glyph-name="seven"
         unicode="6"
         horiz-adv-x="711"
         d="M423 780q67 -11 132 -28t125 -44v-22q-3 -1 -5.5 -2.5t-5.5 -3.5q-1 0 -2.5 -1t-3.5 -2q-51 -27 -101 -56t-93 -69q11 -7 22.5 -15.5t23.5 -17.5q56 -44 103.5 -105t47.5 -138v-4.5v-4.5q0 -3 0.5 -6t0.5 -6v-7v-6q0 -63 -34.5 -116t-88.5 -87q-41 -18 -87 -28.5 t-95 -10.5q-62 0 -121 19.5t-104 60.5q-50 45 -77.5 103.5t-27.5 120.5q0 15 2 30.5t5 31.5q22 136 121 229.5t214 158.5q12 7 24.5 13.5t24.5 12.5v0zM493 685l-24 5q-3 -2 -6 -3.5l-7 -3.5q-63 -34 -126 -82.5t-113 -99.5q-36 -40 -59.5 -92.5t-25.5 -105.5v-5.5v-5.5 q0 -25 5 -48.5t17 -46.5q19 -51 63 -79.5t93 -38.5q14 -3 28 -4.5t28 -2.5q69 -1 121.5 36t78.5 90q5 15 7 30.5t2 31.5q0 42 -14.5 81.5t-38.5 70.5q-37 39 -82 64t-99 24q-25 0 -51 -6t-53 -18q28 37 65 68t77 60q30 22 59.5 42t54.5 39v0zM317 477q5 1 10 1h9 q42 0 78 -18t69 -39q1 -1 2 -1.5t2 -1.5q28 -33 48 -71t19 -80q0 -13 -2.5 -26.5t-7.5 -27.5q-11 -37 -40 -62t-61 -42q-4 -2 -7.5 -4.5t-7.5 -4.5q-15 -3 -30.5 -4.5t-31.5 -1.5q-47 0 -91 16t-75 51q-26 25 -35.5 56t-9.5 65q0 7 0.5 13.5t0.5 12.5q1 13 3.5 27t5.5 26 q12 44 48 69.5t77 38.5q7 2 13.5 4t13.5 4v0zM440 371q-18 20 -40.5 28.5t-49.5 8.5h-4h-3q-2 -1 -4 -1h-4q-30 -3 -54.5 -25t-40.5 -46q-4 -5 -8 -11.5t-7 -11.5q-1 -3 -1 -6v-6q0 -6 1 -11t3 -10q2 -3 3.5 -7t2.5 -8q2 -3 4 -7t3 -9q14 -31 38 -51t59 -20h0.5h1.5h1.5h0.5 q39 5 70.5 31.5t51.5 57.5q5 8 7.5 15.5t2.5 14.5q-1 14 -7 27t-14 25q-3 6 -6.5 11.5t-6.5 10.5v0z"
         id="glyph25" /><glyph
         glyph-name="eight"
         unicode="7"
         horiz-adv-x="703"
         d="M498 775q18 2 40.5 3.5t46.5 1.5h5.5h4.5q20 -1 40 -3t36 -7q-101 -174 -157.5 -369t-85.5 -400q-7 0 -14.5 -0.5t-15.5 -0.5h-14.5h-14.5h-30.5l-31.5 1q-45 1 -90.5 4.5t-87.5 9.5q29 93 70 182t86 176q1 3 3 6.5t3 6.5q26 51 51.5 102t47.5 103q-14 2 -29 2.5t-29 0.5 q-38 0 -75.5 -5t-74.5 -11q-8 -2 -15 -3.5t-14 -3.5q-30 -5 -60.5 -10t-60.5 -8l5 222q19 2 38.5 3t39.5 1q9 1 19 1h20q28 0 55.5 -1t55.5 -2l80 -2l81 -1h18h18l17.5 0.5l18.5 0.5v0zM527 690l-34.5 1q-34.5 1 -86.5 2q-31 1 -66 1.5t-71 0.5q-26 1 -51 1h-49 q-3 -3 -8.5 -3.5t-10.5 -1.5h-1h-1q-9 0 -15.5 -2t-6.5 -10q0 -2 1 -4.5t2 -6.5q45 5 90 7t89 2q24 0 46.5 -0.5t45.5 -2.5q23 -1 46 -3.5t46 -5.5l-8 -18l-7 -18q-53 -129 -103 -260t-84 -267h3.5h3.5q1 -1 3 -1h3q4 0 7.5 1.5t5.5 6.5l97 301q10 30 23.5 59t26.5 57 q7 14 13.5 28.5t12.5 28.5q12 27 22 53.5t16 53.5v0z"
         id="glyph26" /><glyph
         glyph-name="nine"
         unicode="8"
         horiz-adv-x="618"
         d="M81 670q37 50 97.5 78t125.5 32h9.5h9.5q50 0 96.5 -14.5t82.5 -45.5q34 -35 56 -73t22 -86v-8.5l-1 -9.5q0 -46 -20 -84.5t-52 -71.5q40 -29 62 -76t22 -98q-1 -13 -2.5 -26.5t-4.5 -26.5q-13 -40 -44.5 -72.5t-67.5 -54.5q-5 -4 -10.5 -7t-10.5 -7q-29 -6 -62 -11 t-66 -7q-7 -1 -15 -1h-15q-47 0 -91.5 11t-78.5 38q-41 38 -67.5 80t-26.5 93v10l1 9q0 45 21 79.5t49 66.5q-3 5 -5.5 10.5t-5.5 12.5q-13 28 -25.5 58.5t-18.5 61.5l-2 20l-1 19q0 27 9 52.5t30 48.5v0zM495 582q-10 36 -37 59.5t-57 41.5q-5 4 -11 7.5t-11 6.5 q-16 5 -34 8t-37 2h-8h-7q-42 -3 -81.5 -20t-67.5 -51q-11 -25 -19 -50.5t-8 -51.5q0 -10 1.5 -21t4.5 -23q3 -7 7 -14l8 -14q18 -33 45.5 -61.5t62.5 -35.5q-3 -1 -5.5 -2.5t-4.5 -3.5q-7 -3 -14.5 -6.5t-15.5 -7.5q-3 -2 -6.5 -3.5t-8.5 -3.5q-37 -17 -53 -51.5t-19 -71.5 q-1 -3 -1 -5.5v-4.5q1 -6 3 -12l4 -12q10 -33 31 -62t56 -43l12 -4l13 -4q8 -3 15.5 -6t15.5 -5t15.5 -3t14.5 -1t13.5 1.5t13.5 3.5q5 -1 10.5 -1.5t11.5 -0.5q8 0 17 1t17 3q26 5 50.5 19t40.5 37q13 18 20.5 40.5t7.5 46.5q0 5 -0.5 9.5t-0.5 9.5q-1 4 -2 9.5t-2 9.5 q-8 39 -38 64.5t-65 42.5q-4 2 -8.5 4.5t-9.5 4.5l15 6.5q15 6.5 34 18.5q8 6 17 14t16 18q23 26 33.5 57t9.5 66q0 11 -1 22t-3 23v0zM263 342q9 2 18 2h17q42 0 78 -14t64 -36q2 -4 4 -7.5t5 -7.5q11 -18 19.5 -39t8.5 -43q0 -7 -1 -15.5t-4 -16.5q-8 -29 -26.5 -48 t-45.5 -33q-16 -4 -34 -7t-36 -4h-8h-8q-25 0 -48 4t-44 14q-33 14 -51.5 43t-26.5 62q-2 9 -3 17.5t-2 17.5q10 42 46 74t78 37v0zM384 231q-15 15 -33 26.5t-42 10.5h-2h-1h-2h-2q-5 -3 -11 -5.5t-13 -4.5q-2 -1 -4 -1.5t-4 -1.5q-17 -6 -32 -16.5t-15 -33.5q2 -4 3 -9 t1 -10l0.5 -0.5l0.5 -0.5q2 -13 7 -25t21 -18q2 0 4 -0.5t4 -1.5q9 -2 20 -4.5t21 -3.5h9h9q17 0 32.5 5.5t28.5 20.5q6 8 8.5 17.5t2.5 20.5q0 10 -3 19t-8 16v0zM170 631q23 30 56.5 43t69.5 13q33 0 63 -9t55 -26q27 -25 45.5 -53t18.5 -64v-2v-1v-1.5v-1.5 q-6 -44 -30 -82t-67 -62q-16 -7 -32.5 -10t-34.5 -3q-23 0 -44.5 5t-43.5 15q-28 22 -51 49.5t-28 65.5l-2 16l-1 16q0 27 8 48.5t18 43.5v0zM400 535q-13 33 -43 52.5t-63 28.5q-2 0 -4.5 1t-4.5 1q-3 -1 -6 -2.5t-6 -3.5q-1 0 -1.5 -0.5t-1.5 -0.5q-15 -8 -29 -16.5 t-23 -25.5q-2 -6 -3.5 -12t-1.5 -12q0 -4 0.5 -7.5t0.5 -7.5q3 -16 12.5 -32t19.5 -28q6 -3 11 -7.5t11 -9.5q10 -9 22 -17t26 -8q5 0 10 1t9 2q4 3 9 7t10 9q17 15 32 37t14 46v0.5v1.5v2v1v0z"
         id="glyph27" /><glyph
         glyph-name="colon"
         unicode="9"
         horiz-adv-x="697"
         d="M193 752q36 14 74 21t76 7q90 -1 170.5 -42.5t124.5 -126.5q14 -32 21 -65.5t7 -67.5v-4.5v-5.5q-2 -83 -39 -163t-90 -139q-10 -9 -21 -19t-21 -19q-53 -48 -112.5 -88t-130.5 -40h-4.5h-4.5l-212 63q15 11 31 22t32 23q8 5 17 10.5t17 11.5q30 19 59.5 41.5t55.5 49.5 q-10 6 -21.5 14t-21.5 16q-54 40 -101.5 96t-56.5 127q-1 5 -1.5 9.5t-0.5 10.5q-1 5 -1 9.5v9.5q0 79 43 141.5t111 97.5v0zM546 596q-35 50 -83 82t-109 32q-9 0 -18 -0.5t-19 -2.5q-57 -12 -106 -48.5t-75 -93.5q-4 -15 -6 -30.5t-2 -30.5q0 -25 5.5 -49t18.5 -47 q38 -67 106 -100t145 -33q2 2 5 4l6 4q5 3 10 5.5t10 5.5q5 2 10.5 3t9.5 1t7 -1t6 -3q-29 -37 -67 -72t-76 -65q-24 -18 -46.5 -34.5t-44.5 -30.5q41 4 77 29.5t70 56.5q14 13 29.5 26.5t29.5 24.5q51 54 91 122t40 143q0 26 -5.5 51t-18.5 51v0zM243 657q20 13 47 21t55 9 h5h4q31 0 59.5 -8.5t48.5 -26.5q45 -31 63.5 -75.5t20.5 -95.5v-4.5v-5.5q0 -36 -15 -66t-35 -56q-29 -26 -62 -38t-68 -11q-10 0 -21.5 1t-21.5 3q-11 2 -22 5t-22 7q-50 30 -88.5 74t-38.5 106v0.5v1.5v1.5v0.5q2 48 26.5 89.5t64.5 67.5v0zM467 522q-9 36 -39 58t-63 22 q-12 0 -24 -3t-24 -11l-9 -9l-10 -9q-3 -3 -6.5 -6t-7.5 -6q-20 -16 -37.5 -35t-17.5 -46q0 -5 1.5 -11t2.5 -12q7 -19 20.5 -34.5t28.5 -25.5q5 -4 10 -7t9 -5q11 -4 23.5 -6.5t24.5 -2.5q24 0 45.5 8t37.5 23q17 18 28.5 41t11.5 48q0 7 -1 14.5t-4 14.5v0z"
         id="glyph28" /><glyph
         glyph-name="semicolon"
         unicode=":"
         horiz-adv-x="420"
         d="M221 267l181 -142l-166 -194l-205 157l174 179h16v0zM252 94v1.5v1.5v0.5v1.5q0 9 -6.5 16t-15.5 12l-8 4l-7 3l-26 -35l21 -16q3 -5 6 -7t6 -2q4 0 7.5 3t7.5 7v0h1q3 4 6.5 7t7.5 3v0zM184 638q36 -11 66.5 -34t59.5 -49l0.5 -0.5l1.5 -1.5q18 -15 37.5 -31t39.5 -28 q-17 -25 -37.5 -51.5t-43.5 -53.5q-10 -13 -21 -26l-22 -26l-23 -26.5l-23 -26.5q-39 23 -74.5 53t-69.5 61q-14 14 -28.5 27.5t-29.5 27.5q26 38 59 73.5t67 70.5l20.5 20.5l20.5 20.5v0zM236 477q-4 11 -10 16t-12 5h-2h-2q-8 -2 -15.5 -8.5t-13.5 -12.5l-4 -6l-4 -6 l22 -25q3 -1 5.5 -2t4.5 -1q8 0 13.5 7.5t9.5 16.5q2 4 4 8.5t4 7.5v0z"
         id="glyph29" /><glyph
         glyph-name="less"
         unicode=";"
         horiz-adv-x="420"
         d="M137 254q11 -1 22.5 -1.5t22.5 -1.5q5 0 10.5 -0.5t10.5 -0.5q29 -2 56.5 -4t53.5 -2h4h6h4h4q-30 -94 -75 -181.5t-104 -168.5l-152 8q40 86 74 174t63 178v0zM210 170h-16q-7 -23 -16.5 -46t-19.5 -45q-12 -28 -24 -54.5t-18 -52.5q31 35 50.5 76t33.5 83q3 10 5.5 20 t4.5 19v0zM184 638q36 -11 66.5 -34t59.5 -49l0.5 -0.5l1.5 -1.5q18 -15 37.5 -31t39.5 -28q-17 -25 -37.5 -51.5t-43.5 -53.5q-10 -13 -21 -26l-22 -26l-23 -26.5l-23 -26.5q-39 23 -74.5 53t-69.5 61q-14 14 -28.5 27.5t-29.5 27.5q26 38 59 73.5t67 70.5l20.5 20.5 l20.5 20.5v0zM236 477q-4 11 -10 16t-12 5h-2h-2q-8 -2 -15.5 -8.5t-13.5 -12.5l-4 -6l-4 -6l22 -25q3 -1 5.5 -2t4.5 -1q8 0 13.5 7.5t9.5 16.5q2 4 4 8.5t4 7.5v0z"
         id="glyph30" /><glyph
         glyph-name="equal"
         unicode="&lt;"
         id="glyph31" /><glyph
         glyph-name="greater"
         unicode="="
         horiz-adv-x="491"
         d="M464 362l7 -13q-8 -44 -17.5 -87.5t-19.5 -87.5l-12 -9l-402 -5l-7 14l84 191l367 -3v0zM376 269q-13 8 -40 11t-60 3h-9h-9q-11 0 -22 -0.5t-21 -0.5q-14 0 -27 -0.5t-23 -0.5h-5.5h-4.5q-5 -1 -9.5 -5.5t-4.5 -11.5v-0.5v-1.5v-1.5v-0.5q16 2 40 2t51 -1h11h11h10.5 h10.5q31 0 57.5 1.5t43.5 6.5v0zM464 621l7 -15q-8 -44 -17.5 -87.5t-19.5 -86.5l-12 -10l-402 -4l-7 14l84 191l367 -2v0zM376 526q-13 8 -42.5 11.5t-63.5 3.5h-4h-4q-12 0 -24.5 -0.5t-24.5 -0.5q-13 0 -25.5 -0.5t-21.5 -0.5h-6h-5q-5 -1 -10 -6t-4 -12v-1.5v-1.5 q15 1 38 1t48 -1h15.5h15.5h11h11q30 0 55 1.5t41 6.5v0z"
         id="glyph32" /><glyph
         glyph-name="question"
         unicode="&gt;"
         id="glyph33" /><glyph
         glyph-name="at"
         unicode="?"
         horiz-adv-x="390"
         d="M197 780q45 -15 78.5 -51t59.5 -75q1 -1 1.5 -2.5t1.5 -2.5q4 -8 6 -16t3 -17q0 -4 0.5 -8t0.5 -8q0 -28 -9.5 -53t-22.5 -49q-3 -7 -6.5 -15t-6.5 -15q-8 -17 -13 -34.5t-5 -35.5q0 -19 8.5 -39t28.5 -42q6 -10 12 -17t13 -13q5 -5 11.5 -11t12.5 -13l-97 -80 q8 -12 20.5 -22.5t26.5 -21.5q2 -1 4.5 -2.5t4.5 -3.5q18 -14 32.5 -29t14.5 -35v-2.5v-4.5q-18 -6 -35 -21t-33 -33l-3 -3l-2 -3q-19 -19 -38.5 -35t-43.5 -16q-10 0 -21.5 4t-23.5 12q-16 12 -33.5 24.5t-34.5 24.5q-11 9 -23 18l-24 18l97 115q-10 13 -24.5 23.5 t-30.5 19.5l-3 1.5l-3 1.5q-25 14 -46.5 32.5t-25.5 52.5q-6 12 -9 24t-3 23q0 26 11 49t23 45q3 4 5.5 9.5t4.5 9.5q9 18 16.5 36t7.5 37q0 16 -6.5 34t-24.5 36l-49 53l195 126v0zM242 87q-3 5 -7 6.5t-9 1.5h-2l-1 -1q-7 -1 -13 -6t-8 -12q5 -7 11 -11t13 -3h1.5h1.5h0.5 h1.5q5 5 8 11t3 14v0zM220 601q-1 3 -1.5 5.5t-2.5 4.5q-6 14 -18.5 26t-27.5 12q-9 -10 -4.5 -17.5t12.5 -15.5l1 -0.5q1 -0.5 1 -1.5q6 -5 11 -10t6 -11v-2.5v-2.5v-3v-3q0 -32 -9 -62.5t-20 -59.5q-1 -2 -1.5 -4t-1.5 -3q-10 -29 -19.5 -57t-11.5 -59q13 -23 34 -40.5 t45 -21.5l5 13q-29 19 -40.5 39t-11.5 42q0 23 9 46.5t22 48.5q11 25 20 50.5t9 50.5q0 5 -0.5 9.5t-0.5 9.5q-1 4 -2 8.5t-3 8.5v0z"
         id="glyph34" /><glyph
         glyph-name="A"
         unicode="@"
         id="glyph35" /><glyph
         glyph-name="B"
         unicode="A"
         horiz-adv-x="917"
         d="M591 777q7 -4 49.5 -110.5t91.5 -239.5q4 -9 7.5 -19t6.5 -19q49 -133 88 -247t42 -137h-251q-8 9 -15.5 21t-12.5 23q-10 25 -14.5 45l-4.5 20q-22 -4 -49 -5t-56 -1h-4h-4q-16 0 -32.5 0.5t-32.5 0.5t-32 0.5t-28 0.5h-8h-8q-4 -7 -8 -21t-9 -29q-6 -23 -13.5 -40.5 t-17.5 -15.5l-225 3q-1 1 -1.5 3t-0.5 5q0 32 49.5 159.5t110.5 274.5q37 92 72 179t58 150q17 -1 44.5 -2t57.5 -1h8.5h8.5q19 0 38 0.5t35 0.5q20 0 35 0.5t21 0.5h3h1v0zM509 674q-11 4 -21.5 4.5t-20.5 0.5q-8 0 -17 0.5t-19 4.5q-4 -9 -8 -18.5t-8 -17.5 q-59 -136 -117 -272.5t-109 -274.5h2.5h2.5q4 0 5.5 -1.5t2.5 -3.5q0 -1 0.5 -2t0.5 -2t0 1t3 9q2 6 8 19t12 27q1 3 2 5.5t2 5.5q7 13 13 24t10 15l418 3l7 -11.5q7 -11.5 15 -27.5q4 -8 8.5 -16.5t7.5 -16.5l4 -14l3 -14q5 -4 10.5 -3t11.5 10q-37 98 -76.5 196t-80.5 196 q-18 44 -36.5 87.5t-35.5 86.5v0zM489 656l175 -435h-394q12 35 30.5 81.5t38.5 94.5q2 5 4.5 11t4.5 12q36 87 66 156l30 69q3 8 9 10t12 1h3.5h2.5h6h6h3.5h2.5v0zM532 285q-2 15 -6.5 31t-9.5 33q-9 26 -22.5 51t-30.5 44q-5 -11 -11 -21.5t-12 -22.5q-16 -29 -29 -59 t-13 -61q6 1 12 1.5t11 0.5q9 0 17.5 -1t17.5 -2q4 -1 8.5 -2t8.5 -1t8 -0.5t8 -0.5q10 0 21 2.5t22 7.5v0z"
         id="glyph36" /><glyph
         glyph-name="C"
         unicode="B"
         horiz-adv-x="724"
         d="M51 777q22 -4 45.5 -6t46.5 -2q27 0 54.5 1.5t56.5 4.5q28 2 55.5 3.5t54.5 1.5q69 0 128.5 -19.5t100.5 -81.5q3 -4 6.5 -7.5t6.5 -7.5q5 -5 10 -10.5t10 -10.5q22 -23 40 -47.5t17 -52.5q0 -10 -2.5 -21.5t-9.5 -22.5l-96 -129q9 -15 22 -30t27 -30q1 -1 1.5 -2t1.5 -2 q25 -26 45 -53t20 -59q0 -10 -2.5 -21.5t-7.5 -22.5q-41 -94 -113 -123.5t-158 -29.5q-35 0 -70.5 2.5t-71.5 5.5q-37 3 -72 6t-70 3q-20 0 -39.5 -1.5t-39.5 -4.5l-15 23l10 743l8 3v0zM451 679q-43 10 -86.5 16t-88.5 6q-31 0 -62 -3.5t-62 -11.5v-583q22 0 43.5 -1 t43.5 -1q23 -1 44 -2t43 -1q41 0 79.5 5t75.5 18q27 8 44.5 31t21.5 49q0 3 0.5 5.5t0.5 5.5q-5 39 -31.5 74.5t-56.5 63.5q-12 11 -24.5 21.5t-22.5 18.5q43 13 77.5 44.5t57.5 71.5q2 7 2.5 13t0.5 12q0 31 -18.5 54.5t-39.5 46.5q-2 1 -3.5 2.5l-2.5 2.5 q-10 10 -19.5 20.5t-16.5 21.5v0zM178 380h19.5h20.5q18 0 36.5 -0.5t38.5 -1.5q66 -5 126 -28.5t89 -93.5q5 -10 8.5 -22.5t3.5 -25.5q0 -8 -2.5 -16.5t-9.5 -15.5q-35 -33 -79 -44t-92 -11q-9 0 -18.5 0.5t-18.5 0.5q-16 1 -32.5 2.5t-33.5 2.5q-15 1 -30.5 2.5t-29.5 2.5 l4 248v0zM413 250q-17 28 -48.5 45.5t-69.5 17.5h-3h-3q-2 -1 -3.5 -1h-3.5q-4 -12 -7 -27.5t-3 -31.5q0 -15 3 -30t7 -28q5 -1 9 -1.5t8 -0.5q11 0 21.5 2.5t20.5 5.5q2 1 3.5 1.5t3.5 0.5q8 3 17.5 4.5t18.5 1.5h3.5h2.5q2 1 5 3l6 4q6 4 12 9.5t5 12.5q0 3 -1 6t-4 6v0z M183 674l20 -2l20 -1q14 0 29 1t31 2l30 2l29 1q35 0 66 -9.5t54 -38.5q4 -5 8.5 -10t9.5 -11q16 -17 29.5 -37.5t13.5 -42.5q0 -3 -0.5 -5.5t-0.5 -5.5q-1 -3 -2 -5.5t-2 -5.5q-16 -31 -41.5 -57t-58.5 -41q-20 -2 -41 -4t-41 -2q-10 -1 -20.5 -1h-20.5q-29 0 -59 1.5 t-62 5.5l9 266v0zM395 579q-18 12 -39.5 18t-45.5 6q-5 0 -11 -0.5t-12 -1.5q-1 -3 -2 -6.5t-2 -7.5q-2 -8 -4.5 -17.5t-4.5 -18.5q-1 -7 -1.5 -14t-0.5 -13q0 -13 4 -25t11 -23q9 -1 18 -1.5t19 0.5q27 0 50 7.5t39 33.5q1 5 1 10.5v10.5q0 12 -3.5 22.5t-15.5 19.5v0z"
         id="glyph37" /><glyph
         glyph-name="D"
         unicode="C"
         horiz-adv-x="593"
         d="M434 778l132 -168q-7 -15 -22 -20t-32 -8q-1 0 -2 -0.5t-3 -0.5q-10 -2 -21 -6t-20 -10q-9 -4 -18.5 -8t-18.5 -9q-39 -20 -75 -49.5t-56 -70.5q-2 -8 -3.5 -16t-1.5 -16q0 -29 14.5 -53.5t30.5 -46.5q1 0 1.5 -1t1.5 -2q41 -44 91 -68t103 -41q8 -2 15.5 -4.5t15.5 -4.5 q-19 -41 -46 -80t-56 -76q-4 -5 -7.5 -9.5t-7.5 -9.5h-50q-12 5 -25 10t-25 12q-103 46 -195.5 122t-124.5 189q-1 8 -1.5 16.5t-0.5 17.5q1 96 50 182.5t132 143.5q9 4 18.5 9.5t18.5 10.5q5 3 10.5 6.5t10.5 6.5q34 20 70 37t76 17q5 0 10.5 -0.5t10.5 -1.5v0zM412 666 q-55 -1 -103.5 -37.5t-91.5 -78.5q-7 -8 -15 -16.5t-16 -15.5q-17 -27 -29.5 -58.5t-14.5 -64.5v-6.5v-6.5q0 -16 3 -33t11 -34q44 -74 109 -130.5t144 -76.5l3 17q-9 8 -20.5 12.5t-24.5 4.5q-72 45 -132.5 104.5t-65.5 149.5q8 71 56 122.5t105 91.5q22 15 42.5 29 t39.5 27v0z"
         id="glyph38" /><glyph
         glyph-name="E"
         unicode="D"
         horiz-adv-x="783"
         d="M46 780q30 -1 59.5 -1h59.5h7h7h22.5h22.5q111 0 212.5 -19.5t173.5 -103.5q54 -56 96 -123.5t42 -146.5q0 -17 -3 -35t-8 -37q-26 -105 -102.5 -181t-173.5 -121q-39 -7 -78 -9.5t-78 -2.5t-78 2t-79 5q-28 1 -56.5 2.5t-56.5 2.5q1 70 2.5 140t2.5 142l2 78l1 79 q2 83 3 165t0 164v0zM593 519q-44 59 -100.5 104.5t-122.5 60.5q-18 0 -36.5 1.5t-35.5 3.5q-8 0 -17 1t-17 2q-9 0 -17.5 0.5t-17.5 0.5q-16 0 -33.5 -2t-35.5 -7l-5 -570q29 -4 58 -7.5t57 -3.5q91 0 172.5 31.5t135.5 106.5q24 30 36 66t14 74v5v6q0 34 -9 67t-26 60v0z M365 656q54 -19 103 -51.5t87 -80.5q18 -32 31.5 -67t13.5 -74v-14l-2 -14q-13 -67 -57 -116t-102 -85q-35 -15 -73 -21t-78 -6q-20 0 -40.5 1t-39.5 2q-6 1 -13 1.5t-13 0.5v530q13 5 27.5 7t31.5 2q11 0 22.5 -1t24.5 -2q10 -1 19.5 -2.5t20.5 -3.5q9 -1 18 -3t19 -3v0z M445 497l-67 50q-7 1 -15 3.5t-15 5.5q-1 1 -1.5 1h-0.5q-8 4 -15.5 6.5t-16.5 2.5q-6 -1 -11.5 -2.5t-10.5 -6.5l-5 -294v-6.5v-6.5q1 -10 5.5 -18t16.5 -4q60 0 105.5 41t68.5 90q3 10 4.5 19.5t1.5 18.5q0 28 -12 53t-32 47v0z"
         id="glyph39" /><glyph
         glyph-name="F"
         unicode="E"
         horiz-adv-x="643"
         d="M35 763q65 6 128.5 7t128.5 0h30h29q53 0 106 2t106 8q17 -56 31.5 -115.5t18.5 -119.5q-72 11 -145 17.5t-150 6.5h-26l-28 -1q-8 -6 -11 -13.5t-3 -15.5q0 -5 1 -11l2 -12q0 -5 1 -10.5t1 -11.5v-4v-4q36 -2 74.5 -4t76.5 -2q31 0 60.5 2t57.5 7q2 -19 9 -38l14 -38 q2 -3 3.5 -7.5t2.5 -8.5q8 -18 13 -37.5t5 -40.5q0 -7 -1 -15t-3 -16h-303q-5 -9 -7.5 -21t-2.5 -25q0 -10 1 -19.5t2 -18.5q1 -3 1.5 -6t0.5 -7q33 -4 64 -6t63 -2h18h18q24 1 47 2l46 2l45 2l44 2q2 -4 3 -7.5t2 -6.5q0 -4 0.5 -7.5t0.5 -7.5q0 -13 -4 -27t-9 -27 q0 -2 -0.5 -4t-1.5 -3q-4 -12 -8 -23.5t-6 -24.5l-18 -53h-528q-3 104 -4 204t-1 199q0 88 1.5 177.5t3.5 182.5v0zM494 660q3 2 4 4t1 4t-1.5 4t-3.5 5q-2 1 -3.5 3t-2.5 4h-72.5l-71.5 1h-106.5h-105.5q1 -58 1.5 -123.5t0.5 -132.5v-11.5v-10.5q1 -91 2.5 -179t6.5 -157 q27 -1 53.5 -2t54.5 -1h20.5l20.5 1q36 1 71.5 2t70.5 3q15 0 30 0.5t30 1.5q2 6 -1 11t-7 8q0 1 -1 2l-2 2q-28 -1 -55 -2t-53 -2h-27h-27q-38 0 -76 1.5t-77 2.5q-2 41 -3.5 80t-1.5 77q0 30 1.5 59t3.5 58q32 2 62 3t60 1q22 0 43.5 -0.5t44.5 -0.5q22 0 45 -0.5t48 -0.5 q2 6 -0.5 10t-6.5 7q0 1 -1 1.5t-2 1.5h-293l-1.5 18q-1.5 18 -3.5 46q-2 17 -3 37.5t-2 42.5q-1 11 -1 22v23q0 24 1.5 43.5t4.5 32.5h331v0z"
         id="glyph40" /><glyph
         glyph-name="G"
         unicode="F"
         horiz-adv-x="665"
         d="M60 780q71 -6 150 -7t159 -1h2.5h2.5h27h27q47 0 93.5 -1t90.5 -3l24 -241q-16 3 -32.5 6t-33.5 6q-47 8 -96.5 15t-100.5 7q-19 0 -38.5 -1t-38.5 -4q-5 -10 -7.5 -21.5t-2.5 -23.5q0 -7 1 -15t1 -15q1 -10 2 -18.5t1 -17.5q30 -9 63.5 -11.5t69.5 -2.5h22.5l22.5 1 h11.5l12.5 1q16 0 33 0.5t33 0.5q6 -1 12.5 -1h12.5q4 -24 7 -47.5t4 -46.5l2 -22l1 -22q2 -18 3 -36.5t3 -37.5l-15 -10q-38 9 -79.5 13t-83.5 5h-21h-21h-38l-38 -1l-7 -13l13 -211q-18 -1 -37.5 -2t-39.5 -1q-13 0 -27 0.5t-29 0.5q-35 2 -68.5 5.5t-64.5 7.5l-15 30 q5 100 8 188t3 171q0 86 -3 175t-10 189l29 12v0zM521 652v17q-41 -1 -82 -1h-82q-50 0 -100 -0.5t-99 -1.5q-1 -59 -1.5 -124.5t-0.5 -130.5v-37.5v-36.5v-117.5l-1 -109.5q-1 -4 1 -6t6 -2h2.5h2.5h1.5l0.5 1h3.5h2.5q2 16 3 33.5t2 34.5v11.5v12.5q0 24 -1 46t-2 42 q-1 7 -1.5 13t-0.5 12l16 18l302 -5v15q-33 4 -68 6t-70 3q-17 1 -35 1.5t-35 0.5q-28 0 -54 1t-51 2v297l341 5v0z"
         id="glyph41" /><glyph
         glyph-name="H"
         unicode="G"
         horiz-adv-x="745"
         d="M620 666v-16q-99 -36 -184.5 -106t-149.5 -156q-3 -6 -4.5 -12.5t-1.5 -14.5q0 -5 1 -11t3 -11q2 -10 6 -20.5t8 -19.5q1 -3 2.5 -5.5t2.5 -4.5q28 -38 65.5 -61t81.5 -23h2h2h1h2l14 15l-2 242q11 2 22.5 4t22.5 3t22.5 1.5t22.5 0.5q36 0 70.5 -5.5t66.5 -16.5l15 -17 q-4 -33 -6.5 -64.5t-2.5 -63.5v-21v-21v-14v-14q0 -17 0.5 -34t0.5 -34q1 -32 1.5 -65t0.5 -68q-6 1 -13 1h-14q-36 0 -75.5 -5t-79.5 -12q-8 -2 -15.5 -3t-15.5 -2q-33 -5 -65 -8.5t-62 -3.5q-69 0 -128.5 26t-98.5 104q-39 49 -71.5 103.5t-32.5 115.5v0.5v1.5v1.5v0.5 q17 142 120 257t230 170l236 -114v0zM418 653q1 2 1.5 4t-0.5 3q0 6 -4.5 9t-11.5 3h-0.5h-1.5h-1.5h-1.5q-1 -1 -1.5 -1h-1.5q-89 -59 -159.5 -134.5t-100.5 -178.5q11 -47 33.5 -89.5t58.5 -77.5q33 -55 85 -73.5t108 -17.5h13.5l13.5 1q22 1 43.5 3t43.5 6q18 2 35 4 t33 3l2 269l-21 -1l1 -241q-26 -13 -56 -16.5t-61 -3.5q-10 0 -21 0.5t-22 0.5q-10 0 -20.5 0.5t-19.5 0.5h-14.5l-14.5 -1q-66 37 -123 98.5t-68 135.5q35 94 101.5 167t152.5 127v0z"
         id="glyph42" /><glyph
         glyph-name="I"
         unicode="H"
         horiz-adv-x="835"
         d="M292 777l25 -261q17 -4 35.5 -6.5t36.5 -2.5q19 0 39.5 2t39.5 4h6l5 1q17 1 34.5 2.5t34.5 1.5l9 259l241 -3l-4 -768q-25 -2 -50.5 -3.5t-51.5 -1.5q-11 -1 -21.5 -1h-20.5q-32 0 -62 2t-59 7q5 42 9.5 84t4.5 86q0 19 -1 39t-3 40q-28 5 -57.5 7.5t-59.5 3.5 q-12 1 -24 1h-24h-27l-28 -1l-12 -13l-21 -254l-226 3q-2 63 -2.5 125.5t-0.5 123.5q-1 19 -1 39.5v40.5q0 55 -1 110t-3 109t-5 109t-9 110l10 8l244 -3v0zM196 679l-26 2q2 -70 3 -139t1 -139q0 -75 -1 -148t-3 -145q2 -1 4 -2.5t5 -1.5q2 -1 4 -1h4h3l4 1h1.5h0.5 q1 30 1 57.5v54.5v8.5v9.5l2 70l4 75l455 -2q1 -32 1 -61.5t-1 -58.5v-29.5v-29.5v-15v-16v-11.5v-12.5q0 -11 0.5 -22.5t0.5 -24.5q1 0 2.5 -0.5t2.5 -0.5h1h2h2h2q3 1 6.5 2.5t5.5 3.5q1 34 1.5 67.5t0.5 67.5q1 25 1.5 48.5t0.5 47.5q1 44 1.5 87.5t0.5 86.5 q0 13 -0.5 27t-0.5 27q0 27 -0.5 54t-1.5 54h-23v-267l-440 1l-20 14q-1 29 -1 54.5v49.5v16.5v16.5q0 30 -1 59.5t-5 64.5v0z"
         id="glyph43" /><glyph
         glyph-name="J"
         unicode="I"
         horiz-adv-x="366"
         d="M41 769q14 1 29 2t29 2q2 0 3.5 0.5t3.5 0.5q32 2 65 4t67 2q20 0 40 -1t41 -3q0 -58 -2 -118t-3 -120q-1 -23 -1.5 -45t-1.5 -44q-1 -45 -2 -90.5t-1 -90.5q0 -66 2.5 -129t10.5 -124q-18 -1 -38 -3l-40 -4q-12 -2 -25 -3t-25 -2q-14 -1 -29.5 -2t-29.5 -1 q-23 0 -45 2.5t-43 9.5q5 101 9 193.5t4 183.5v20v20q0 81 -4 164.5t-14 175.5v0zM202 634q1 3 1.5 6.5t0.5 7.5v1.5v1.5q-1 10 -5.5 18.5t-15.5 8.5q-2 0 -5 -1t-7 -3v-563h24l7 523v0z"
         id="glyph44" /><glyph
         glyph-name="K"
         unicode="J"
         horiz-adv-x="579"
         d="M547 780q3 -69 4.5 -130.5t1.5 -121.5v-26.5v-26.5q0 -76 -4 -154t-11 -167q-54 -77 -134.5 -115.5t-171.5 -38.5q-29 0 -57 3.5t-56 10.5l-35 11q-10 58 -24.5 112t-32.5 108q8 4 15.5 5t14.5 1q11 0 23 -2l24 -4q10 -2 20.5 -4t21.5 -2h6l5 1q2 0 4.5 0.5t5.5 0.5 q35 7 66 18t52 43q4 24 5.5 45.5t1.5 42.5q0 37 -3.5 72.5t-8.5 71.5q-1 8 -2.5 16.5t-2.5 17.5q-7 44 -12 89.5t-5 93.5v6.5v6.5v6.5v6.5l289 3v0zM430 685l-33 -6l-2 -46l-1 -46q0 -46 1.5 -90.5t4.5 -89.5q2 -44 4 -88.5t2 -87.5q-41 -46 -94.5 -69t-110.5 -23h-12.5 l-12.5 1q-7 0 -13 1l-12 2v-22q9 -10 23 -14t31 -4q7 0 13.5 0.5t13.5 0.5q6 0 12.5 0.5t11.5 0.5h4.5h3.5q9 4 18.5 7.5t19.5 7.5q5 1 11 3t13 4q40 14 74.5 35.5t44.5 67.5l-15 455v0z"
         id="glyph45" /><glyph
         glyph-name="L"
         unicode="K"
         horiz-adv-x="803"
         d="M762 689v-22q-24 -26 -46.5 -50.5t-44.5 -48.5q-16 -18 -33 -35l-34 -34q-32 -32 -64.5 -65t-67.5 -66v-13l295 -242v-18l-212 -95l-23 5q-40 51 -89 97t-100 84q-14 11 -28.5 21t-28.5 19q-4 -27 -7 -54.5t-5 -54.5q-1 -18 -1 -37v-37v-14v-15q-19 -5 -37.5 -7t-36.5 -2 q-9 0 -18 0.5t-17 0.5q-5 1 -11 1.5t-11 0.5q-16 1 -33 2t-34 1h-8.5h-8.5l-8 -0.5l-8 -0.5q-4 45 -4.5 95.5t0.5 101.5v4v4v26.5v26.5q0 6 -0.5 13t-0.5 14v13.5v13.5q-1 38 -0.5 78t0.5 81q0 18 0.5 37t0.5 37v12.5v14.5q0 48 -1.5 95.5t-6.5 92.5h254q0 -4 0.5 -8t0.5 -7 v-8.5v-8.5q0 -16 -1 -32l-2 -32q-2 -16 -3 -32t-1 -32q0 -10 1 -20.5t2 -21.5q2 -11 4.5 -21t6.5 -22q71 50 124.5 113t103.5 132q2 3 3.5 5.5t3.5 4.5l235 -91v0zM174 689h-27q-1 -54 -2 -111t-1 -114q1 -89 2.5 -182t4.5 -187q4 2 7 3t6 1q2 0 3.5 -0.5t2.5 -1.5l3 -1.5 l1 -0.5v27.5v33.5q0 12 0.5 24.5t0.5 24.5q1 29 2.5 55.5t4.5 46.5l15 9.5q15 9.5 37 19.5q7 4 16 8t18 7q2 1 4.5 2t6.5 2q11 -9 22 -17.5t23 -18.5q63 -49 123.5 -100.5t115.5 -110.5l33 -3q-30 41 -69 76.5t-81 70.5q-4 2 -7 5t-7 6q-33 27 -65.5 55t-60.5 60 q16 13 33.5 26.5t34.5 25.5q2 2 4 3.5t4 3.5q62 47 121.5 98.5t102.5 118.5l-14 9q-14 -14 -28.5 -29.5t-27.5 -28.5q-9 -10 -19 -20l-20 -20q-20 -19 -41.5 -39t-45.5 -41q-54 -45 -111.5 -86t-121.5 -60q-1 20 -2 43.5t-1 45.5q0 17 0.5 35.5t0.5 37.5v8.5l1 9.5 q0 23 0.5 45.5t0.5 43.5q0 22 -0.5 42.5t-2.5 38.5v0z"
         id="glyph46" /><glyph
         glyph-name="M"
         unicode="L"
         horiz-adv-x="584"
         d="M302 770v-550q18 -5 36.5 -7t37.5 -2q24 0 47 2.5t47 6.5q23 3 45 5.5t44 2.5q-3 -17 -8 -34t-12 -34q-5 -13 -11.5 -27t-11.5 -29q-11 -25 -21 -49.5t-17 -51.5l-444 -3l-7 17q9 68 13 139.5t5 143.5v20.5v20.5q0 113 -5.5 222t-12.5 207l12 10l263 -10v0zM185 672h-28 l-2 -569l251 -6q2 0 4 0.5t5 1.5q4 3 8 6.5t6 7.5q1 2 1 4t-1 4q-7 1 -14 1h-16q-14 0 -29.5 -0.5t-30.5 -1.5q-8 0 -16 -0.5t-16 -0.5q-8 -1 -15.5 -1h-16.5q-23 0 -43 2t-39 6q-1 29 -2.5 58.5t-1.5 60.5t0.5 62t1.5 63v38l2 38v26v26q0 45 -2 88.5t-6 85.5v0z"
         id="glyph47" /><glyph
         glyph-name="N"
         unicode="M"
         horiz-adv-x="1083"
         d="M640 779q6 -1 13 -2t15 -1t17 0.5t18 1.5q8 1 17.5 1.5t17.5 0.5q22 0 39.5 -6t24.5 -26q22 -94 52.5 -184.5t61.5 -179.5q2 -5 4 -9.5t4 -9.5q32 -87 61 -175t49 -180l-18 -8h-29l-31 -1h-23.5h-24.5q-35 0 -68.5 1t-63.5 5q-12 30 -17.5 61.5t-9.5 63.5q-1 2 -1 4v4 q-5 36 -13 71.5t-24 68.5q-14 -28 -26.5 -57t-22.5 -58q-3 -8 -6.5 -16t-6.5 -16q-12 -34 -25 -66.5t-29 -64.5q-3 1 -7.5 1.5t-8.5 0.5h-4.5h-4.5q-9 0 -18 -0.5t-18 -1.5t-18.5 -1.5t-18.5 -0.5q-28 0 -48 11.5t-19 45.5v4v5q-10 18 -18 38.5t-14 41.5q-1 4 -2.5 8t-2.5 7 q-9 30 -19 57t-27 46q-16 -62 -30.5 -126t-21.5 -131q-31 -3 -62 -4.5t-63 -1.5q-31 0 -61 1.5t-60 4.5q14 87 35 173t43 171l4 16l4 16q25 93 47.5 187t38.5 190l12 14l157 -5q17 -55 36 -110t40 -109q5 -15 11 -31t11 -32q4 -12 9 -23.5t9 -23.5l16 6q15 37 27.5 74.5 t24.5 75.5q1 4 3 8t3 9q13 42 27.5 83.5t32.5 82.5v0zM528 177l-39.5 91q-39.5 91 -87.5 201q-23 52 -44.5 102.5t-39.5 90.5q-18 -72 -37 -143.5t-38 -141.5q-19 -72 -38.5 -143t-37.5 -142h28q9 40 19 78.5t21 77.5q2 8 5 16.5t5 18.5q18 69 35 137t28 140l18 33 q16 -40 34 -80l36 -80q34 -77 67.5 -153.5t59.5 -156.5l13 -3q43 109 79.5 220.5t71.5 223.5l14 24q7 -25 33 -96.5t54 -152.5q30 -83 56 -154.5t33 -91.5l2 -0.5q2 -0.5 5 -1.5q1 0 3 -0.5t4 -0.5h4h4q5 0 6.5 1.5t-3.5 5.5q-10 17 -45 113t-75 209l-2 6l-2 6 q-22 60 -42 118.5t-37 105.5l-170 -478v0z"
         id="glyph48" /><glyph
         glyph-name="O"
         unicode="N"
         horiz-adv-x="827"
         d="M38 777q14 2 28.5 2.5t27.5 0.5q22 0 43 -1.5t42 -2.5q14 -1 28.5 -2t29.5 -2q33 -55 76.5 -106.5t90.5 -100.5q28 -29 54.5 -57.5t51.5 -55.5l8 -10l8 -10h14q5 27 7 53.5t2 53.5t-1.5 52.5t-2.5 52.5q-2 27 -3.5 53.5t-1.5 52.5q20 3 40 5.5t41 4.5q40 6 80 11t80 9 l7 -17q-7 -89 -10 -186t-3 -195t2 -194.5t4 -181.5q-23 -3 -48.5 -4.5t-52.5 -1.5q-26 0 -52 1.5t-50 4.5q-18 23 -36 45.5t-35 44.5q-5 6 -10 13t-10 13q-46 60 -93.5 117t-105.5 102l-6 -335h-232q-2 6 -3 13t-1 14q0 8 1 16t2 17v2.5v2.5q1 7 1.5 14t0.5 14v3.5v3.5 l-0.5 4l-0.5 4q1 74 0.5 150t-1.5 152q-1 92 -4 183t-7 178v0zM645 160q-48 45 -93.5 94.5t-90.5 101.5q-18 20 -36 41.5t-37 41.5q-54 62 -112 124.5t-122 118.5q-1 -23 -1 -46v-46q0 -43 1 -86.5t2 -87.5v-19l1 -20l2 -106l1 -104v-37.5l-1 -37.5h3.5h2.5q2 -1 3.5 -1h2.5 q3 0 6 1t4 4v517q52 -56 103 -108.5t99 -105.5q49 -51 96 -103t94 -108q19 -24 39.5 -47.5t40.5 -48.5h20v585h-0.5h-1.5h-1.5h-0.5q-7 0 -12 -3.5t-7 -8.5l-5 -505v0z"
         id="glyph49" /><glyph
         glyph-name="P"
         unicode="O"
         horiz-adv-x="888"
         d="M266 757q40 9 83 15t87 8h12.5h12.5q97 0 186 -35.5t143 -134.5q33 -38 45.5 -84.5t12.5 -95.5q0 -13 -0.5 -26t-2.5 -26q-4 -43 -14 -85.5t-20 -79.5q-1 -3 -1.5 -5.5t-1.5 -4.5q-44 -73 -114.5 -133.5t-156.5 -69.5q-115 2 -219.5 23t-174.5 115q-53 50 -76.5 116.5 t-25.5 135.5v5.5v4.5q0 27 2.5 52.5t7.5 50.5q25 83 79.5 150t135.5 104v0zM692 572q-42 44 -89 71.5t-101 39.5q-16 3 -32 4.5t-33 1.5q-47 0 -91 -15t-80 -45q-57 -44 -87.5 -109t-30.5 -138q0 -8 1 -17t2 -17q0 -9 1.5 -17.5t3.5 -17.5q28 -87 99.5 -143t160.5 -68 q8 -1 16 -1h15q94 0 171.5 48t119.5 133q7 26 11 52t4 54q0 51 -14.5 99t-46.5 85v0zM498 657q45 -6 85 -31.5t71 -56.5q3 -2 6 -4.5t5 -4.5q29 -38 44.5 -85t15.5 -96q0 -8 -1 -17t-2 -17q-1 -9 -2.5 -18t-3.5 -17q-22 -71 -83 -117.5t-130 -59.5q-5 -1 -11 -2l-12 -2h-2.5 h-2.5h-3h-3q-7 0 -15 0.5t-15 0.5q-72 6 -136.5 42t-100.5 104q-13 24 -19 51t-6 56v8.5l1 9.5q2 38 14.5 75t32.5 66q45 55 99.5 88t120.5 33h9l9 -1q8 0 16.5 -1.5t18.5 -3.5v0zM612 467q-23 45 -67 71.5t-93 29.5h-5h-6q-32 0 -61 -10.5t-52 -32.5q-27 -26 -42.5 -58.5 t-15.5 -69.5q0 -10 1.5 -21.5t4.5 -23.5q26 -48 71 -89t98 -45q42 2 78 21.5t67 48.5q20 19 29 45.5t9 55.5q0 20 -3.5 40.5t-12.5 37.5v0z"
         id="glyph50" /><glyph
         glyph-name="Q"
         unicode="P"
         horiz-adv-x="633"
         d="M42 780q34 -5 71 -6.5t74 -2.5h9h10h7.5h7.5q106 -2 202.5 -26t144.5 -133q18 -24 27 -53.5t10 -60.5v-5v-6q0 -20 -2.5 -40t-7.5 -38q-17 -55 -63.5 -93t-98.5 -57q-1 0 -2 -0.5t-2 -0.5l-139 -12q-7 -26 -10.5 -51.5t-3.5 -52.5q0 -20 2 -40.5t3 -41.5q1 -15 2 -30.5 t2 -29.5l-255 12q3 63 4.5 146t3.5 169q2 170 3 311.5l1 141.5v0zM471 600q-39 56 -99 71.5t-124 15.5q-13 1 -26 0.5t-25 -0.5h-17.5h-17.5h-4h-4h-4.5h-4.5l-4 -589q-1 -1 -1 -2v-2l2 -2l5 -1h4.5l3.5 1h4h3l0.5 10.5q0.5 10.5 1.5 27.5q0 18 0.5 42t0.5 48v9.5v9.5v41.5 l-2 34.5q22 4 44.5 6t47.5 3q5 0 10 0.5t9 0.5q74 4 139 24t89 101q2 6 2.5 11.5t1.5 10.5t1 10.5v12.5q0 29 -9.5 56t-26.5 49v0zM166 666q6 0 12.5 -0.5t14.5 -0.5h13.5h12.5q73 -1 139 -15t107 -85q6 -20 10.5 -42.5t4.5 -46.5v-8.5l-1 -8.5q0 -4 -1 -9t-2 -9 q-33 -57 -89 -76.5t-118 -21.5h-8.5h-8.5h-13l-14 1q-7 0 -13.5 0.5t-12.5 0.5h-30l-3 321v0zM385 535q-10 26 -34.5 37.5t-52.5 16.5q-6 2 -11.5 3t-12.5 2q-5 -18 -7.5 -39t-2.5 -43v-8v-8q1 -17 3.5 -34t6.5 -31h6h6q2 -1 4.5 -1h5.5q24 0 44 5t38 20q8 8 11 17.5t3 20.5 q0 9 -1.5 17.5t-3.5 16.5q-1 1 -1.5 3t-0.5 5v0z"
         id="glyph51" /><glyph
         glyph-name="R"
         unicode="Q"
         horiz-adv-x="892"
         d="M559 765l20 -6l19 -7q59 -20 114.5 -52.5t87.5 -95.5q26 -44 40 -95t13 -103q0 -50 -15.5 -99.5t-47.5 -91.5q-19 -10 -27.5 -21.5t-8.5 -22.5q0 -9 5 -19t11 -20q3 -4 6.5 -8.5t6.5 -8.5q10 -13 19 -25.5t11 -23.5q3 -12 11.5 -22t16.5 -19q11 -12 20 -25t9 -31v-4.5 l-1 -5.5l-241 19q-6 32 -20.5 43.5t-34.5 11.5q-14 0 -30.5 -4t-33.5 -10q-8 -3 -16 -5l-16 -4q-9 -2 -19.5 -3.5t-19.5 -1.5q-8 0 -15.5 1t-15.5 4q-100 7 -186.5 63t-142.5 142q-22 38 -32 82t-12 89v8v8q0 57 12 112t35 99q67 82 161.5 123.5t198.5 41.5q14 0 29 -1 t31 -2q14 -2 29 -4.5t29 -5.5v0zM719 535q-26 49 -75 92.5t-103 58.5q-1 0 -2.5 0.5t-2.5 0.5q-26 7 -51 10t-52 3q-65 0 -125 -21.5t-107 -65.5q-39 -37 -60 -88.5t-23 -105.5v-5v-4q0 -19 2.5 -38t7.5 -37q24 -69 77 -126t120 -80q27 -7 55 -11t56 -3q48 0 95.5 10 t85.5 32q10 -9 18.5 -21t15.5 -24q1 -3 2.5 -6t3.5 -5q11 -19 24 -34.5t33 -18.5q-4 9 -9.5 18.5t-12.5 18.5q-3 5 -6 9t-6 9q-12 17 -23.5 36t-15.5 40l64 70q19 28 30 65.5t14 77.5v8v9q0 36 -8 68t-22 58v0zM424 683h4.5h4.5q85 0 158.5 -45t106.5 -126q12 -23 18.5 -48 t5.5 -51q0 -50 -19 -98t-51 -84q-39 -47 -96.5 -71t-121.5 -24q-22 0 -43 3t-43 8q-54 17 -100.5 57.5t-76.5 90.5q-13 27 -20.5 57t-7.5 62q0 31 7.5 60.5t20.5 54.5q29 70 88 101.5t124 45.5q10 2 20.5 3.5t20.5 3.5v0zM600 481q-26 54 -73.5 83.5t-105.5 31.5 q-45 -9 -86 -31t-71 -60q-11 -18 -16.5 -40t-5.5 -45v-7.5l1 -6.5q1 -11 3.5 -22t5.5 -22q23 -47 63 -81.5t92 -42.5q6 -1 12 -2.5t11 -1.5q32 0 59.5 15.5t52.5 35.5q2 1 3.5 2.5t3.5 2.5q31 23 42.5 57.5t12.5 72.5v3.5v3.5q0 14 -1 27.5t-3 26.5v0z"
         id="glyph52" /><glyph
         glyph-name="S"
         unicode="R"
         horiz-adv-x="762"
         d="M57 754h4h5h4h4q37 0 75.5 4t78.5 9q13 1 26 2.5t27 2.5q29 3 57.5 5t55.5 2q58 0 113 -13t100 -52q48 -37 69.5 -91t21.5 -111q0 -8 -0.5 -16.5t-0.5 -16.5l-2 -16l-3 -17q-16 -30 -41 -57t-52 -51q-11 -10 -21.5 -19.5t-20.5 -18.5q15 -35 36 -67t44 -64l1.5 -1.5 l0.5 -1.5q27 -36 50.5 -73t38.5 -78q-24 -9 -49 -12t-51 -3q-9 0 -19.5 0.5t-19.5 0.5q-10 1 -20 1.5t-19 1.5q-10 0 -20 1t-19 1q-18 23 -36 47t-37 48q0 1 -0.5 2t-1.5 1q-29 40 -58 78t-61 68h-0.5h-1.5h-1.5h-0.5q-10 0 -12 -6.5t-2 -15.5q0 -5 -0.5 -10t-3.5 -8 l-10 -200h-240l-10 14q4 44 7 88t4 88q4 85 3.5 170t-1.5 169q-1 53 -1 105v104l10 6v0zM562 601q-20 33 -53 58t-71 32q-26 5 -51.5 7t-51.5 2q-43 0 -86.5 -5t-87.5 -13l-3 -563v-0.5v-0.5q1 -6 5.5 -11.5t9.5 -5.5q3 0 5.5 1t4.5 4v210l38 0.5q38 0.5 84 1.5q25 1 48 2.5 t40 2.5q12 -18 24.5 -37t24.5 -37q1 -1 1.5 -2.5t1.5 -3.5q27 -40 54.5 -79.5t62.5 -74.5q1 0 2 -0.5t3 -0.5q1 0 1.5 -0.5t1.5 -0.5h1.5h1.5h1.5h0.5q1 1 3 2t2 2q-11 15 -22.5 31t-22.5 32q-3 4 -6.5 8.5t-6.5 8.5q-29 40 -56.5 80t-49.5 83l16 6l17 7q36 16 68.5 43 t48.5 62q5 13 9 27.5t5 28.5q1 5 1 9.5v9.5q0 19 -4.5 38.5t-14.5 35.5v0zM189 664q13 1 27 2t29 2q14 2 29 3t29 2q11 0 22 0.5t22 0.5q60 0 112 -18t81 -72q5 -11 8 -24t4 -25q1 -6 1.5 -12.5t0.5 -12.5q0 -18 -4.5 -36t-14.5 -33q-39 -58 -99 -77.5t-124 -23.5 q-19 -1 -38.5 -1.5t-39.5 -0.5h-2.5h-3.5h-7.5h-6.5h-7.5h-7.5l-16 13l6 313v0zM454 550q-16 31 -46.5 48.5t-63.5 17.5q-12 0 -24 -3t-23 -8q1 -9 1 -17.5v-17.5v-16v-16q-1 -8 -1 -16.5v-16.5q0 -23 2.5 -46t12.5 -45q6 2 12.5 3t12.5 1q13 2 27 5.5t24 13.5q1 1 2.5 1.5 t2.5 1.5q25 15 45 38t20 49v6l-1 6q0 3 -1 5.5t-2 5.5v0z"
         id="glyph53" /><glyph
         glyph-name="T"
         unicode="S"
         horiz-adv-x="495"
         d="M455 748v-23q-45 -33 -81 -83.5t-50 -104.5q3 -40 20 -77t37 -73q3 -5 6 -10.5t7 -11.5q17 -33 31 -66.5t14 -69.5q0 -18 -4.5 -36.5t-14.5 -38.5q-27 -52 -60.5 -99t-88.5 -74q-10 3 -19.5 6t-20.5 6q-9 3 -18 5t-19 4q-39 11 -78 24t-75 34q5 5 10 11t10 11 q31 34 57.5 72.5t29.5 83.5v3.5l2 3.5v3.5v3.5q0 40 -18 73.5t-40 65.5q-3 4 -5.5 8t-5.5 9q-18 29 -32.5 58.5t-14.5 61.5q0 14 3.5 30t11.5 33q20 59 63.5 111t90.5 93q1 1 2.5 2t2.5 2l247 -51v0zM278 690h-2.5h-1.5h-2h-2q-17 0 -25.5 -10.5t-17.5 -24.5q-1 -1 -1.5 -2 t-1.5 -2q-4 -9 -9.5 -16.5t-13.5 -13.5q-16 -23 -23 -45.5t-7 -44.5q0 -39 17.5 -76.5t37.5 -75.5l10 -18l10 -18q15 -29 25.5 -58t10.5 -59t-15.5 -60.5t-52.5 -63.5l10 -10q48 29 67.5 61t19.5 67q0 39 -17.5 79.5t-37.5 82.5q-4 8 -8 16.5t-8 16.5q-14 31 -25.5 61.5 t-13.5 60.5q1 24 12.5 44.5t26.5 40.5q4 5 7.5 9.5t6.5 9.5q8 12 14.5 24.5t9.5 24.5v0z"
         id="glyph54" /><glyph
         glyph-name="U"
         unicode="T"
         horiz-adv-x="716"
         d="M685 766q-1 -33 -9 -65.5t-18 -65.5q-8 -26 -14 -51t-10 -50q-14 0 -29 2.5t-31 5.5q-14 3 -30 5.5t-32 2.5h-10.5l-11.5 -1q-7 -66 -10 -128t-3 -123q0 -47 1.5 -95.5t2.5 -99.5l13 -103h-276l-9 12q6 51 10.5 101t8.5 100q3 49 5.5 99t2.5 101q1 37 -1 73.5t-4 74.5 q-6 2 -12 3t-11 2q-6 0 -12.5 0.5t-12.5 0.5q-16 0 -32.5 -2t-31.5 -4q-16 -3 -31.5 -5t-31.5 -2q-6 0 -12 0.5t-12 1.5q5 15 9 30.5t9 30.5v2.5l1 2.5q11 41 24 81t30 77q66 -9 134 -12t138 -3q29 0 58 0.5t58 0.5h18.5h19.5q38 1 77 1t77 -1v0zM572 684l-352 2 q-3 -3 -9.5 -4.5t-14.5 -2.5h-3h-3q-12 -2 -22 -6t-10 -18v-0.5v-1.5v-1.5v-0.5q13 -2 27.5 -2.5t28.5 -0.5h18.5l18.5 1h18h17q14 0 28 -1t25 -3v-550l40 -1v546l1 6h163l29 38v0z"
         id="glyph55" /><glyph
         glyph-name="V"
         unicode="U"
         horiz-adv-x="822"
         d="M54 770q28 3 57.5 5.5t60.5 3.5q12 0 23.5 0.5t22.5 0.5q23 0 45 -1.5t41 -3.5q12 -101 14.5 -201.5t2.5 -199.5v-12v-11v-32.5v-31.5q0 -16 0.5 -32.5t0.5 -33.5q15 -10 35.5 -14t42.5 -4q8 0 16.5 0.5t16.5 0.5q5 1 11 1.5t11 0.5q10 1 20.5 2t20.5 1l22 22l53 535 q23 6 46.5 8t48.5 2q10 0 20 -0.5t21 -0.5h7h7q7 -1 13.5 -1h14.5h6.5l6.5 1h6.5h6.5l10 -33q-4 -46 -7 -92.5t-5 -92.5q-1 -46 -2 -92.5t-1 -92.5q0 -88 3 -176t7 -173l-255 -6q-4 6 -5.5 14t-2.5 15v2v2q-2 11 -4.5 21t-11.5 15q-47 -13 -91.5 -36t-87.5 -50 q-29 5 -64 14.5t-71 20.5q-13 4 -27 8.5t-27 8.5q-27 9 -51.5 18t-44.5 16q9 84 16.5 165t11.5 161q2 32 2.5 64t0.5 64q0 56 -3.5 113.5t-10.5 116.5v0zM209 672v1.5l1 0.5v1.5v0.5q-1 6 -5.5 9t-10.5 3q-4 0 -9 -1.5t-7 -6.5q2 -35 3 -70.5t1 -69.5q0 -19 -0.5 -39.5 t-0.5 -40.5q-2 -50 -4.5 -100t-5.5 -100q0 -10 -0.5 -20.5t-1.5 -20.5v-3.5v-3.5q-1 -1 -1 -2.5v-3.5q1 -44 28.5 -60.5t60.5 -25.5l6 -2l6 -1q9 -3 18 -5.5t17 -6.5q9 1 19 3t19 4q19 3 37.5 6t37.5 6q49 9 98.5 16.5t100.5 11.5q8 -1 12 -5.5t6 -9.5v-0.5v-0.5 q2 -5 5.5 -9t12.5 -4h0.5h1.5l8 8q1 27 1 55.5v59.5q1 20 1 40.5v42.5v42.5v42.5q1 68 4.5 133t12.5 125l-0.5 0.5l-1.5 1.5q-2 2 -5 4t-7 2q-1 1 -3 1t-5 -1q-6 -42 -9.5 -97.5t-5.5 -113.5q-3 -88 -3 -167.5v-111.5v-12.5v-4.5q-33 -3 -68 -7t-72 -9q-46 -7 -91 -15.5 t-85 -18.5q-41 8 -74 24t-60 44q2 30 4 59.5t4 57.5q1 20 2.5 40.5t2.5 40.5q3 48 5 97.5t2 99.5v14v14q-1 14 -1 28.5t-1 29.5v0z"
         id="glyph56" /><glyph
         glyph-name="W"
         unicode="V"
         horiz-adv-x="817"
         d="M50 766q8 -1 17 -1.5t17 -0.5q23 0 44.5 2.5t42.5 5.5q12 2 24 3.5t24 2.5q10 1 21.5 1.5t22.5 0.5q8 0 17 -0.5t17 -1.5q10 -30 20 -59t20 -59q19 -58 39.5 -117t43.5 -117q34 57 54.5 122.5t38.5 133.5q1 4 1.5 7.5t1.5 7.5q5 19 10.5 39t11.5 39q11 2 22.5 2.5 t23.5 0.5q23 0 44.5 -2t44.5 -4q23 -3 45.5 -5t46.5 -2h3.5h3.5h3.5h3.5l1 -39l-241 -712q-19 -8 -39.5 -11t-40.5 -3q-13 0 -26 1l-26 2q-13 0 -26.5 1t-27.5 1h-8.5l-8.5 -1q-5 0 -9 -0.5t-10 -0.5q-39 93 -74 189.5t-69 192.5q-3 9 -6 17.5t-6 16.5q-30 84 -60.5 168 t-64.5 166l13 13v0zM205 689q-1 1 -3.5 1h-4.5q-6 0 -11.5 -3t-4.5 -8v-1.5v-0.5q0 -1 0.5 -1.5t0.5 -1.5l214 -573h55q23 70 47 138.5t49 137.5l6 16l6 17q23 60 45 120.5t42 121.5l-1 32h-21l-192 -554h-12q-12 32 -24 63t-23 62q-6 15 -12 31t-11 31q-35 94 -70 187.5 t-75 184.5v0z"
         id="glyph57" /><glyph
         glyph-name="X"
         unicode="W"
         horiz-adv-x="1081"
         d="M296 774l22 -63l6 -26l6 -27q9 -44 18.5 -87t23.5 -84q25 36 40 77.5t28 84.5q0 2 0.5 3t0.5 2q9 30 19 59t23 57q19 5 40 6t43 0h11h11h13.5l13.5 1q18 -32 31.5 -65t25.5 -68q1 -1 1.5 -2t0.5 -2q12 -36 25.5 -70t32.5 -67l13 13l49 262h10.5h10.5q14 0 28 0.5t29 0.5 h5.5h6.5q11 1 23 1h23q27 0 53 -2t50 -8q-17 -102 -41.5 -202t-50.5 -199q-1 -6 -2.5 -11.5t-2.5 -10.5q-20 -80 -40 -160.5t-38 -161.5l-22 -18q-4 1 -8.5 1.5t-7.5 0.5h-8h-8h-9.5l-10.5 -1h-4.5h-4.5q-7 0 -14 -0.5t-16 -0.5q-3 0 -5.5 0.5t-5.5 0.5q-6 0 -12 0.5 t-13 1.5q-28 49 -47 102t-37 107q-2 7 -4.5 14.5t-5.5 14.5q-8 27 -17 53t-19 51l-23 -22l-103 -322q-8 -1 -17.5 -2t-18.5 -2q-6 0 -12.5 -1t-12.5 -1q-8 -1 -15.5 -1.5t-16.5 -0.5q-22 0 -39.5 5t-28.5 20q-33 119 -71.5 234.5t-79.5 230.5q-2 6 -4 12.5t-4 13.5 q-22 60 -42.5 121t-41.5 123q52 7 105.5 10.5t109.5 3.5h16.5h15.5v0zM913 698h-17q-35 -121 -66 -242.5t-60 -243.5l-12 -16q-27 49 -48 101t-39 104q-2 6 -4.5 12.5t-4.5 12.5q-24 65 -49 128t-60 121q-12 -37 -26 -74.5t-27 -75.5q-28 -75 -54 -152t-47 -158l-17 -17 q-28 67 -52 134.5t-45 136.5q-2 4 -3 8t-3 8q-16 50 -33.5 100.5t-35.5 100.5h-0.5h-1.5h-1.5h-0.5h-1.5h-1.5h-3.5h-2.5q-4 0 -6.5 -0.5t-3.5 -3.5q11 -33 22.5 -66t22.5 -66q3 -10 7 -20.5t7 -19.5q34 -101 69 -201.5t73 -195.5q11 44 25.5 86.5t29.5 85.5q3 10 7 20t8 22 q20 56 39.5 114t33.5 117l25 48q29 -56 54 -114t48 -115q4 -11 8.5 -21.5t9.5 -20.5q23 -56 45.5 -111.5t49.5 -108.5q19 72 38 145t37 147q17 74 34 147t33 144v0z"
         id="glyph58" /><glyph
         glyph-name="Y"
         unicode="X"
         horiz-adv-x="933"
         d="M309 780q36 -47 74 -98.5t78 -107.5q29 9 47.5 34.5t34.5 54.5l6 12l7 13l6.5 13l7.5 13q1 1 1.5 2.5t0.5 3.5q2 4 4.5 8t4.5 8q5 12 12 24t17 20l246 -66v-33q-20 -37 -47.5 -70t-54.5 -66q-1 -1 -1.5 -2t-1.5 -2q-34 -39 -66 -79.5t-51 -86.5q33 -32 61.5 -65.5 t56.5 -66.5q5 -6 10 -12.5t10 -12.5q29 -35 58.5 -68.5t61.5 -65.5q-33 -25 -75 -38t-85 -23q-1 -1 -2 -1h-2q-19 -5 -39 -10.5t-39 -11.5l-23 3q-6 8 -13 17t-13 18q-8 10 -15 21t-15 22q-23 33 -48 62.5t-58 46.5q-20 -20 -35 -44t-28 -49q-2 -3 -4 -6.5t-3 -6.5 q-12 -23 -24.5 -44.5t-28.5 -39.5q-58 6 -114 16t-111 22q-16 4 -31.5 7.5t-32.5 7.5q17 25 35 49l36 48q3 4 5 7l4 6q41 54 81 110t79 114l-8 36q-23 29 -49.5 56.5t-53.5 55.5q-1 0 -2 1l-2 2q-37 38 -72.5 76.5t-62.5 81.5l266 84v0zM359 521l-104 125q-2 2 -5.5 3.5 t-6.5 2.5h-3h-2q-4 0 -9 -1.5t-8 -4.5q18 -33 45 -62.5t56 -58.5l3 -3l3 -3q33 -33 63 -67t49 -73l-199 -250l1 -17h13q31 28 56 58t49 61q8 11 17 22t17 22q17 22 36 43.5t39 41.5q19 -22 36 -41.5t34 -37.5q7 -8 13.5 -16.5t13.5 -17.5q12 -14 24 -30t25 -34q7 -5 14 -13 t14 -17q11 -14 23 -27t29 -13q2 0 4.5 0.5t6.5 1.5q-22 31 -45 60t-48 56q-17 20 -34.5 40.5t-35.5 41.5q-14 16 -28 34.5t-29 36.5q20 31 43.5 60.5t48.5 58.5q3 4 5.5 7.5t5.5 7.5q26 31 50.5 62t46.5 65q-1 1 -1.5 2t-1.5 1q-1 2 -2 3t-1 2q-2 2 -3.5 2.5t-3.5 -0.5 q-39 -38 -76.5 -82.5t-73.5 -90.5q-12 -17 -25 -34t-25 -33q-19 10 -34.5 26t-29.5 32q-1 0 -1.5 0.5t-0.5 1.5q-11 12 -22.5 24t-25.5 22v0z"
         id="glyph59" /><glyph
         glyph-name="Z"
         unicode="Y"
         horiz-adv-x="808"
         d="M37 768q25 1 48 2.5t45 3.5q17 1 34 2.5t34 2.5q11 0 22 0.5t23 0.5h16.5l18.5 -1q8 0 16.5 -1t16.5 -2l110 -151q27 22 44.5 53t29.5 64q3 7 5 15t4 15l269 2l-12 -58l-334 -716l-314 10v23q60 82 107.5 170.5t88.5 178.5l-3 22q-75 88 -144 179t-125 185v0zM254 684 h-29q26 -42 56 -82t61 -80q2 -2 3.5 -4t2.5 -3q25 -32 49 -63t46 -64l-144 -279q1 0 2.5 0.5t2.5 0.5h2.5h2.5h7h7l7 0.5l5 2.5l285 559l-29 5q-17 -26 -30.5 -53.5t-26.5 -55.5q-1 -1 -2 -3t-2 -3q-15 -35 -32.5 -69t-40.5 -64q-8 10 -17.5 20.5t-17.5 20.5 q-44 51 -86.5 105t-81.5 109v0z"
         id="glyph60" /><glyph
         glyph-name="bracketleft"
         unicode="Z"
         horiz-adv-x="838"
         d="M801 780v-32q-98 -117 -179 -246t-149 -261q0 -1 0.5 -2t1.5 -2q2 -6 6.5 -11.5t12.5 -5.5h1.5h1.5l298 -19l-33 -191l-29 -10q-69 6 -143.5 9t-150.5 4q-25 1 -50 1h-50q-71 1 -139 0t-131 -3l-1 39q28 49 60 98t65 97q5 7 9.5 14t9.5 14q45 67 86.5 134t71.5 136 q-24 8 -48 11t-48 3q-38 0 -75.5 -6t-74.5 -13q-22 -4 -43.5 -8.5t-42.5 -7.5l2 52l3 52q2 38 7.5 75t16.5 72q62 1 125.5 0t128.5 -2h23.5l24.5 -1q111 -1 220 -0.5t212 10.5v0zM145 672v-2.5v-3.5q-1 -1 -1 -2v-2v-2.5v-2.5q0 -4 1.5 -8t6.5 -6q33 2 67 3l68 2h17.5h17.5 q61 0 122 -1.5t117 -4.5q-33 -61 -70.5 -120.5t-77.5 -119.5q-47 -71 -92 -142t-80 -145q25 0 48.5 -1t48.5 -1q8 0 17.5 -0.5t18.5 -0.5q55 -2 110 -3t108 -1h44.5l43.5 1v26q-31 4 -61.5 5.5t-62.5 1.5q-25 0 -49.5 -0.5t-48.5 -1.5q-30 -1 -60 -1.5t-60 -0.5l-46 5 q38 59 78 122.5t81 127.5q11 17 21.5 34t21.5 34q35 54 68 108.5t64 106.5q-39 0 -79 1t-81 2q-17 0 -33.5 1t-34.5 1q-19 0 -38 0.5t-38 0.5q-45 0 -90 -2t-87 -8v0z"
         id="glyph61" /><glyph
         glyph-name="backslash"
         unicode="["
         id="glyph62" /><glyph
         glyph-name="bracketright"
         unicode="\"
         d="M-1 753l6 -28q123 -160 222.5 -331.5t187.5 -345.5q26 -6 51 -8.5t51 -1.5q12 0 24 0.5t24 0.5q6 1 12 1t12 1q18 0 36.5 1t35.5 1q18 0 36 -1.5t36 -4.5l10 11q-31 45 -61.5 90t-61.5 90q-7 10 -14 21t-15 21q-80 116 -158.5 233t-149.5 237q-40 4 -82 7.5t-84 5.5 q-16 0 -33 0.5t-33 0.5h-26zM492 158l-308 489h36l213 -338q9 -16 19 -30.5t21 -28.5q4 -5 7 -9.5t7 -9.5q14 -20 27 -40t21 -44q-8 0 -16 2.5t-17 5.5q-2 1 -4.5 1.5t-5.5 1.5z"
         id="glyph63" /><glyph
         glyph-name="asciicircum"
         unicode="]"
         id="glyph64" /><glyph
         glyph-name="underscore"
         unicode="^"
         id="glyph65" /><glyph
         glyph-name="grave"
         unicode="_"
         id="glyph66" /><glyph
         glyph-name="a"
         unicode="`"
         id="glyph67" /><glyph
         glyph-name="b"
         unicode="a"
         horiz-adv-x="917"
         d="M591 777q7 -4 49.5 -110.5t91.5 -239.5q4 -9 7.5 -19t6.5 -19q49 -133 88 -247t42 -137h-251q-8 9 -15.5 21t-12.5 23q-10 25 -14.5 45l-4.5 20q-22 -4 -49 -5t-56 -1h-4h-4q-16 0 -32.5 0.5t-32.5 0.5t-32 0.5t-28 0.5h-8h-8q-4 -7 -8 -21t-9 -29q-6 -23 -13.5 -40.5 t-17.5 -15.5l-225 3q-1 1 -1.5 3t-0.5 5q0 32 49.5 159.5t110.5 274.5q37 92 72 179t58 150q17 -1 44.5 -2t57.5 -1h8.5h8.5q19 0 38 0.5t35 0.5q20 0 35 0.5t21 0.5h3h1v0zM509 674q-11 4 -21.5 4.5t-20.5 0.5q-8 0 -17 0.5t-19 4.5q-4 -9 -8 -18.5t-8 -17.5 q-59 -136 -117 -272.5t-109 -274.5h2.5h2.5q4 0 5.5 -1.5t2.5 -3.5q0 -1 0.5 -2t0.5 -2t0 1t3 9q2 6 8 19t12 27q1 3 2 5.5t2 5.5q7 13 13 24t10 15l418 3l7 -11.5q7 -11.5 15 -27.5q4 -8 8.5 -16.5t7.5 -16.5l4 -14l3 -14q5 -4 10.5 -3t11.5 10q-37 98 -76.5 196t-80.5 196 q-18 44 -36.5 87.5t-35.5 86.5v0zM489 656l175 -435h-394q12 35 30.5 81.5t38.5 94.5q2 5 4.5 11t4.5 12q36 87 66 156l30 69q3 8 9 10t12 1h3.5h2.5h6h6h3.5h2.5v0zM532 285q-2 15 -6.5 31t-9.5 33q-9 26 -22.5 51t-30.5 44q-5 -11 -11 -21.5t-12 -22.5q-16 -29 -29 -59 t-13 -61q6 1 12 1.5t11 0.5q9 0 17.5 -1t17.5 -2q4 -1 8.5 -2t8.5 -1t8 -0.5t8 -0.5q10 0 21 2.5t22 7.5v0z"
         id="glyph68" /><glyph
         glyph-name="c"
         unicode="b"
         horiz-adv-x="724"
         d="M51 777q22 -4 45.5 -6t46.5 -2q27 0 54.5 1.5t56.5 4.5q28 2 55.5 3.5t54.5 1.5q69 0 128.5 -19.5t100.5 -81.5q3 -4 6.5 -7.5t6.5 -7.5q5 -5 10 -10.5t10 -10.5q22 -23 40 -47.5t17 -52.5q0 -10 -2.5 -21.5t-9.5 -22.5l-96 -129q9 -15 22 -30t27 -30q1 -1 1.5 -2t1.5 -2 q25 -26 45 -53t20 -59q0 -10 -2.5 -21.5t-7.5 -22.5q-41 -94 -113 -123.5t-158 -29.5q-35 0 -70.5 2.5t-71.5 5.5q-37 3 -72 6t-70 3q-20 0 -39.5 -1.5t-39.5 -4.5l-15 23l10 743l8 3v0zM451 679q-43 10 -86.5 16t-88.5 6q-31 0 -62 -3.5t-62 -11.5v-583q22 0 43.5 -1 t43.5 -1q23 -1 44 -2t43 -1q41 0 79.5 5t75.5 18q27 8 44.5 31t21.5 49q0 3 0.5 5.5t0.5 5.5q-5 39 -31.5 74.5t-56.5 63.5q-12 11 -24.5 21.5t-22.5 18.5q43 13 77.5 44.5t57.5 71.5q2 7 2.5 13t0.5 12q0 31 -18.5 54.5t-39.5 46.5q-2 1 -3.5 2.5l-2.5 2.5 q-10 10 -19.5 20.5t-16.5 21.5v0zM178 380h19.5h20.5q18 0 36.5 -0.5t38.5 -1.5q66 -5 126 -28.5t89 -93.5q5 -10 8.5 -22.5t3.5 -25.5q0 -8 -2.5 -16.5t-9.5 -15.5q-35 -33 -79 -44t-92 -11q-9 0 -18.5 0.5t-18.5 0.5q-16 1 -32.5 2.5t-33.5 2.5q-15 1 -30.5 2.5t-29.5 2.5 l4 248v0zM413 250q-17 28 -48.5 45.5t-69.5 17.5h-3h-3q-2 -1 -3.5 -1h-3.5q-4 -12 -7 -27.5t-3 -31.5q0 -15 3 -30t7 -28q5 -1 9 -1.5t8 -0.5q11 0 21.5 2.5t20.5 5.5q2 1 3.5 1.5t3.5 0.5q8 3 17.5 4.5t18.5 1.5h3.5h2.5q2 1 5 3l6 4q6 4 12 9.5t5 12.5q0 3 -1 6t-4 6v0z M183 674l20 -2l20 -1q14 0 29 1t31 2l30 2l29 1q35 0 66 -9.5t54 -38.5q4 -5 8.5 -10t9.5 -11q16 -17 29.5 -37.5t13.5 -42.5q0 -3 -0.5 -5.5t-0.5 -5.5q-1 -3 -2 -5.5t-2 -5.5q-16 -31 -41.5 -57t-58.5 -41q-20 -2 -41 -4t-41 -2q-10 -1 -20.5 -1h-20.5q-29 0 -59 1.5 t-62 5.5l9 266v0zM395 579q-18 12 -39.5 18t-45.5 6q-5 0 -11 -0.5t-12 -1.5q-1 -3 -2 -6.5t-2 -7.5q-2 -8 -4.5 -17.5t-4.5 -18.5q-1 -7 -1.5 -14t-0.5 -13q0 -13 4 -25t11 -23q9 -1 18 -1.5t19 0.5q27 0 50 7.5t39 33.5q1 5 1 10.5v10.5q0 12 -3.5 22.5t-15.5 19.5v0z"
         id="glyph69" /><glyph
         glyph-name="d"
         unicode="c"
         horiz-adv-x="593"
         d="M434 778l132 -168q-7 -15 -22 -20t-32 -8q-1 0 -2 -0.5t-3 -0.5q-10 -2 -21 -6t-20 -10q-9 -4 -18.5 -8t-18.5 -9q-39 -20 -75 -49.5t-56 -70.5q-2 -8 -3.5 -16t-1.5 -16q0 -29 14.5 -53.5t30.5 -46.5q1 0 1.5 -1t1.5 -2q41 -44 91 -68t103 -41q8 -2 15.5 -4.5t15.5 -4.5 q-19 -41 -46 -80t-56 -76q-4 -5 -7.5 -9.5t-7.5 -9.5h-50q-12 5 -25 10t-25 12q-103 46 -195.5 122t-124.5 189q-1 8 -1.5 16.5t-0.5 17.5q1 96 50 182.5t132 143.5q9 4 18.5 9.5t18.5 10.5q5 3 10.5 6.5t10.5 6.5q34 20 70 37t76 17q5 0 10.5 -0.5t10.5 -1.5v0zM412 666 q-55 -1 -103.5 -37.5t-91.5 -78.5q-7 -8 -15 -16.5t-16 -15.5q-17 -27 -29.5 -58.5t-14.5 -64.5v-6.5v-6.5q0 -16 3 -33t11 -34q44 -74 109 -130.5t144 -76.5l3 17q-9 8 -20.5 12.5t-24.5 4.5q-72 45 -132.5 104.5t-65.5 149.5q8 71 56 122.5t105 91.5q22 15 42.5 29 t39.5 27v0z"
         id="glyph70" /><glyph
         glyph-name="e"
         unicode="d"
         horiz-adv-x="783"
         d="M46 780q30 -1 59.5 -1h59.5h7h7h22.5h22.5q111 0 212.5 -19.5t173.5 -103.5q54 -56 96 -123.5t42 -146.5q0 -17 -3 -35t-8 -37q-26 -105 -102.5 -181t-173.5 -121q-39 -7 -78 -9.5t-78 -2.5t-78 2t-79 5q-28 1 -56.5 2.5t-56.5 2.5q1 70 2.5 140t2.5 142l2 78l1 79 q2 83 3 165t0 164v0zM593 519q-44 59 -100.5 104.5t-122.5 60.5q-18 0 -36.5 1.5t-35.5 3.5q-8 0 -17 1t-17 2q-9 0 -17.5 0.5t-17.5 0.5q-16 0 -33.5 -2t-35.5 -7l-5 -570q29 -4 58 -7.5t57 -3.5q91 0 172.5 31.5t135.5 106.5q24 30 36 66t14 74v5v6q0 34 -9 67t-26 60v0z M365 656q54 -19 103 -51.5t87 -80.5q18 -32 31.5 -67t13.5 -74v-14l-2 -14q-13 -67 -57 -116t-102 -85q-35 -15 -73 -21t-78 -6q-20 0 -40.5 1t-39.5 2q-6 1 -13 1.5t-13 0.5v530q13 5 27.5 7t31.5 2q11 0 22.5 -1t24.5 -2q10 -1 19.5 -2.5t20.5 -3.5q9 -1 18 -3t19 -3v0z M445 497l-67 50q-7 1 -15 3.5t-15 5.5q-1 1 -1.5 1h-0.5q-8 4 -15.5 6.5t-16.5 2.5q-6 -1 -11.5 -2.5t-10.5 -6.5l-5 -294v-6.5v-6.5q1 -10 5.5 -18t16.5 -4q60 0 105.5 41t68.5 90q3 10 4.5 19.5t1.5 18.5q0 28 -12 53t-32 47v0z"
         id="glyph71" /><glyph
         glyph-name="f"
         unicode="e"
         horiz-adv-x="643"
         d="M35 763q65 6 128.5 7t128.5 0h30h29q53 0 106 2t106 8q17 -56 31.5 -115.5t18.5 -119.5q-72 11 -145 17.5t-150 6.5h-26l-28 -1q-8 -6 -11 -13.5t-3 -15.5q0 -5 1 -11l2 -12q0 -5 1 -10.5t1 -11.5v-4v-4q36 -2 74.5 -4t76.5 -2q31 0 60.5 2t57.5 7q2 -19 9 -38l14 -38 q2 -3 3.5 -7.5t2.5 -8.5q8 -18 13 -37.5t5 -40.5q0 -7 -1 -15t-3 -16h-303q-5 -9 -7.5 -21t-2.5 -25q0 -10 1 -19.5t2 -18.5q1 -3 1.5 -6t0.5 -7q33 -4 64 -6t63 -2h18h18q24 1 47 2l46 2l45 2l44 2q2 -4 3 -7.5t2 -6.5q0 -4 0.5 -7.5t0.5 -7.5q0 -13 -4 -27t-9 -27 q0 -2 -0.5 -4t-1.5 -3q-4 -12 -8 -23.5t-6 -24.5l-18 -53h-528q-3 104 -4 204t-1 199q0 88 1.5 177.5t3.5 182.5v0zM494 660q3 2 4 4t1 4t-1.5 4t-3.5 5q-2 1 -3.5 3t-2.5 4h-72.5l-71.5 1h-106.5h-105.5q1 -58 1.5 -123.5t0.5 -132.5v-11.5v-10.5q1 -91 2.5 -179t6.5 -157 q44 -2 90 -3.5t92 -0.5q43 0 85.5 1t83.5 3q1 2 0.5 5t-0.5 6q-1 3 -3.5 6.5t-4.5 6.5q0 1 -1 2l-2 2q-28 -1 -55 -2t-53 -2h-27h-27q-38 0 -76 1.5t-77 2.5q-2 41 -3.5 80t-1.5 77q0 30 1.5 59t3.5 58q32 2 62 3t60 1q22 0 43.5 -0.5t44.5 -0.5q22 0 45 -0.5t48 -0.5 q2 6 -0.5 10t-6.5 7q0 1 -1 1.5t-2 1.5h-293l-1.5 18q-1.5 18 -3.5 46q-2 17 -3 37.5t-2 42.5q-1 11 -1 22v23q0 24 1.5 43.5t4.5 32.5h331v0z"
         id="glyph72" /><glyph
         glyph-name="g"
         unicode="f"
         horiz-adv-x="665"
         d="M60 780q71 -6 150 -7t159 -1h2.5h2.5h27h27q47 0 93.5 -1t90.5 -3l24 -241q-16 3 -32.5 6t-33.5 6q-47 8 -96.5 15t-100.5 7q-19 0 -38.5 -1t-38.5 -4q-5 -10 -7.5 -21.5t-2.5 -23.5q0 -7 1 -15t1 -15q1 -10 2 -18.5t1 -17.5q30 -9 63.5 -11.5t69.5 -2.5h22.5l22.5 1 h11.5l12.5 1q16 0 33 0.5t33 0.5q6 -1 12.5 -1h12.5q4 -24 7 -47.5t4 -46.5l2 -22l1 -22q2 -18 3 -36.5t3 -37.5l-15 -10q-38 9 -79.5 13t-83.5 5h-21h-21h-38l-38 -1l-7 -13l13 -211q-18 -1 -37.5 -2t-39.5 -1q-13 0 -27 0.5t-29 0.5q-35 2 -68.5 5.5t-64.5 7.5l-15 30 q5 100 8 188t3 171q0 86 -3 175t-10 189l29 12v0zM521 652v17q-41 -1 -82 -1h-82q-50 0 -100 -0.5t-99 -1.5q-1 -59 -1.5 -124.5t-0.5 -130.5v-37.5v-36.5v-117.5l-1 -109.5q-1 -4 1 -6t6 -2h2.5h2.5h1.5l0.5 1h3.5h2.5q2 16 3 33.5t2 34.5v11.5v12.5q0 24 -1 46t-2 42 q-1 7 -1.5 13t-0.5 12l16 18l302 -5v15q-33 4 -68 6t-70 3q-17 1 -35 1.5t-35 0.5q-28 0 -54 1t-51 2v297l341 5v0z"
         id="glyph73" /><glyph
         glyph-name="h"
         unicode="g"
         horiz-adv-x="745"
         d="M620 666v-16q-99 -36 -184.5 -106t-149.5 -156q-3 -6 -4.5 -12.5t-1.5 -14.5q0 -5 1 -11t3 -11q2 -10 6 -20.5t8 -19.5q1 -3 2.5 -5.5t2.5 -4.5q28 -38 65.5 -61t81.5 -23h2h2h1h2l14 15l-2 242q11 2 22.5 4t22.5 3t22.5 1.5t22.5 0.5q36 0 70.5 -5.5t66.5 -16.5l15 -17 q-4 -33 -6.5 -64.5t-2.5 -63.5v-21v-21v-14v-14q0 -17 0.5 -34t0.5 -34q1 -32 1.5 -65t0.5 -68q-6 1 -13 1h-14q-36 0 -75.5 -5t-79.5 -12q-8 -2 -15.5 -3t-15.5 -2q-33 -5 -65 -8.5t-62 -3.5q-69 0 -128.5 26t-98.5 104q-39 49 -71.5 103.5t-32.5 115.5v0.5v1.5v1.5v0.5 q17 142 120 257t230 170l236 -114v0zM418 653q1 2 1.5 4t-0.5 3q0 6 -4.5 9t-11.5 3h-0.5h-1.5h-1.5h-1.5q-1 -1 -1.5 -1h-1.5q-89 -59 -159.5 -134.5t-100.5 -178.5q11 -47 33.5 -89.5t58.5 -77.5q33 -55 85 -73.5t108 -17.5h13.5l13.5 1q22 1 43.5 3t43.5 6q18 2 35 4 t33 3l2 269l-21 -1l1 -241q-26 -13 -56 -16.5t-61 -3.5q-10 0 -21 0.5t-22 0.5q-10 0 -20.5 0.5t-19.5 0.5h-14.5l-14.5 -1q-66 37 -123 98.5t-68 135.5q35 94 101.5 167t152.5 127v0z"
         id="glyph74" /><glyph
         glyph-name="i"
         unicode="h"
         horiz-adv-x="835"
         d="M292 777l25 -261q17 -4 35.5 -6.5t36.5 -2.5q19 0 39.5 2t39.5 4h6l5 1q17 1 34.5 2.5t34.5 1.5l9 259l241 -3l-4 -768q-25 -2 -50.5 -3.5t-51.5 -1.5q-11 -1 -21.5 -1h-20.5q-32 0 -62 2t-59 7q5 42 9.5 84t4.5 86q0 19 -1 39t-3 40q-28 5 -57.5 7.5t-59.5 3.5 q-12 1 -24 1h-24h-27l-28 -1l-12 -13l-21 -254l-226 3q-2 63 -2.5 125.5t-0.5 123.5q-1 19 -1 39.5v40.5q0 55 -1 110t-3 109t-5 109t-9 110l10 8l244 -3v0zM196 679l-26 2q2 -70 3 -139t1 -139q0 -75 -1 -148t-3 -145q2 -1 4 -2.5t5 -1.5q2 -1 4 -1h4h3l4 1h1.5h0.5 q1 30 1 57.5v54.5v8.5v9.5l2 70l4 75l455 -2q1 -32 1 -61.5t-1 -58.5v-29.5v-29.5v-15v-16v-11.5v-12.5q0 -11 0.5 -22.5t0.5 -24.5q1 0 2.5 -0.5t2.5 -0.5h1h2h2h2q3 1 6.5 2.5t5.5 3.5q1 34 1.5 67.5t0.5 67.5q1 25 1.5 48.5t0.5 47.5q1 44 1.5 87.5t0.5 86.5 q0 13 -0.5 27t-0.5 27q0 27 -0.5 54t-1.5 54h-23v-267l-440 1l-20 14q-1 29 -1 54.5v49.5v16.5v16.5q0 30 -1 59.5t-5 64.5v0z"
         id="glyph75" /><glyph
         glyph-name="j"
         unicode="i"
         horiz-adv-x="366"
         d="M41 769q14 1 29 2t29 2q2 0 3.5 0.5t3.5 0.5q32 2 65 4t67 2q20 0 40 -1t41 -3q0 -58 -2 -118t-3 -120q-1 -23 -1.5 -45t-1.5 -44q-1 -45 -2 -90.5t-1 -90.5q0 -66 2.5 -129t10.5 -124q-18 -1 -38 -3l-40 -4q-12 -2 -25 -3t-25 -2q-14 -1 -29.5 -2t-29.5 -1 q-23 0 -45 2.5t-43 9.5q5 101 9 193.5t4 183.5v20v20q0 81 -4 164.5t-14 175.5v0zM202 634q1 3 1.5 6.5t0.5 7.5v1.5v1.5q-1 10 -5.5 18.5t-15.5 8.5q-2 0 -5 -1t-7 -3v-563h24l7 523v0z"
         id="glyph76" /><glyph
         glyph-name="k"
         unicode="j"
         horiz-adv-x="579"
         d="M547 780q3 -69 4.5 -130.5t1.5 -121.5v-26.5v-26.5q0 -76 -4 -154t-11 -167q-54 -77 -134.5 -115.5t-171.5 -38.5q-29 0 -57 3.5t-56 10.5l-35 11q-10 58 -24.5 112t-32.5 108q8 4 15.5 5t14.5 1q11 0 23 -2l24 -4q10 -2 20.5 -4t21.5 -2h6l5 1q2 0 4.5 0.5t5.5 0.5 q35 7 66 18t52 43q4 24 5.5 45.5t1.5 42.5q0 37 -3.5 72.5t-8.5 71.5q-1 8 -2.5 16.5t-2.5 17.5q-7 44 -12 89.5t-5 93.5v6.5v6.5v6.5v6.5l289 3v0zM436 679h-39q1 -43 1.5 -86t2.5 -87v-3v-4q1 -68 3 -135t2 -133q-41 -46 -94.5 -69t-110.5 -23h-12.5l-12.5 1q-7 0 -13 1 l-12 2v-22q9 -10 22 -14t29 -4h6h6l6 0.5l6 0.5q6 0 12.5 0.5t11.5 0.5h4.5h3.5q6 3 13.5 6t14.5 5q9 4 19 7.5t21 6.5q40 15 74.5 38t44.5 68l-9 443v0z"
         id="glyph77" /><glyph
         glyph-name="l"
         unicode="k"
         horiz-adv-x="803"
         d="M762 689v-22q-24 -26 -46.5 -50.5t-44.5 -48.5q-16 -18 -33 -35l-34 -34q-32 -32 -64.5 -65t-67.5 -66v-13l295 -242v-18l-212 -95l-23 5q-40 51 -89 97t-100 84q-14 11 -28.5 21t-28.5 19q-4 -27 -7 -54.5t-5 -54.5q-1 -18 -1 -37v-37v-14v-15q-19 -5 -37.5 -7t-36.5 -2 q-9 0 -18 0.5t-17 0.5q-5 1 -11 1.5t-11 0.5q-16 1 -33 2t-34 1h-8.5h-8.5l-8 -0.5l-8 -0.5q-4 45 -4.5 95.5t0.5 101.5v4v4v26.5v26.5q0 6 -0.5 13t-0.5 14v13.5v13.5q-1 38 -0.5 78t0.5 81q0 18 0.5 37t0.5 37v12.5v14.5q0 48 -1.5 95.5t-6.5 92.5h254q0 -4 0.5 -8t0.5 -7 v-8.5v-8.5q0 -16 -1 -32l-2 -32q-2 -16 -3 -32t-1 -32q0 -10 1 -20.5t2 -21.5q2 -11 4.5 -21t6.5 -22q71 50 124.5 113t103.5 132q2 3 3.5 5.5t3.5 4.5l235 -91v0zM174 689h-27q-1 -54 -2 -111t-1 -114q1 -89 2.5 -182t4.5 -187q4 2 7 3t6 1q2 0 3.5 -0.5t2.5 -1.5l3 -1.5 l1 -0.5v27.5v33.5q0 12 0.5 24.5t0.5 24.5q1 29 2.5 55.5t4.5 46.5l15 9.5q15 9.5 37 19.5q7 4 16 8t18 7q2 1 4.5 2t6.5 2q11 -9 22 -17.5t23 -18.5q63 -49 123.5 -100.5t115.5 -110.5l33 -3q-30 41 -69 76.5t-81 70.5q-4 2 -7 5t-7 6q-33 27 -65.5 55t-60.5 60 q16 13 33.5 26.5t34.5 25.5q2 2 4 3.5t4 3.5q62 47 121.5 98.5t102.5 118.5l-14 9q-14 -14 -28.5 -29.5t-27.5 -28.5q-9 -10 -19 -20l-20 -20q-20 -19 -41.5 -39t-45.5 -41q-54 -45 -111.5 -86t-121.5 -60q-1 20 -2 43.5t-1 45.5q0 17 0.5 35.5t0.5 37.5v8.5l1 9.5 q0 23 0.5 45.5t0.5 43.5q0 22 -0.5 42.5t-2.5 38.5v0z"
         id="glyph78" /><glyph
         glyph-name="m"
         unicode="l"
         horiz-adv-x="584"
         d="M302 770v-550q18 -5 36.5 -7t37.5 -2q24 0 47 2.5t47 6.5q23 3 45 5.5t44 2.5q-3 -17 -8 -34t-12 -34q-5 -13 -11.5 -27t-11.5 -29q-11 -25 -21 -49.5t-17 -51.5l-444 -3l-7 17q9 68 13 139.5t5 143.5v20.5v20.5q0 113 -5.5 222t-12.5 207l12 10l263 -10v0zM185 672h-28 l-7 -575l256 -5q2 0 4 1t5 2l6.5 6.5l6.5 8.5q1 2 1.5 4t0.5 4v1.5l-1 1.5q-7 1 -14 1h-16q-14 0 -29.5 -0.5t-30.5 -1.5q-8 0 -16 -0.5t-16 -0.5q-8 -1 -15.5 -1h-16.5q-23 0 -43 2t-39 6q-1 29 -2.5 58.5t-1.5 60.5t0.5 62t1.5 63v38l2 38v26v26q0 45 -2 88.5t-6 85.5v0z "
         id="glyph79" /><glyph
         glyph-name="n"
         unicode="m"
         horiz-adv-x="1083"
         d="M640 779q6 -1 13 -2t15 -1t17 0.5t18 1.5q8 1 17.5 1.5t17.5 0.5q22 0 39.5 -6t24.5 -26q22 -94 52.5 -184.5t61.5 -179.5q2 -5 4 -9.5t4 -9.5q32 -87 61 -175t49 -180l-18 -8h-29l-31 -1h-23.5h-24.5q-35 0 -68.5 1t-63.5 5q-12 30 -17.5 61.5t-9.5 63.5q-1 2 -1 4v4 q-5 36 -13 71.5t-24 68.5q-14 -28 -26.5 -57t-22.5 -58q-3 -8 -6.5 -16t-6.5 -16q-12 -34 -25 -66.5t-29 -64.5q-3 1 -7.5 1.5t-8.5 0.5h-4.5h-4.5q-9 0 -18 -0.5t-18 -1.5t-18.5 -1.5t-18.5 -0.5q-28 0 -48 11.5t-19 45.5v4v5q-10 18 -18 38.5t-14 41.5q-1 4 -2.5 8t-2.5 7 q-9 30 -19 57t-27 46q-16 -62 -30.5 -126t-21.5 -131q-31 -3 -62 -4.5t-63 -1.5q-31 0 -61 1.5t-60 4.5q14 87 35 173t43 171l4 16l4 16q25 93 47.5 187t38.5 190l12 14l157 -5q17 -55 36 -110t40 -109q5 -15 11 -31t11 -32q4 -12 9 -23.5t9 -23.5l16 6q15 37 27.5 74.5 t24.5 75.5q1 4 3 8t3 9q13 42 27.5 83.5t32.5 82.5v0zM528 177l-39.5 91q-39.5 91 -87.5 201q-23 52 -44.5 102.5t-39.5 90.5q-18 -72 -37 -143.5t-38 -141.5q-19 -72 -38.5 -143t-37.5 -142h28q9 40 19 78.5t21 77.5q2 8 5 16.5t5 18.5q18 69 35 137t28 140l18 33 q16 -40 34 -80l36 -80q34 -77 67.5 -153.5t59.5 -156.5l13 -3q43 109 79.5 220.5t71.5 223.5l14 24q7 -25 33 -96.5t54 -152.5q30 -83 56 -154.5t33 -91.5l2 -0.5q2 -0.5 5 -1.5q1 0 3 -0.5t4 -0.5h4h4q5 0 6.5 1.5t-3.5 5.5q-10 17 -45 113t-75 209l-2 6l-2 6 q-22 60 -42 118.5t-37 105.5l-170 -478v0z"
         id="glyph80" /><glyph
         glyph-name="o"
         unicode="n"
         horiz-adv-x="827"
         d="M38 777q14 2 28.5 2.5t27.5 0.5q22 0 43 -1.5t42 -2.5q14 -1 28.5 -2t29.5 -2q33 -55 76.5 -106.5t90.5 -100.5q28 -29 54.5 -57.5t51.5 -55.5l8 -10l8 -10h14q5 27 7 53.5t2 53.5t-1.5 52.5t-2.5 52.5q-2 27 -3.5 53.5t-1.5 52.5q20 3 40 5.5t41 4.5q40 6 80 11t80 9 l7 -17q-7 -89 -10 -186t-3 -195t2 -194.5t4 -181.5q-23 -3 -48.5 -4.5t-52.5 -1.5q-26 0 -52 1.5t-50 4.5q-18 23 -36 45.5t-35 44.5q-5 6 -10 13t-10 13q-46 60 -93.5 117t-105.5 102l-6 -335h-232q-2 6 -3 13t-1 14q0 8 1 16t2 17v2.5v2.5q1 7 1.5 14t0.5 14v3.5v3.5 l-0.5 4l-0.5 4q1 74 0.5 150t-1.5 152q-1 92 -4 183t-7 178v0zM645 160q-48 45 -93.5 94.5t-90.5 101.5q-18 20 -36 41.5t-37 41.5q-54 62 -112 124.5t-122 118.5q-1 -23 -1 -46v-46q0 -43 1 -86.5t2 -87.5v-19l1 -20l2 -106l1 -104v-37.5l-1 -37.5h3.5h2.5q2 -1 3.5 -1h2.5 q3 0 6 1t4 4v517q52 -56 103 -108.5t99 -105.5q49 -51 96 -103t94 -108q19 -24 39.5 -47.5t40.5 -48.5h20v585h-0.5h-1.5h-1.5h-0.5q-7 0 -12 -3.5t-7 -8.5l-5 -505v0z"
         id="glyph81" /><glyph
         glyph-name="p"
         unicode="o"
         horiz-adv-x="888"
         d="M266 757q40 9 83 15t87 8h12.5h12.5q97 0 186 -35.5t143 -134.5q33 -38 45.5 -84.5t12.5 -95.5q0 -13 -0.5 -26t-2.5 -26q-4 -43 -14 -85.5t-20 -79.5q-1 -3 -1.5 -5.5t-1.5 -4.5q-44 -73 -114.5 -133.5t-156.5 -69.5q-115 2 -219.5 23t-174.5 115q-53 50 -76.5 116.5 t-25.5 135.5v5.5v4.5q0 27 2.5 52.5t7.5 50.5q25 83 79.5 150t135.5 104v0zM692 572q-42 44 -89 71.5t-101 39.5q-16 3 -32 4.5t-33 1.5q-47 0 -91 -15t-80 -45q-57 -44 -87.5 -109t-30.5 -138q0 -8 1 -17t2 -17q0 -9 1.5 -17.5t3.5 -17.5q28 -87 99.5 -143t160.5 -68 q8 -1 16 -1h15q94 0 171.5 48t119.5 133q7 26 11 52t4 54q0 51 -14.5 99t-46.5 85v0zM498 657q45 -6 85 -31.5t71 -56.5q3 -2 6 -4.5t5 -4.5q29 -38 44.5 -85t15.5 -96q0 -8 -1 -17t-2 -17q-1 -9 -2.5 -18t-3.5 -17q-22 -71 -83 -117.5t-130 -59.5q-5 -1 -11 -2l-12 -2h-2.5 h-2.5h-3h-3q-7 0 -15 0.5t-15 0.5q-72 6 -136.5 42t-100.5 104q-13 24 -19 51t-6 56v8.5l1 9.5q2 38 14.5 75t32.5 66q45 55 99.5 88t120.5 33h9l9 -1q8 0 16.5 -1.5t18.5 -3.5v0zM612 467q-23 45 -67 71.5t-93 29.5h-5h-6q-32 0 -61 -10.5t-52 -32.5q-27 -26 -42.5 -58.5 t-15.5 -69.5q0 -10 1.5 -21.5t4.5 -23.5q26 -48 71 -89t98 -45q42 2 78 21.5t67 48.5q20 19 29 45.5t9 55.5q0 20 -3.5 40.5t-12.5 37.5v0z"
         id="glyph82" /><glyph
         glyph-name="q"
         unicode="p"
         horiz-adv-x="633"
         d="M42 780q34 -5 71 -6.5t74 -2.5h9h10h7.5h7.5q106 -2 202.5 -26t144.5 -133q18 -24 27 -53.5t10 -60.5v-5v-6q0 -20 -2.5 -40t-7.5 -38q-17 -55 -63.5 -93t-98.5 -57q-1 0 -2 -0.5t-2 -0.5l-139 -12q-7 -26 -10.5 -51.5t-3.5 -52.5q0 -20 2 -40.5t3 -41.5q1 -15 2 -30.5 t2 -29.5l-255 12q3 63 4.5 146t3.5 169q2 170 3 311.5l1 141.5v0zM471 600q-39 56 -99 71.5t-124 15.5q-13 1 -26 0.5t-25 -0.5h-17.5h-17.5h-4h-4h-4.5h-4.5l-4 -589q-1 -1 -1 -2v-2l2 -2l5 -1h4.5l3.5 1h4h3l0.5 10.5q0.5 10.5 1.5 27.5q0 18 0.5 42t0.5 48v9.5v9.5v41.5 l-2 34.5q22 4 44.5 6t47.5 3q5 0 10 0.5t9 0.5q74 4 139 24t89 101q2 6 2.5 11.5t1.5 10.5t1 10.5v12.5q0 29 -9.5 56t-26.5 49v0zM166 666q6 0 12.5 -0.5t14.5 -0.5h13.5h12.5q73 -1 139 -15t107 -85q6 -20 10.5 -42.5t4.5 -46.5v-8.5l-1 -8.5q0 -4 -1 -9t-2 -9 q-33 -57 -89 -76.5t-118 -21.5h-8.5h-8.5h-13l-14 1q-7 0 -13.5 0.5t-12.5 0.5h-30l-3 321v0zM385 535q-10 26 -34.5 37.5t-52.5 16.5q-6 2 -11.5 3t-12.5 2q-5 -18 -7.5 -39t-2.5 -43v-8v-8q1 -17 3.5 -34t6.5 -31h6h6q2 -1 4.5 -1h5.5q24 0 44 5t38 20q8 8 11 17.5t3 20.5 q0 9 -1.5 17.5t-3.5 16.5q-1 1 -1.5 3t-0.5 5v0z"
         id="glyph83" /><glyph
         glyph-name="r"
         unicode="q"
         horiz-adv-x="892"
         d="M559 765l20 -6l19 -7q59 -20 114.5 -52.5t87.5 -95.5q26 -44 40 -95t13 -103q0 -50 -15.5 -99.5t-47.5 -91.5q-19 -10 -27.5 -21.5t-8.5 -22.5q0 -9 5 -19t11 -20q3 -4 6.5 -8.5t6.5 -8.5q10 -13 19 -25.5t11 -23.5q3 -12 11.5 -22t16.5 -19q11 -12 20 -25t9 -31v-4.5 l-1 -5.5l-241 19q-6 32 -20.5 43.5t-34.5 11.5q-14 0 -30.5 -4t-33.5 -10q-8 -3 -16 -5l-16 -4q-9 -2 -19.5 -3.5t-19.5 -1.5q-8 0 -15.5 1t-15.5 4q-100 7 -186.5 63t-142.5 142q-22 38 -32 82t-12 89v8v8q0 57 12 112t35 99q67 82 161.5 123.5t198.5 41.5q14 0 29 -1 t31 -2q14 -2 29 -4.5t29 -5.5v0zM719 535q-26 49 -75 92.5t-103 58.5q-1 0 -2.5 0.5t-2.5 0.5q-26 7 -51 10t-52 3q-65 0 -125 -21.5t-107 -65.5q-39 -37 -60 -88.5t-23 -105.5v-5v-4q0 -19 2.5 -38t7.5 -37q24 -69 77 -126t120 -80q27 -7 55 -11t56 -3q48 0 95.5 10 t85.5 32q10 -9 18.5 -21t15.5 -24q1 -3 2.5 -6t3.5 -5q11 -19 24 -34.5t33 -18.5q-4 9 -9.5 18.5t-12.5 18.5q-3 5 -6 9t-6 9q-12 17 -23.5 36t-15.5 40l64 70q19 28 30 65.5t14 77.5v8v9q0 36 -8 68t-22 58v0zM424 683h4.5h4.5q85 0 158.5 -45t106.5 -126q12 -23 18.5 -48 t5.5 -51q0 -50 -19 -98t-51 -84q-39 -47 -96.5 -71t-121.5 -24q-22 0 -43 3t-43 8q-54 17 -100.5 57.5t-76.5 90.5q-13 27 -20.5 57t-7.5 62q0 31 7.5 60.5t20.5 54.5q29 70 88 101.5t124 45.5q10 2 20.5 3.5t20.5 3.5v0zM600 481q-26 54 -73.5 83.5t-105.5 31.5 q-45 -9 -86 -31t-71 -60q-11 -18 -16.5 -40t-5.5 -45v-7.5l1 -6.5q1 -11 3.5 -22t5.5 -22q23 -47 63 -81.5t92 -42.5q6 -1 12 -2.5t11 -1.5q32 0 59.5 15.5t52.5 35.5q2 1 3.5 2.5t3.5 2.5q31 23 42.5 57.5t12.5 72.5v3.5v3.5q0 14 -1 27.5t-3 26.5v0z"
         id="glyph84" /><glyph
         glyph-name="s"
         unicode="r"
         horiz-adv-x="762"
         d="M57 754h4h5h4h4q37 0 75.5 4t78.5 9q13 1 26 2.5t27 2.5q29 3 57.5 5t55.5 2q58 0 113 -13t100 -52q48 -37 69.5 -91t21.5 -111q0 -8 -0.5 -16.5t-0.5 -16.5l-2 -16l-3 -17q-16 -30 -41 -57t-52 -51q-11 -10 -21.5 -19.5t-20.5 -18.5q15 -35 36 -67t44 -64l1.5 -1.5 l0.5 -1.5q27 -36 50.5 -73t38.5 -78q-24 -9 -49 -12t-51 -3q-9 0 -19.5 0.5t-19.5 0.5q-10 1 -20 1.5t-19 1.5q-10 0 -20 1t-19 1q-18 23 -36 47t-37 48q0 1 -0.5 2t-1.5 1q-29 40 -58 78t-61 68h-0.5h-1.5h-1.5h-0.5q-10 0 -12 -6.5t-2 -15.5q0 -5 -0.5 -10t-3.5 -8 l-10 -200h-240l-10 14q4 44 7 88t4 88q4 85 3.5 170t-1.5 169q-1 53 -1 105v104l10 6v0zM562 601q-20 33 -53 58t-71 32q-26 5 -51.5 7t-51.5 2q-43 0 -86.5 -5t-87.5 -13l-3 -563v-0.5v-0.5q1 -6 5.5 -11.5t9.5 -5.5q3 0 5.5 1t4.5 4v210l38 0.5q38 0.5 84 1.5q25 1 48 2.5 t40 2.5q12 -18 24.5 -37t24.5 -37q1 -1 1.5 -2.5t1.5 -3.5q27 -40 54.5 -79.5t62.5 -74.5q1 0 2 -0.5t3 -0.5q1 0 1.5 -0.5t1.5 -0.5h1.5h1.5h1.5h0.5q1 1 3 2t2 2q-11 15 -22.5 31t-22.5 32q-3 4 -6.5 8.5t-6.5 8.5q-29 40 -56.5 80t-49.5 83l16 6l17 7q36 16 68.5 43 t48.5 62q5 13 9 27.5t5 28.5q1 5 1 9.5v9.5q0 19 -4.5 38.5t-14.5 35.5v0zM189 664q13 1 27 2t29 2q14 2 29 3t29 2q11 0 22 0.5t22 0.5q60 0 112 -18t81 -72q5 -11 8 -24t4 -25q1 -6 1.5 -12.5t0.5 -12.5q0 -18 -4.5 -36t-14.5 -33q-39 -58 -99 -77.5t-124 -23.5 q-19 -1 -38.5 -1.5t-39.5 -0.5h-2.5h-3.5h-7.5h-6.5h-7.5h-7.5l-16 13l6 313v0zM454 550q-16 31 -46.5 48.5t-63.5 17.5q-12 0 -24 -3t-23 -8q1 -9 1 -17.5v-17.5v-16v-16q-1 -8 -1 -16.5v-16.5q0 -23 2.5 -46t12.5 -45q6 2 12.5 3t12.5 1q13 2 27 5.5t24 13.5q1 1 2.5 1.5 t2.5 1.5q25 15 45 38t20 49v6l-1 6q0 3 -1 5.5t-2 5.5v0z"
         id="glyph85" /><glyph
         glyph-name="t"
         unicode="s"
         horiz-adv-x="495"
         d="M455 748v-23q-45 -33 -81 -83.5t-50 -104.5q3 -40 20 -77t37 -73q3 -5 6 -10.5t7 -11.5q17 -33 31 -66.5t14 -69.5q0 -18 -4.5 -36.5t-14.5 -38.5q-27 -52 -60.5 -99t-88.5 -74q-10 3 -19.5 6t-20.5 6q-9 3 -18 5t-19 4q-39 11 -78 24t-75 34q5 5 10 11t10 11 q31 34 57.5 72.5t29.5 83.5v3.5l2 3.5v3.5v3.5q0 40 -18 73.5t-40 65.5q-3 4 -5.5 8t-5.5 9q-18 29 -32.5 58.5t-14.5 61.5q0 14 3.5 30t11.5 33q20 59 63.5 111t90.5 93q1 1 2.5 2t2.5 2l247 -51v0zM278 690h-2.5h-1.5h-2h-2q-17 0 -25.5 -10.5t-17.5 -24.5q-1 -1 -1.5 -2 t-1.5 -2q-4 -9 -9.5 -16.5t-13.5 -13.5q-16 -23 -23 -45.5t-7 -44.5q0 -39 17.5 -76.5t37.5 -75.5l10 -18l10 -18q15 -29 25.5 -58t10.5 -59t-15.5 -60.5t-52.5 -63.5l10 -10q48 29 67.5 61t19.5 67q0 39 -17.5 79.5t-37.5 82.5q-4 8 -8 16.5t-8 16.5q-14 31 -25.5 61.5 t-13.5 60.5q1 24 12.5 44.5t26.5 40.5q4 5 7.5 9.5t6.5 9.5q8 12 14.5 24.5t9.5 24.5v0z"
         id="glyph86" /><glyph
         glyph-name="u"
         unicode="t"
         horiz-adv-x="716"
         d="M685 766q-1 -33 -9 -65.5t-18 -65.5q-8 -26 -14 -51t-10 -50q-14 0 -29 2.5t-31 5.5q-14 3 -30 5.5t-32 2.5h-10.5l-11.5 -1q-7 -66 -10 -128t-3 -123q0 -47 1.5 -95.5t2.5 -99.5l13 -103h-276l-9 12q6 51 10.5 101t8.5 100q3 49 5.5 99t2.5 101q1 37 -1 73.5t-4 74.5 q-6 2 -12 3t-11 2q-6 0 -12.5 0.5t-12.5 0.5q-16 0 -32.5 -2t-31.5 -4q-16 -3 -31.5 -5t-31.5 -2q-6 0 -12 0.5t-12 1.5q5 15 9 30.5t9 30.5v2.5l1 2.5q11 41 24 81t30 77q66 -9 134 -12t138 -3q29 0 58 0.5t58 0.5h18.5h19.5q38 1 77 1t77 -1v0zM572 684l-352 2 q-3 -3 -9.5 -4.5t-14.5 -2.5h-3h-3q-12 -2 -22 -6t-10 -18v-0.5v-1.5v-1.5v-0.5q13 -2 27.5 -2.5t28.5 -0.5h18.5l18.5 1h18h17q14 0 28 -1t25 -3v-550l34 -1l1 540l6 12h163l29 38v0z"
         id="glyph87" /><glyph
         glyph-name="v"
         unicode="u"
         horiz-adv-x="822"
         d="M54 770q28 3 57.5 5.5t60.5 3.5q12 0 23.5 0.5t22.5 0.5q23 0 45 -1.5t41 -3.5q12 -101 14.5 -201.5t2.5 -199.5v-12v-11v-32.5v-31.5q0 -16 0.5 -32.5t0.5 -33.5q15 -10 35.5 -14t42.5 -4q8 0 16.5 0.5t16.5 0.5q5 1 11 1.5t11 0.5q10 1 20.5 2t20.5 1l22 22l53 535 q23 6 46.5 8t48.5 2q10 0 20 -0.5t21 -0.5h7h7q7 -1 13.5 -1h14.5h6.5l6.5 1h6.5h6.5l10 -33q-4 -46 -7 -92.5t-5 -92.5q-1 -46 -2 -92.5t-1 -92.5q0 -88 3 -176t7 -173l-255 -6q-4 6 -5.5 14t-2.5 15v2v2q-2 11 -4.5 21t-11.5 15q-47 -13 -91.5 -36t-87.5 -50 q-29 5 -64 14.5t-71 20.5q-13 4 -27 8.5t-27 8.5q-27 9 -51.5 18t-44.5 16q9 84 16.5 165t11.5 161q2 32 2.5 64t0.5 64q0 56 -3.5 113.5t-10.5 116.5v0zM209 672v1.5l1 0.5v1.5v0.5q-1 6 -5.5 9t-10.5 3q-4 0 -9 -1.5t-7 -6.5q2 -35 3 -70.5t1 -69.5q0 -19 -0.5 -39.5 t-0.5 -40.5q-2 -50 -4.5 -100t-5.5 -100q0 -10 -0.5 -20.5t-1.5 -20.5v-3.5v-3.5q-1 -1 -1 -2.5v-3.5q1 -44 28.5 -60.5t60.5 -25.5l6 -2l6 -1q9 -3 18 -5.5t17 -6.5q9 1 19 3t19 4q19 3 37.5 6t37.5 6q49 9 98.5 16.5t100.5 11.5q8 -1 12 -5.5t6 -9.5v-0.5v-0.5 q2 -5 5.5 -9t12.5 -4h0.5h1.5l8 8q1 27 1 55.5v59.5q1 20 1 40.5v42.5v42.5v42.5q1 68 4.5 133t12.5 125l-0.5 0.5l-1.5 1.5q-2 2 -5 4t-7 2q-1 1 -3 1t-5 -1q-6 -42 -9.5 -97.5t-5.5 -113.5q-3 -88 -3 -167.5v-111.5v-12.5v-4.5q-33 -3 -68 -7t-72 -9q-46 -7 -91 -15.5 t-85 -18.5q-41 8 -74 24t-60 44q2 30 4 59.5t4 57.5q1 20 2.5 40.5t2.5 40.5q3 48 5 97.5t2 99.5v14v14q-1 14 -1 28.5t-1 29.5v0z"
         id="glyph88" /><glyph
         glyph-name="w"
         unicode="v"
         horiz-adv-x="817"
         d="M50 766q8 -1 17 -1.5t17 -0.5q23 0 44.5 2.5t42.5 5.5q12 2 24 3.5t24 2.5q10 1 21.5 1.5t22.5 0.5q8 0 17 -0.5t17 -1.5q10 -30 20 -59t20 -59q19 -58 39.5 -117t43.5 -117q34 57 54.5 122.5t38.5 133.5q1 4 1.5 7.5t1.5 7.5q5 19 10.5 39t11.5 39q11 2 22.5 2.5 t23.5 0.5q23 0 44.5 -2t44.5 -4q23 -3 45.5 -5t46.5 -2h3.5h3.5h3.5h3.5l1 -39l-241 -712q-19 -8 -39.5 -11t-40.5 -3q-13 0 -26 1l-26 2q-13 0 -26.5 1t-27.5 1h-8.5l-8.5 -1q-5 0 -9 -0.5t-10 -0.5q-39 93 -74 189.5t-69 192.5q-3 9 -6 17.5t-6 16.5q-30 84 -60.5 168 t-64.5 166l13 13v0zM205 689q-1 1 -3.5 1h-4.5q-6 0 -11.5 -3t-4.5 -8v-1.5v-0.5q0 -1 0.5 -1.5t0.5 -1.5l214 -573h55q23 70 47 138.5t49 137.5l6 16l6 17q23 60 45 120.5t42 121.5l-1 32h-21l-192 -554h-12q-12 32 -24 63t-23 62q-6 15 -12 31t-11 31q-35 94 -70 187.5 t-75 184.5v0z"
         id="glyph89" /><glyph
         glyph-name="x"
         unicode="w"
         horiz-adv-x="1081"
         d="M296 774l22 -63l6 -26l6 -27q9 -44 18.5 -87t23.5 -84q25 36 40 77.5t28 84.5q0 2 0.5 3t0.5 2q9 30 19 59t23 57q19 5 40 6t43 0h11h11h13.5l13.5 1q18 -32 31.5 -65t25.5 -68q1 -1 1.5 -2t0.5 -2q12 -36 25.5 -70t32.5 -67l13 13l49 262h10.5h10.5q14 0 28 0.5t29 0.5 h5.5h6.5q11 1 23 1h23q27 0 53 -2t50 -8q-17 -102 -41.5 -202t-50.5 -199q-1 -6 -2.5 -11.5t-2.5 -10.5q-20 -80 -40 -160.5t-38 -161.5l-22 -18q-4 1 -8.5 1.5t-7.5 0.5h-8h-8h-9.5l-10.5 -1h-4.5h-4.5q-7 0 -14 -0.5t-16 -0.5q-3 0 -5.5 0.5t-5.5 0.5q-6 0 -12 0.5 t-13 1.5q-28 49 -47 102t-37 107q-2 7 -4.5 14.5t-5.5 14.5q-8 27 -17 53t-19 51l-23 -22l-103 -322q-8 -1 -17.5 -2t-18.5 -2q-6 0 -12.5 -1t-12.5 -1q-8 -1 -15.5 -1.5t-16.5 -0.5q-22 0 -39.5 5t-28.5 20q-33 119 -71.5 234.5t-79.5 230.5q-2 6 -4 12.5t-4 13.5 q-22 60 -42.5 121t-41.5 123q52 7 105.5 10.5t109.5 3.5h16.5h15.5v0zM913 698h-17q-35 -121 -66 -242.5t-60 -243.5l-12 -16q-27 49 -48 101t-39 104q-2 6 -4.5 12.5t-4.5 12.5q-24 65 -49 128t-60 121q-12 -37 -26 -74.5t-27 -75.5q-28 -75 -54 -152t-47 -158l-17 -17 q-28 67 -52 134.5t-45 136.5q-2 4 -3 8t-3 8q-16 50 -33.5 100.5t-35.5 100.5h-0.5h-1.5h-1.5h-0.5h-1.5h-1.5h-3.5h-2.5q-4 0 -6.5 -0.5t-3.5 -3.5q11 -33 22.5 -66t22.5 -66q3 -10 7 -20.5t7 -19.5q34 -101 69 -201.5t73 -195.5q11 44 25.5 86.5t29.5 85.5q3 10 7 20t8 22 q20 56 39.5 114t33.5 117l25 48q29 -56 54 -114t48 -115q4 -11 8.5 -21.5t9.5 -20.5q23 -56 45.5 -111.5t49.5 -108.5q19 72 38 145t37 147q17 74 34 147t33 144v0z"
         id="glyph90" /><glyph
         glyph-name="y"
         unicode="x"
         horiz-adv-x="933"
         d="M309 780q36 -47 74 -98.5t78 -107.5q29 9 47.5 34.5t34.5 54.5l6 12l7 13l6.5 13l7.5 13q1 1 1.5 2.5t0.5 3.5q2 4 4.5 8t4.5 8q5 12 12 24t17 20l246 -66v-33q-20 -37 -47.5 -70t-54.5 -66q-1 -1 -1.5 -2t-1.5 -2q-34 -39 -66 -79.5t-51 -86.5q33 -32 61.5 -65.5 t56.5 -66.5q5 -6 10 -12.5t10 -12.5q29 -35 58.5 -68.5t61.5 -65.5q-33 -25 -75 -38t-85 -23q-1 -1 -2 -1h-2q-19 -5 -39 -10.5t-39 -11.5l-23 3q-6 8 -13 17t-13 18q-8 10 -15 21t-15 22q-23 33 -48 62.5t-58 46.5q-20 -20 -35 -44t-28 -49q-2 -3 -4 -6.5t-3 -6.5 q-12 -23 -24.5 -44.5t-28.5 -39.5q-58 6 -114 16t-111 22q-16 4 -31.5 7.5t-32.5 7.5q17 25 35 49l36 48q3 4 5 7l4 6q41 54 81 110t79 114l-8 36q-23 29 -49.5 56.5t-53.5 55.5q-1 0 -2 1l-2 2q-37 38 -72.5 76.5t-62.5 81.5l266 84v0zM359 521l-104 125q-2 2 -5.5 3.5 t-6.5 2.5h-3h-2q-4 0 -9 -1.5t-8 -4.5q18 -33 45 -62.5t56 -58.5l3 -3l3 -3q33 -33 63 -67t49 -73l-199 -250l1 -17h13q31 28 56 58t49 61q8 11 17 22t17 22q17 22 36 43.5t39 41.5q19 -22 36 -41.5t34 -37.5q7 -8 13.5 -16.5t13.5 -17.5q12 -14 24 -30t25 -34q7 -5 14 -13 t14 -17q11 -14 23 -27t29 -13q2 0 4.5 0.5t6.5 1.5q-22 31 -45 60t-48 56q-17 20 -34.5 40.5t-35.5 41.5q-14 16 -28 34.5t-29 36.5q20 31 43.5 60.5t48.5 58.5q3 4 5.5 7.5t5.5 7.5q26 31 50.5 62t46.5 65q-1 1 -1.5 2t-1.5 1q-1 2 -2 3t-1 2q-2 2 -3.5 2.5t-3.5 -0.5 q-39 -38 -76.5 -82.5t-73.5 -90.5q-12 -17 -25 -34t-25 -33q-19 10 -34.5 26t-29.5 32q-1 0 -1.5 0.5t-0.5 1.5q-11 12 -22.5 24t-25.5 22v0z"
         id="glyph91" /><glyph
         glyph-name="z"
         unicode="y"
         horiz-adv-x="808"
         d="M37 768q25 1 48 2.5t45 3.5q17 1 34 2.5t34 2.5q11 0 22 0.5t23 0.5h16.5l18.5 -1q8 0 16.5 -1t16.5 -2l110 -151q27 22 44.5 53t29.5 64q3 7 5 15t4 15l269 2l-12 -58l-334 -716l-314 10v23q60 82 107.5 170.5t88.5 178.5l-3 22q-75 88 -144 179t-125 185v0zM254 684 h-29q26 -42 56 -82t61 -80q2 -2 3.5 -4t2.5 -3q25 -32 49 -63t46 -64l-144 -279q1 0 2.5 0.5t2.5 0.5h2.5h2.5h7h7l7 0.5l5 2.5l285 559l-29 5q-17 -26 -30.5 -53.5t-26.5 -55.5q-1 -1 -2 -3t-2 -3q-15 -35 -32.5 -69t-40.5 -64q-8 10 -17.5 20.5t-17.5 20.5 q-44 51 -86.5 105t-81.5 109v0z"
         id="glyph92" /><glyph
         glyph-name="braceleft"
         unicode="z"
         horiz-adv-x="838"
         d="M801 780v-32q-98 -117 -179 -246t-149 -261q0 -1 0.5 -2t1.5 -2q2 -6 6.5 -11.5t12.5 -5.5h1.5h1.5l298 -19l-33 -191l-29 -10q-69 6 -143.5 9t-150.5 4q-25 1 -50 1h-50q-71 1 -139 0t-131 -3l-1 39q28 49 60 98t65 97q5 7 9.5 14t9.5 14q45 67 86.5 134t71.5 136 q-24 8 -48 11t-48 3q-38 0 -75.5 -6t-74.5 -13q-22 -4 -43.5 -8.5t-42.5 -7.5l2 52l3 52q2 38 7.5 75t16.5 72q62 1 125.5 0t128.5 -2h23.5l24.5 -1q111 -1 220 -0.5t212 10.5v0zM145 666v-2.5v-3.5q-1 -2 -1 -3v-3q0 -4 1.5 -6.5t6.5 -4.5q29 2 57 2.5t55 0.5 q71 0 140.5 -3t138.5 -7q-31 -57 -65 -113t-68 -111q-2 -2 -3 -4t-3 -5q-46 -73 -89.5 -145.5t-78.5 -147.5q36 -1 72.5 -2.5t73.5 -2.5h2h2q54 -1 108 -2.5t105 -1.5h40.5l40.5 1l6 28q-61 7 -123 8t-126 0h-46h-47l-52 5q27 42 53 85t52 87q26 42 51 84.5t51 85.5 q28 46 55 92.5t54 92.5q-39 0 -77.5 1t-77.5 2q-9 0 -19 0.5t-20 0.5q-25 1 -49 1.5t-49 0.5q-43 0 -86 -2t-85 -8v0z"
         id="glyph93" /><glyph
         glyph-name="bar"
         unicode="{"
         id="glyph94" /><glyph
         glyph-name="braceright"
         unicode="|"
         id="glyph95" /><glyph
         glyph-name="asciitilde"
         unicode="}"
         id="glyph96" /><glyph
         glyph-name="bullet"
         unicode="~"
         id="glyph97" /><glyph
         glyph-name="glyph135"
         unicode="₦"
         id="glyph98"
         d="m 296.72373,634.76744 c -13.65331,17.87346 -27.3515,35.90325 -41.12521,54.22242 v -54.15492 l -24.34891,0.0438 c -0.0651,9.77261 -0.13078,19.57441 -0.13078,29.27713 v 49.68786 c 0,16.56226 0.29381,33.12517 0.87745,49.68787 37.31725,-40.32634 72.88191,-83.17339 106.70078,-128.54051 0.0651,-0.0871 0.15267,-0.19599 0.21776,-0.28522 z m 151.15776,6.0145 c -27.40479,35.28554 -51.16453,67.66693 -76.8203,104.39278 -25.07242,37.44548 -47.23374,75.97201 -66.47548,115.57834 l -26.22795,2.1599 -24.49501,2.1599 -36.73718,2.16 c -12.24477,1.4392 -24.77568,2.1599 -37.6036,2.1599 l 0.0115,-0.022 v -0.011 c -7.58004,0 -15.74882,-0.3593 -24.49512,-1.08 -8.16318,0 -16.32077,-0.7207 -24.48388,-2.1599 2.33231,-62.64992 4.37171,-126.74032 6.12097,-192.27061 0.34491,-12.91541 0.55547,-25.9092 0.85505,-38.85248 L 46.841084,635.1492 -1.09e-4,504.30222 3.904276,493.97308 139.9271,494.50216 c 0.0653,-6.11662 0.1938,-12.19536 0.24755,-18.31807 0.2434,-22.83326 0.39762,-45.66739 0.5402,-68.50086 L 46.841194,407.83566 0,277 3.904391,266.67085 141.38996,267.1997 c 0.19161,-39.44907 0.0871,-78.53106 -0.33747,-117.22114 v -4.32051 l 0.86636,-4.32074 v -4.32075 -3.24051 c 0,-5.04057 -0.28326,-10.08137 -0.86636,-15.1224 0,-5.0408 -0.29462,-10.0816 -0.8777,-15.12235 v -3.24057 -2.15994 c -0.58309,-6.48091 -1.17228,-12.60165 -1.75538,-18.36291 -0.58309,-5.76063 -0.86637,-11.52189 -0.86637,-17.28275 0,-5.0408 0.28327,-10.0816 0.86637,-15.1224 0.5831,-5.04057 1.46666,-9.7212 2.63292,-14.04217 h 202.90356 l 3.40931,234.67841 104.86657,0.39405 c 24.10395,-35.7985 47.80338,-72.35346 71.03248,-109.77233 2.91548,-4.32075 5.82728,-9.0012 8.74271,-14.04223 2.91531,-5.04075 5.82705,-9.72166 8.74253,-14.04241 9.9124,-15.8424 20.12092,-32.0452 30.61621,-48.60766 10.49552,-15.8424 20.98707,-32.04497 31.48259,-48.60766 13.99407,-2.15994 28.57535,-3.96063 43.7356,-5.40091 15.16025,-0.72075 30.31946,-1.08 45.47972,-1.08 15.74337,0 30.90252,0.36121 45.47965,1.08 15.16008,1.43919 29.44721,3.24051 42.85821,5.40091 -1.16491,61.20978 -2.33328,126.38036 -3.49946,195.5111 -0.22641,13.5858 -0.41364,27.19688 -0.59661,40.81015 l 121.96929,0.4724 6.69493,6.88613 c 2.97292,13.31365 5.3887,26.61877 7.24596,39.93245 2.23138,13.31324 4.46511,26.63034 6.69493,39.94399 l 3.34185,20.65809 c 1.1148,6.88676 2.23587,13.54511 3.35286,19.972 l -3.90441,8.95655 -146.47558,0.22427 c -0.0173,10.92204 -0.0651,21.8369 -0.0651,32.77658 0,19.18988 0.087,38.34842 0.19587,57.48518 l 122.90329,0.47245 6.69494,6.8861 c 2.97297,13.31365 5.38876,26.63013 7.24602,39.94377 2.23137,13.31321 4.46511,26.63035 6.69493,39.94399 l 3.34179,20.65808 c 1.1148,6.88675 2.23593,13.5451 3.35291,19.972 l -3.9044,8.94522 -144.27036,0.22427 c 0.10888,5.36086 0.21776,10.7337 0.34854,16.09021 1.75056,69.85059 4.66104,136.82185 8.7427,200.91185 l -6.12094,18.3742 c -23.32358,-2.8804 -46.65154,-6.121 -69.97489,-9.7216 -23.32341,-3.6005 -46.64025,-7.5611 -69.96361,-11.88186 -12.24482,-1.43923 -24.19762,-3.24056 -35.8595,-5.40093 -11.66148,-1.43922 -23.33142,-3.24055 -34.99312,-5.40071 0,-18.72306 0.2938,-37.80604 0.87744,-57.24916 1.16492,-18.72306 2.33329,-37.80604 3.49947,-57.24916 0.58352,-19.44311 1.17142,-38.5263 1.75495,-57.24894 0.65323,-10.05937 1.07343,-20.39962 1.36084,-30.90884 l -124.41421,0.22209 c -0.57494,0.75554 -4.10517,5.37458 -4.78888,6.25009 z m 234.55979,117.30798 h 0.87745 0.86661 0.87745 0.8775 V 634.12903 l -21.00712,0.0438 0.88839,110.96512 c 1.16486,3.6007 3.20526,6.48111 6.12098,8.64149 2.91525,2.88042 6.41621,4.32052 10.49788,4.32052 z M 486.52519,584.01354 h 71.75271 c 58.08961,0 114.47439,-1.3369 169.14795,-4.00546 54.67356,-1.78107 102.51133,-6.22832 143.51654,-13.34479 -51.25054,-4.44484 -105.91321,-7.55868 -163.99475,-9.33888 -58.09007,-1.78107 -116.1893,-2.6666 -174.27891,-2.6666 h -71.75271 c -23.923,0 -46.13467,0.43984 -66.63293,1.32818 h -71.764 -76.8835 -87.13381 c -30.75851,0 -59.802626,-0.43984 -87.133826,-1.32818 v 2.6666 2.6666 c 0,6.22985 6.83517,11.1265 20.50076,14.68364 17.087516,3.55954 34.170056,5.78393 51.251866,6.67228 h 25.62023 20.5009 87.13378 c 34.17247,0.88837 66.64249,1.33908 97.3954,1.33908 h 15.36995 20.50091 z m 199.41533,-177.19282 -22.82975,0.0438 0.72069,89.65428 22.10906,0.0653 z m -115.96088,89.32702 c -0.13077,-0.89707 -0.23735,-1.78761 -0.37042,-2.68925 h -12.24195 l -1.69831,2.63307 z M 440.6516,495.63387 c 9.67114,-12.80742 19.15591,-26.07033 28.377,-39.98884 10.49529,-15.1226 20.99819,-29.88505 31.49371,-44.28716 1.00159,-1.42834 2.00313,-2.83796 3.00432,-4.26435 l -32.3938,0.0653 c -12.83226,16.9568 -25.76684,33.84936 -38.84118,50.6557 -9.24679,12.60906 -18.62441,25.16259 -28.06171,37.70197 z m -185.03563,-88.13819 -20.57948,0.0438 -0.405,26.52038 -0.8775,21.60349 v 20.52308 c -0.10888,6.29756 -0.23274,12.40874 -0.34853,18.67799 l 22.21034,0.0653 z m 230.90922,-50.814 h 71.75271 c 58.08984,0 189.02547,-2.21219 243.73515,-3.99433 32.55665,-1.06035 27.92413,-6.22812 68.92934,-13.34458 -51.25054,-4.44506 -31.32601,-7.55867 -89.40755,-9.33885 -58.09007,-1.7811 -190.77627,-2.67796 -248.86611,-2.67796 h -71.75271 c -23.923,0 -46.13467,0.45051 -66.63293,1.33907 h -71.764 -76.8835 -87.13381 c -30.7586,0 -59.802586,-0.4505 -87.133826,-1.33907 v 2.67796 2.66656 c 0,6.22985 6.83512,11.12628 20.50076,14.68365 17.087556,3.55955 34.170006,5.78396 51.251866,6.67229 h 25.62023 20.5009 87.13378 c 34.17247,0.88839 66.64226,1.32818 97.3954,1.32818 h 15.36995 20.50091 z M 685.94052,269.26657 V 126.18901 h -17.49659 c -11.66147,18.00257 -23.61468,35.28549 -35.85927,51.84823 -11.66188,17.28275 -23.02551,34.56566 -34.10433,51.84824 -8.938,13.15251 -17.87451,26.09619 -26.81303,38.9424 l 32.55148,0.13077 c 18.79688,-23.78561 37.87242,-46.89148 57.22674,-69.29972 l 0.56168,69.52486 z M 255.61597,267.61181 V 130.50866 c -0.58352,-2.15994 -1.73974,-3.60052 -3.48812,-4.32057 -1.74844,-0.72069 -3.50534,-1.07994 -5.25441,-1.07994 h -2.62174 c -0.58352,0 -1.45664,0.36121 -2.62173,1.07994 h -2.62156 -2.63309 l 0.8775,41.0464 v 39.9664 l -0.47239,60.3434 z"
         horiz-adv-x="950" /></font>
</defs>
</svg>
