<?xml version="1.0" encoding="UTF-8" standalone="no"?>
<!-- Created with Inkscape (http://www.inkscape.org/) -->

<svg
   width="23.074816mm"
   height="24.333639mm"
   viewBox="0 0 23.074816 24.333639"
   version="1.1"
   id="svg1"
   inkscape:export-filename="checkbox_checked.png"
   inkscape:export-xdpi="35.224552"
   inkscape:export-ydpi="35.224552"
   inkscape:version="1.3-dev (1:1.2.0-alpha1+devel+202207092234+3c2958b9eb)"
   sodipodi:docname="checkboxes.svg"
   xmlns:inkscape="http://www.inkscape.org/namespaces/inkscape"
   xmlns:sodipodi="http://sodipodi.sourceforge.net/DTD/sodipodi-0.dtd"
   xmlns="http://www.w3.org/2000/svg"
   xmlns:svg="http://www.w3.org/2000/svg">
  <sodipodi:namedview
     id="namedview1"
     pagecolor="#0f9d00"
     bordercolor="#666666"
     borderopacity="1.0"
     inkscape:showpageshadow="2"
     inkscape:pageopacity="0.0"
     inkscape:pagecheckerboard="0"
     inkscape:deskcolor="#00500e"
     inkscape:document-units="mm"
     showgrid="false"
     inkscape:zoom="2.8284271"
     inkscape:cx="-78.842406"
     inkscape:cy="47.022601"
     inkscape:window-width="1920"
     inkscape:window-height="939"
     inkscape:window-x="0"
     inkscape:window-y="32"
     inkscape:window-maximized="1"
     inkscape:current-layer="layer1" />
  <defs
     id="defs1" />
  <g
     inkscape:label="Layer 1"
     inkscape:groupmode="layer"
     id="layer1"
     transform="translate(-114.90544,-123.16736)">
    <text
       xml:space="preserve"
       style="font-size:12.7px;line-height:1.25;font-family:African;-inkscape-font-specification:African;stroke-width:0.264583"
       x="66.471642"
       y="130.19153"
       id="text3"><tspan
         sodipodi:role="line"
         id="tspan3"
         style="stroke-width:0.264583"
         x="66.471642"
         y="130.19153" /></text>
    <g
       aria-label="V"
       id="g4"
       style="font-size:12.7px;line-height:1.25;font-family:African;-inkscape-font-specification:African;stroke:none;stroke-width:0;stroke-dasharray:none;stroke-opacity:1"
       transform="matrix(1.1536845,0,0,1.1536845,2.9964483,-21.154484)" />
    <text
       xml:space="preserve"
       style="font-size:12.7px;line-height:1.25;font-family:African;-inkscape-font-specification:African;stroke-width:0.264583"
       x="136.83372"
       y="145.38068"
       id="text6"><tspan
         sodipodi:role="line"
         id="tspan6"
         style="stroke-width:0.264583"
         x="136.83372"
         y="145.38068" /></text>
    <g
       id="g7"
       transform="translate(-9.0685692,5.7689059)">
      <path
         id="rect5"
         style="color:#000000;fill:#000000;fill-opacity:1;stroke:#000000;stroke-width:1;stroke-linecap:round;stroke-dasharray:none;stroke-opacity:1"
         d="m 93.329457,130.13838 v 0.59944 c 0.22291,4.73302 0.0589,11.14748 0,17.10542 6.45542,-0.5199 11.399213,0.15551 17.705373,0 v -15.4125 l 4.13514,-6.26215 0.13075,-0.5426 -0.0413,-0.0119 -0.0553,-0.0145 -0.0553,-0.015 -0.0419,-0.0114 c -0.22113,-0.0593 -0.43484,-0.12685 -0.64182,-0.20205 -0.19777,-0.0727 -0.39906,-0.15115 -0.60358,-0.23565 -0.20698,-0.0752 -0.40943,-0.14889 -0.6072,-0.22169 -0.18855,-0.0703 -0.38856,-0.13389 -0.60048,-0.19069 -0.11057,-0.0296 -0.22234,-0.0545 -0.33538,-0.0749 -0.10135,-0.0272 -0.20532,-0.0453 -0.31161,-0.0543 l -1e-5,2.1e-4 c -0.10219,0.16024 -0.20592,0.32508 -0.31058,0.49455 -0.0954,0.17191 -0.18967,0.33956 -0.28267,0.50229 -0.0191,0.0343 -0.0377,0.0684 -0.0568,0.10284 -0.007,0.0276 -0.0207,0.0586 -0.0398,0.093 -0.33373,0.5821 -0.67916,1.15164 -1.0356,1.70791 -0.0997,0.15888 -0.85891,1.25861 -1.81797,2.64372 -5.8752,0.18694 -9.223013,0.0695 -15.133963,-5e-5 z m 16.505963,4.10879 v 12.39666 c -4.98114,0.23575 -9.844203,-0.37861 -15.306553,0 v -15.30656 c 5.09667,0.009 7.965093,0.0417 13.103583,5e-5 -0.0634,0.0916 -0.12362,0.17886 -0.18809,0.27187 -4.26315,0.46489 -9.107387,0.0473 -12.644193,0 v 0.60151 14.16193 c 5.208943,-0.37362 9.267973,0.24265 14.763963,0 l -1e-5,-11.71458 z m -1.47277,10.9245 c -4.45019,0.28208 -7.92716,-0.27674 -12.361003,0 -0.0757,-4.11252 -0.40819,-8.19836 0,-12.36152 4.070633,-0.28102 6.274693,0.44529 10.610203,0 -2.13188,3.0746 -4.40322,6.35132 -4.57905,6.6461 -0.2194,-0.55325 -0.93863,-2.20757 -1.13895,-2.77037 -0.19077,-0.5628 -0.37686,-1.12107 -0.5581,-1.67432 -0.0954,-0.28617 -0.19038,-0.56726 -0.28577,-0.84387 -0.0954,-0.27663 -0.190903,-0.55823 -0.286293,-0.8444 -0.0763,-0.009 -0.15754,-0.0145 -0.24339,-0.0145 -0.0858,-0.009 -0.16708,-0.014 -0.2434,-0.014 -0.10493,0 -0.21419,0.005 -0.32866,0.014 -0.10493,0 -0.20537,0.005 -0.30076,0.0145 -0.11446,0.01 -0.22866,0.0239 -0.34313,0.0429 -0.11447,0.01 -0.22918,0.0239 -0.34365,0.0429 -0.20031,0.0286 -0.40561,0.0572 -0.61546,0.0858 -0.20032,0.0196 -0.41003,0.0289 -0.62942,0.0289 h -0.2434 c -0.0859,-0.01 -0.16656,-0.0199 -0.24288,-0.0289 v 0.001 l -0.18603,0.18604 c 0.32432,0.78218 0.62954,1.57378 0.9157,2.37505 0.29571,0.80127 0.58665,1.60272 0.87282,2.40399 0.0286,0.0763 0.0572,0.15759 0.0858,0.24339 0.0286,0.0763 0.0572,0.15708 0.0858,0.24288 0.32432,0.91574 0.65367,1.83631 0.98754,2.76159 0.33386,0.91574 0.68683,1.81712 1.058853,2.70423 h 0.14314 c 0.0382,-0.009 0.081,-0.014 0.12867,-0.014 l 0.11421,-0.0145 h 0.12919 c 0.13354,0 0.26202,0.005 0.38601,0.0145 0.13355,0.009 0.26253,0.014 0.38654,0.014 l 0.37207,0.0289 c 0.12401,0.009 0.24806,0.0139 0.37207,0.0139 0.19078,0 0.38128,-0.0143 0.57206,-0.0429 0.20032,-0.0286 0.39134,-0.0808 0.57258,-0.1571 l 5.13612,-7.77829 z m 4.49582,-19.00142 0.2899,0.078 -0.10438,0.44597 c -0.33488,0.51268 -0.67919,1.02241 -1.0325,1.53014 -0.35084,0.49851 -0.70604,0.99585 -1.06608,1.4919 l -0.14573,0.21291 -0.14263,0.19895 c -0.40069,0.57402 -0.79656,1.14949 -1.18804,1.72599 -0.38902,0.56729 -7.28248,10.48818 -7.50187,11.15591 h -0.78703 l -3.061823,-8.19898 c 0,-0.009 -0.005,-0.014 -0.0145,-0.014 v -0.0289 -0.014 -0.0145 c -0.01,-0.0477 0.01,-0.0856 0.0574,-0.11421 0.0572,-0.0286 0.11433,-0.0429 0.17156,-0.0429 h 0.0713 c 0.0191,0 0.0333,0.005 0.0429,0.014 0.38156,0.86804 0.73946,1.75021 1.07332,2.64687 0.33386,0.88712 0.667633,1.77915 1.001493,2.6758 0.0477,0.14308 0.10038,0.29076 0.15761,0.44339 0.0572,0.15262 0.11433,0.30082 0.17156,0.4439 0.10491,0.29572 0.21471,0.59107 0.32918,0.88677 0.11447,0.2957 0.22867,0.5965 0.34313,0.90175 h 0.17208 z"
         sodipodi:nodetypes="ccccccccccccccccccccccccccccccccccccccccccccsccscccccscccccccccccccscccscccccccccccccccccccsscccscscccc"
         inkscape:export-filename="checkbox_checked.png"
         inkscape:export-xdpi="99.9968"
         inkscape:export-ydpi="99.9968" />
      <path
         id="path7"
         style="color:#000000;fill:#fdfdfd;fill-opacity:1;stroke:none;stroke-width:0.4;stroke-linecap:round;stroke-dasharray:none;stroke-opacity:1"
         d="m 93.329457,130.13838 v 0.59944 c 0.22291,4.73302 0.0589,11.14748 0,17.10542 6.45542,-0.5199 11.399213,0.15551 17.705373,0 v -15.4125 l 4.13514,-6.26215 0.13075,-0.5426 -0.0413,-0.0119 -0.0553,-0.0145 -0.0553,-0.015 -0.0419,-0.0114 c -0.22113,-0.0593 -0.43484,-0.12685 -0.64182,-0.20205 -0.19777,-0.0727 -0.39906,-0.15115 -0.60358,-0.23565 -0.20698,-0.0752 -0.40943,-0.14889 -0.6072,-0.22169 -0.18855,-0.0703 -0.38856,-0.13389 -0.60048,-0.19069 -0.11057,-0.0296 -0.22234,-0.0545 -0.33538,-0.0749 -0.10135,-0.0272 -0.20532,-0.0453 -0.31161,-0.0543 l -1e-5,2.1e-4 c -0.10219,0.16024 -0.20592,0.32508 -0.31058,0.49455 -0.0954,0.17191 -0.18967,0.33956 -0.28267,0.50229 -0.0191,0.0343 -0.0377,0.0684 -0.0568,0.10284 -0.007,0.0276 -0.0207,0.0586 -0.0398,0.093 -0.33373,0.5821 -0.67916,1.15164 -1.0356,1.70791 -0.0997,0.15888 -0.85891,1.25861 -1.81797,2.64372 -5.8752,0.18694 -9.223013,0.0695 -15.133963,-5e-5 z m 16.505963,4.10879 v 12.39666 c -4.98114,0.23575 -9.844203,-0.37861 -15.306553,0 v -15.30656 c 5.09667,0.009 7.965093,0.0417 13.103583,5e-5 -0.0634,0.0916 -0.12362,0.17886 -0.18809,0.27187 -4.26315,0.46489 -9.107387,0.0473 -12.644193,0 v 0.60151 14.16193 c 5.208943,-0.37362 9.267973,0.24265 14.763963,0 l -1e-5,-11.71458 z m -1.47277,10.9245 c -4.45019,0.28208 -7.92716,-0.27674 -12.361003,0 -0.0757,-4.11252 -0.40819,-8.19836 0,-12.36152 4.070633,-0.28102 6.274693,0.44529 10.610203,0 -2.13188,3.0746 -4.40322,6.35132 -4.57905,6.6461 -0.2194,-0.55325 -0.93863,-2.20757 -1.13895,-2.77037 -0.19077,-0.5628 -0.37686,-1.12107 -0.5581,-1.67432 -0.0954,-0.28617 -0.19038,-0.56726 -0.28577,-0.84387 -0.0954,-0.27663 -0.190903,-0.55823 -0.286293,-0.8444 -0.0763,-0.009 -0.15754,-0.0145 -0.24339,-0.0145 -0.0858,-0.009 -0.16708,-0.014 -0.2434,-0.014 -0.10493,0 -0.21419,0.005 -0.32866,0.014 -0.10493,0 -0.20537,0.005 -0.30076,0.0145 -0.11446,0.01 -0.22866,0.0239 -0.34313,0.0429 -0.11447,0.01 -0.22918,0.0239 -0.34365,0.0429 -0.20031,0.0286 -0.40561,0.0572 -0.61546,0.0858 -0.20032,0.0196 -0.41003,0.0289 -0.62942,0.0289 h -0.2434 c -0.0859,-0.01 -0.16656,-0.0199 -0.24288,-0.0289 v 0.001 l -0.18603,0.18604 c 0.32432,0.78218 0.62954,1.57378 0.9157,2.37505 0.29571,0.80127 0.58665,1.60272 0.87282,2.40399 0.0286,0.0763 0.0572,0.15759 0.0858,0.24339 0.0286,0.0763 0.0572,0.15708 0.0858,0.24288 0.32432,0.91574 0.65367,1.83631 0.98754,2.76159 0.33386,0.91574 0.68683,1.81712 1.058853,2.70423 h 0.14314 c 0.0382,-0.009 0.081,-0.014 0.12867,-0.014 l 0.11421,-0.0145 h 0.12919 c 0.13354,0 0.26202,0.005 0.38601,0.0145 0.13355,0.009 0.26253,0.014 0.38654,0.014 l 0.37207,0.0289 c 0.12401,0.009 0.24806,0.0139 0.37207,0.0139 0.19078,0 0.38128,-0.0143 0.57206,-0.0429 0.20032,-0.0286 0.39134,-0.0808 0.57258,-0.1571 l 5.13612,-7.77829 z m 4.49582,-19.00142 0.2899,0.078 -0.10438,0.44597 c -0.33488,0.51268 -0.67919,1.02241 -1.0325,1.53014 -0.35084,0.49851 -0.70604,0.99585 -1.06608,1.4919 l -0.14573,0.21291 -0.14263,0.19895 c -0.40069,0.57402 -0.79656,1.14949 -1.18804,1.72599 -0.38902,0.56729 -7.28248,10.48818 -7.50187,11.15591 h -0.78703 l -3.061823,-8.19898 c 0,-0.009 -0.005,-0.014 -0.0145,-0.014 v -0.0289 -0.014 -0.0145 c -0.01,-0.0477 0.01,-0.0856 0.0574,-0.11421 0.0572,-0.0286 0.11433,-0.0429 0.17156,-0.0429 h 0.0713 c 0.0191,0 0.0333,0.005 0.0429,0.014 0.38156,0.86804 0.73946,1.75021 1.07332,2.64687 0.33386,0.88712 0.667633,1.77915 1.001493,2.6758 0.0477,0.14308 0.10038,0.29076 0.15761,0.44339 0.0572,0.15262 0.11433,0.30082 0.17156,0.4439 0.10491,0.29572 0.21471,0.59107 0.32918,0.88677 0.11447,0.2957 0.22867,0.5965 0.34313,0.90175 h 0.17208 z"
         sodipodi:nodetypes="ccccccccccccccccccccccccccccccccccccccccccccsccscccccscccccccccccccscccscccccccccccccccccccsscccscscccc"
         inkscape:export-filename="checkbox_checked.png"
         inkscape:export-xdpi="99.9968"
         inkscape:export-ydpi="99.9968" />
    </g>
    <g
       id="g8"
       transform="translate(-3.2419879e-4,-3.019609e-4)">
      <path
         id="path6"
         style="color:#000000;fill:#000000;fill-opacity:1;stroke:#000000;stroke-linecap:round;stroke-opacity:1;-inkscape-stroke:none;stroke-linejoin:round"
         d="m 116.88185,130.72461 v 0.60156 14.16211 c 5.20895,-0.37362 9.26768,0.24265 14.76367,0 v -14.76367 c -4.0692,0.36917 -9.70818,0.0582 -14.76367,0 z m 1.20117,1.20117 c 4.07079,-0.28103 8.06879,0.6424 12.36133,0 v 12.36133 c -4.45019,0.28208 -7.92748,-0.27674 -12.36133,0 -0.0757,-4.11252 -0.40819,-8.19816 0,-12.36133 z m -2.67187,-2.67187 v 0.59961 c 0.22291,4.73302 0.0589,11.14752 0,17.10546 6.45543,-0.5199 11.39891,0.15551 17.70507,0 v -17.70507 c -5.87585,0.18704 -11.79376,0.0696 -17.70507,0 z m 1.19921,1.19921 c 5.09704,0.009 10.16746,0.0417 15.30664,0 v 15.30665 c -4.98114,0.23575 -9.84427,-0.37861 -15.30664,0 z"
         sodipodi:nodetypes="cccccccccccccccccccccc"
         inkscape:export-filename="checkbox_unchecked.png"
         inkscape:export-xdpi="99.9968"
         inkscape:export-ydpi="99.9968" />
      <path
         id="path8"
         style="color:#000000;fill:#ffffff;fill-opacity:1;stroke-linecap:round;-inkscape-stroke:none"
         d="m 116.88185,130.72461 v 0.60156 14.16211 c 5.20895,-0.37362 9.26768,0.24265 14.76367,0 v -14.76367 c -4.0692,0.36917 -9.70818,0.0582 -14.76367,0 z m 1.20117,1.20117 c 4.07079,-0.28103 8.06879,0.6424 12.36133,0 v 12.36133 c -4.45019,0.28208 -7.92748,-0.27674 -12.36133,0 -0.0757,-4.11252 -0.40819,-8.19816 0,-12.36133 z m -2.67187,-2.67187 v 0.59961 c 0.22291,4.73302 0.0589,11.14752 0,17.10546 6.45543,-0.5199 11.39891,0.15551 17.70507,0 v -17.70507 c -5.87585,0.18704 -11.79376,0.0696 -17.70507,0 z m 1.19921,1.19921 c 5.09704,0.009 10.16746,0.0417 15.30664,0 v 15.30665 c -4.98114,0.23575 -9.84427,-0.37861 -15.30664,0 z"
         sodipodi:nodetypes="cccccccccccccccccccccc"
         inkscape:export-filename="checkbox_unchecked.png"
         inkscape:export-xdpi="99.9968"
         inkscape:export-ydpi="99.9968" />
    </g>
    <g
       id="g10">
      <g
         aria-label="V"
         id="g9"
         style="font-size:12.7px;line-height:1.25;font-family:African;-inkscape-font-specification:African;stroke:#000000;stroke-width:1;stroke-dasharray:none;stroke-opacity:1"
         transform="translate(38.920169,0.53328804)">
        <path
           d="m 80.095856,133.28176 c 0.06615,0.008 0.136427,0.0165 0.21084,0.0248 h 0.210839 c 0.190169,0 0.372071,-0.008 0.545704,-0.0248 0.181901,-0.0248 0.359667,-0.0496 0.5333,-0.0744 0.09922,-0.0165 0.198438,-0.0289 0.297657,-0.0372 0.09922,-0.0165 0.198437,-0.0289 0.297656,-0.0372 0.08268,-0.008 0.169498,-0.0124 0.260449,-0.0124 0.09922,-0.008 0.194303,-0.0124 0.285254,-0.0124 0.06615,0 0.136427,0.004 0.21084,0.0124 0.07441,0 0.144694,0.004 0.21084,0.0124 0.08268,0.24805 0.165364,0.49196 0.248046,0.73174 0.08268,0.23977 0.165365,0.48369 0.248047,0.73174 0.157097,0.47955 0.318327,0.96324 0.483692,1.45107 0.173633,0.48783 0.797005,1.92179 0.987175,2.40134 0.28112,-0.47129 6.85113,-9.8919 7.149957,-10.36822 0.308956,-0.48217 0.608072,-0.97554 0.897347,-1.4801 0.01654,-0.0298 0.02802,-0.0567 0.03444,-0.0806 0.01654,-0.0298 0.03309,-0.0596 0.04964,-0.0894 0.08059,-0.14105 0.162253,-0.28609 0.244985,-0.43511 0.09072,-0.14689 0.180365,-0.28979 0.268945,-0.42869 0.09213,0.008 0.182122,0.0231 0.269973,0.0467 0.09798,0.0177 0.194885,0.0394 0.290723,0.0651 0.18369,0.0492 0.357253,0.10428 0.52069,0.16519 0.171424,0.0631 0.346841,0.12717 0.526252,0.19236 0.177271,0.0732 0.351618,0.14128 0.523041,0.20433 0.17941,0.0652 0.364953,0.12347 0.556629,0.17483 l 0.03594,0.01 0.04792,0.0128 0.04792,0.0128 0.03594,0.01 -0.113211,0.47042 -10.352724,15.67786 c -0.157097,0.0661 -0.322461,0.11161 -0.496094,0.13642 -0.165365,0.0248 -0.330729,0.0372 -0.496094,0.0372 -0.107487,0 -0.214974,-0.004 -0.322461,-0.0124 l -0.322461,-0.0248 c -0.107487,0 -0.219108,-0.004 -0.334863,-0.0124 -0.107487,-0.008 -0.219108,-0.0124 -0.334863,-0.0124 h -0.111621 l -0.09922,0.0124 c -0.04134,0 -0.07855,0.004 -0.111621,0.0124 H 83.40728 c -0.322461,-0.76894 -0.628385,-1.55029 -0.917773,-2.34404 -0.289388,-0.80202 -0.574642,-1.5999 -0.855762,-2.39365 -0.02481,-0.0744 -0.04961,-0.14469 -0.07441,-0.21084 -0.02481,-0.0744 -0.04961,-0.14469 -0.07441,-0.21084 -0.248047,-0.69453 -0.500228,-1.38906 -0.756543,-2.08359 -0.248047,-0.69453 -0.51263,-1.3808 -0.79375,-2.05879 l 0.161231,-0.16123 z m 1.922363,0.95498 c -0.0083,-0.008 -0.02067,-0.0124 -0.03721,-0.0124 H 81.919 c -0.04961,0 -0.09922,0.0124 -0.148828,0.0372 -0.04134,0.0248 -0.05788,0.0579 -0.04961,0.0992 v 0.0124 0.0124 0.0248 c 0.0083,0 0.0124,0.004 0.0124,0.0124 l 2.654102,7.10655 h 0.682128 c 0.190169,-0.57878 6.165415,-9.17822 6.50261,-9.66994 0.339334,-0.49971 0.68266,-0.99835 1.02998,-1.49591 l 0.123245,-0.17242 0.126444,-0.1844 c 0.312087,-0.42997 0.620181,-0.86101 0.924283,-1.29312 0.306241,-0.44009 0.604496,-0.88233 0.894765,-1.32671 l 0.09074,-0.38656 -0.251574,-0.0674 -9.676134,14.2368 h -0.148828 c -0.09922,-0.26459 -0.198437,-0.52504 -0.297656,-0.78135 -0.09922,-0.25631 -0.194304,-0.51263 -0.285254,-0.76895 -0.04961,-0.12402 -0.09922,-0.25218 -0.148828,-0.38447 -0.04961,-0.13229 -0.09509,-0.26045 -0.136426,-0.38447 -0.289388,-0.77721 -0.578776,-1.55029 -0.868164,-2.31924 -0.289388,-0.77721 -0.599447,-1.54202 -0.930176,-2.29443 z"
           id="path9"
           sodipodi:nodetypes="ccscccccsccsccccccccccscccscccccccssccscccccccccccccssccccccccccccccccccscscccc"
           style="stroke:#000000;stroke-width:1;stroke-dasharray:none;stroke-opacity:1;stroke-linejoin:round" />
      </g>
      <g
         aria-label="V"
         id="text1"
         style="font-size:12.7px;line-height:1.25;font-family:African;-inkscape-font-specification:African;stroke:none;stroke-width:0;stroke-dasharray:none;stroke-opacity:1;fill:#ffffff;fill-opacity:1"
         transform="translate(38.920169,0.53328804)">
        <path
           d="m 80.095856,133.28176 c 0.06615,0.008 0.136427,0.0165 0.21084,0.0248 h 0.210839 c 0.190169,0 0.372071,-0.008 0.545704,-0.0248 0.181901,-0.0248 0.359667,-0.0496 0.5333,-0.0744 0.09922,-0.0165 0.198438,-0.0289 0.297657,-0.0372 0.09922,-0.0165 0.198437,-0.0289 0.297656,-0.0372 0.08268,-0.008 0.169498,-0.0124 0.260449,-0.0124 0.09922,-0.008 0.194303,-0.0124 0.285254,-0.0124 0.06615,0 0.136427,0.004 0.21084,0.0124 0.07441,0 0.144694,0.004 0.21084,0.0124 0.08268,0.24805 0.165364,0.49196 0.248046,0.73174 0.08268,0.23977 0.165365,0.48369 0.248047,0.73174 0.157097,0.47955 0.318327,0.96324 0.483692,1.45107 0.173633,0.48783 0.797005,1.92179 0.987175,2.40134 0.28112,-0.47129 6.85113,-9.8919 7.149957,-10.36822 0.308956,-0.48217 0.608072,-0.97554 0.897347,-1.4801 0.01654,-0.0298 0.02802,-0.0567 0.03444,-0.0806 0.01654,-0.0298 0.03309,-0.0596 0.04964,-0.0894 0.08059,-0.14105 0.162253,-0.28609 0.244985,-0.43511 0.09072,-0.14689 0.180365,-0.28979 0.268945,-0.42869 0.09213,0.008 0.182122,0.0231 0.269973,0.0467 0.09798,0.0177 0.194885,0.0394 0.290723,0.0651 0.18369,0.0492 0.357253,0.10428 0.52069,0.16519 0.171424,0.0631 0.346841,0.12717 0.526252,0.19236 0.177271,0.0732 0.351618,0.14128 0.523041,0.20433 0.17941,0.0652 0.364953,0.12347 0.556629,0.17483 l 0.03594,0.01 0.04792,0.0128 0.04792,0.0128 0.03594,0.01 -0.113211,0.47042 -10.352724,15.67786 c -0.157097,0.0661 -0.322461,0.11161 -0.496094,0.13642 -0.165365,0.0248 -0.330729,0.0372 -0.496094,0.0372 -0.107487,0 -0.214974,-0.004 -0.322461,-0.0124 l -0.322461,-0.0248 c -0.107487,0 -0.219108,-0.004 -0.334863,-0.0124 -0.107487,-0.008 -0.219108,-0.0124 -0.334863,-0.0124 h -0.111621 l -0.09922,0.0124 c -0.04134,0 -0.07855,0.004 -0.111621,0.0124 H 83.40728 c -0.322461,-0.76894 -0.628385,-1.55029 -0.917773,-2.34404 -0.289388,-0.80202 -0.574642,-1.5999 -0.855762,-2.39365 -0.02481,-0.0744 -0.04961,-0.14469 -0.07441,-0.21084 -0.02481,-0.0744 -0.04961,-0.14469 -0.07441,-0.21084 -0.248047,-0.69453 -0.500228,-1.38906 -0.756543,-2.08359 -0.248047,-0.69453 -0.51263,-1.3808 -0.79375,-2.05879 l 0.161231,-0.16123 z m 1.922363,0.95498 c -0.0083,-0.008 -0.02067,-0.0124 -0.03721,-0.0124 H 81.919 c -0.04961,0 -0.09922,0.0124 -0.148828,0.0372 -0.04134,0.0248 -0.05788,0.0579 -0.04961,0.0992 v 0.0124 0.0124 0.0248 c 0.0083,0 0.0124,0.004 0.0124,0.0124 l 2.654102,7.10655 h 0.682128 c 0.190169,-0.57878 6.165415,-9.17822 6.50261,-9.66994 0.339334,-0.49971 0.68266,-0.99835 1.02998,-1.49591 l 0.123245,-0.17242 0.126444,-0.1844 c 0.312087,-0.42997 0.620181,-0.86101 0.924283,-1.29312 0.306241,-0.44009 0.604496,-0.88233 0.894765,-1.32671 l 0.09074,-0.38656 -0.251574,-0.0674 -9.676134,14.2368 h -0.148828 c -0.09922,-0.26459 -0.198437,-0.52504 -0.297656,-0.78135 -0.09922,-0.25631 -0.194304,-0.51263 -0.285254,-0.76895 -0.04961,-0.12402 -0.09922,-0.25218 -0.148828,-0.38447 -0.04961,-0.13229 -0.09509,-0.26045 -0.136426,-0.38447 -0.289388,-0.77721 -0.578776,-1.55029 -0.868164,-2.31924 -0.289388,-0.77721 -0.599447,-1.54202 -0.930176,-2.29443 z"
           id="path3"
           sodipodi:nodetypes="ccscccccsccsccccccccccscccscccccccssccscccccccccccccssccccccccccccccccccscscccc"
           style="stroke:none;stroke-width:0;stroke-dasharray:none;stroke-opacity:1;fill:#ffffff;fill-opacity:1" />
      </g>
    </g>
  </g>
</svg>
